SplineFontDB: 3.0
FontName: DuruSans-Regular
FullName: Duru Sans Regular
FamilyName: Duru Sans
Weight: Book
Copyright: Copyright (c) 2010 by Sorkin Type Co with Reserved Font Name Duru.\n\nThis Font Software is licensed under the SIL Open Font License, Version 1.1. This license is copied below, and is also available with a FAQ at: http://scripts.sil.org/OFL
Version: 1.002
ItalicAngle: 0
UnderlinePosition: -146
UnderlineWidth: 114
Ascent: 1638
Descent: 410
LayerCount: 2
Layer: 0 1 "Back"  1
Layer: 1 1 "Fore"  0
XUID: [1021 631 1661839179 13606532]
FSType: 0
OS2Version: 3
OS2_WeightWidthSlopeOnly: 0
OS2_UseTypoMetrics: 1
CreationTime: 1333879080
ModificationTime: 1333874826
PfmFamily: 17
TTFWeight: 400
TTFWidth: 5
LineGap: 0
VLineGap: 0
Panose: 2 11 5 3 4 5 0 6 2 4
OS2TypoAscent: 382
OS2TypoAOffset: 1
OS2TypoDescent: -130
OS2TypoDOffset: 1
OS2TypoLinegap: 0
OS2WinAscent: 0
OS2WinAOffset: 1
OS2WinDescent: 0
OS2WinDOffset: 1
HheadAscent: 0
HheadAOffset: 1
HheadDescent: 0
HheadDOffset: 1
OS2SubXSize: 1434
OS2SubYSize: 1331
OS2SubXOff: 0
OS2SubYOff: 287
OS2SupXSize: 1434
OS2SupYSize: 1331
OS2SupXOff: 0
OS2SupYOff: 977
OS2StrikeYSize: 144
OS2StrikeYPos: 595
OS2Vendor: 'STC '
OS2CodePages: 20000093.00000000
OS2UnicodeRanges: a00000af.4000204a.00000000.00000000
DEI: 91125
TtTable: prep
MPPEM
PUSHW_1
 122
GT
IF
PUSHB_2
 1
 1
INSTCTRL
EIF
PUSHW_2
 2048
 2048
MUL
DUP
PUSHB_1
 1
SWAP
WCVTP
DUP
PUSHB_1
 3
SWAP
WCVTF
PUSHB_1
 21
RCVT
DUP
DUP
PUSHB_1
 40
ADD
FLOOR
DUP
ROLL
NEQ
IF
PUSHB_1
 2
CINDEX
SUB
PUSHB_1
 1
RCVT
MUL
SWAP
DIV
PUSHB_1
 2
SWAP
WCVTP
PUSHB_4
 10
 11
 3
 2
CALL
PUSHB_4
 12
 17
 3
 2
CALL
PUSHB_4
 18
 23
 3
 2
CALL
EIF
PUSHB_3
 4
 40
 7
RCVT
GT
WCVTP
PUSHB_4
 12
 17
 4
 2
CALL
PUSHW_1
 511
SCANCTRL
PUSHB_1
 4
SCANTYPE
PUSHB_2
 5
 0
WCVTP
EndTTInstrs
TtTable: fpgm
PUSHB_1
 0
FDEF
DUP
ABS
PUSHB_1
 32
ADD
FLOOR
SWAP
PUSHB_1
 0
LT
IF
NEG
EIF
ENDF
PUSHB_1
 1
FDEF
DUP
ABS
DUP
PUSHB_1
 192
LT
PUSHB_1
 4
MINDEX
AND
PUSHB_1
 4
RCVT
OR
IF
POP
SWAP
POP
ELSE
ROLL
IF
DUP

StartChar: .notdef
Encoding: 65536 -1 0
Width: 1634
Flags: W
LayerCount: 2
Fore
SplineSet
186 1540 m 1,0,-1
 1448 1540 l 1,1,-1
 1448 0 l 1,2,-1
 186 0 l 1,3,-1
 186 1540 l 1,0,-1
476 279 m 1,4,-1
 816 672 l 1,5,-1
 1156 279 l 1,6,-1
 1261 376 l 1,7,8
 1261 376 1261 376 902 767 c 1,9,-1
 1261 1159 l 1,10,-1
 1156 1257 l 1,11,-1
 816 864 l 1,12,-1
 476 1257 l 1,13,-1
 372 1159 l 1,14,-1
 731 767 l 1,15,16
 423 435 423 435 372 376 c 1,17,-1
 476 279 l 1,4,-1
EndSplineSet
EndChar

StartChar: exclam
Encoding: 33 33 23
Width: 682
GlyphClass: 2
Flags: W
LayerCount: 2
Fore
SplineSet
245 1588 m 1,0,-1
 433 1588 l 1,1,-1
 406 389 l 1,2,-1
 272 389 l 1,3,-1
 245 1588 l 1,0,-1
237 203 m 1,4,-1
 444 203 l 1,5,-1
 444 0 l 1,6,-1
 237 0 l 1,7,-1
 237 203 l 1,4,-1
EndSplineSet
EndChar

StartChar: quotedbl
Encoding: 34 34 24
Width: 854
GlyphClass: 2
Flags: W
LayerCount: 2
Fore
SplineSet
548 1005 m 1,0,-1
 516 1601 l 1,1,-1
 693 1601 l 1,2,-1
 662 1005 l 1,3,-1
 548 1005 l 1,0,-1
192 1005 m 1,4,-1
 160 1601 l 1,5,-1
 338 1601 l 1,6,-1
 306 1005 l 1,7,-1
 192 1005 l 1,4,-1
EndSplineSet
EndChar

StartChar: numbersign
Encoding: 35 35 25
Width: 1366
GlyphClass: 2
Flags: W
LayerCount: 2
Fore
SplineSet
338 502 m 1,0,-1
 110 502 l 1,1,-1
 110 632 l 1,2,-1
 358 632 l 1,3,-1
 416 981 l 1,4,-1
 199 981 l 1,5,-1
 199 1111 l 1,6,-1
 437 1111 l 1,7,-1
 510 1555 l 1,8,-1
 656 1555 l 1,9,-1
 585 1111 l 1,10,-1
 853 1111 l 1,11,-1
 927 1555 l 1,12,-1
 1073 1555 l 1,13,-1
 1002 1111 l 1,14,-1
 1256 1111 l 1,15,-1
 1249 981 l 1,16,-1
 981 981 l 1,17,-1
 925 632 l 1,18,-1
 1168 632 l 1,19,-1
 1161 502 l 1,20,-1
 905 502 l 1,21,-1
 826 16 l 1,22,-1
 673 16 l 1,23,-1
 751 502 l 1,24,-1
 488 502 l 1,25,-1
 411 16 l 1,26,-1
 258 16 l 1,27,-1
 338 502 l 1,0,-1
775 632 m 1,28,-1
 833 981 l 1,29,-1
 564 981 l 1,30,-1
 508 632 l 1,31,-1
 775 632 l 1,28,-1
EndSplineSet
EndChar

StartChar: dollar
Encoding: 36 36 26
Width: 1197
GlyphClass: 2
Flags: W
LayerCount: 2
Fore
SplineSet
207 338 m 1,0,1
 399 242 399 242 543 227 c 1,2,-1
 543 733 l 1,3,4
 460 772 460 772 389.5 809.5 c 128,-1,5
 319 847 319 847 267 894 c 0,6,7
 156 996 156 996 152 1164 c 1,8,9
 162 1396 162 1396 376 1480 c 0,10,11
 448 1508 448 1508 543 1513 c 1,12,-1
 543 1729 l 1,13,-1
 642 1729 l 1,14,-1
 642 1513 l 1,15,16
 802 1504 802 1504 980 1426 c 1,17,-1
 941 1266 l 1,18,19
 756 1344 756 1344 642 1356 c 1,20,-1
 642 868 l 1,21,22
 647 864 647 864 653.5 862 c 128,-1,23
 660 860 660 860 708.5 837 c 128,-1,24
 757 814 757 814 827 773.5 c 128,-1,25
 897 733 897 733 945 686 c 0,26,27
 1043 589 1043 589 1043 442 c 0,28,29
 1043 192 1043 192 814 102 c 0,30,31
 742 74 742 74 642 67 c 1,32,-1
 642 -174 l 1,33,-1
 543 -174 l 1,34,-1
 543 67 l 1,35,36
 366 72 366 72 168 181 c 1,37,-1
 207 338 l 1,0,1
543 1356 m 1,38,39
 345 1339 345 1339 335 1166 c 1,40,41
 322 1045 322 1045 460 961 c 0,42,43
 500 937 500 937 543 916 c 1,44,-1
 543 1356 l 1,38,39
642 227 m 1,45,46
 804 241 804 241 848 347 c 0,47,48
 861 380 861 380 865 426 c 128,-1,49
 869 472 869 472 849.5 513 c 128,-1,50
 830 554 830 554 797 586 c 0,51,52
 748 633 748 633 642 685 c 1,53,-1
 642 227 l 1,45,46
EndSplineSet
EndChar

StartChar: percent
Encoding: 37 37 27
Width: 1877
GlyphClass: 2
Flags: W
LayerCount: 2
Fore
SplineSet
407 33 m 1,0,-1
 1368 1613 l 1,1,-1
 1481 1555 l 1,2,-1
 522 -28 l 1,3,-1
 407 33 l 1,0,-1
644 776 m 0,4,5
 577 748 577 748 491.5 748 c 128,-1,6
 406 748 406 748 337 775.5 c 128,-1,7
 268 803 268 803 220 856 c 0,8,9
 122 964 122 964 122 1164 c 0,10,11
 122 1361 122 1361 220 1472 c 1,12,13
 318 1581 318 1581 493 1581 c 0,14,15
 662 1581 662 1581 758 1472 c 1,16,17
 854 1360 854 1360 854 1164 c 0,18,19
 854 862 854 862 644 776 c 0,4,5
492 870 m 0,20,21
 531 870 531 870 567.5 887 c 128,-1,22
 604 904 604 904 632 940 c 0,23,24
 694 1020 694 1020 694 1164 c 0,25,26
 694 1307 694 1307 632 1387 c 0,27,28
 577 1458 577 1458 493 1458 c 0,29,30
 405 1458 405 1458 348 1387 c 1,31,32
 286 1308 286 1308 286 1164 c 0,33,34
 286 1019 286 1019 348 940 c 0,35,36
 404 870 404 870 492 870 c 0,20,21
1048 236 m 0,37,38
 1023 314 1023 314 1023 414 c 128,-1,39
 1023 514 1023 514 1048.5 591 c 128,-1,40
 1074 668 1074 668 1122 722 c 0,41,42
 1219 831 1219 831 1393 831 c 0,43,44
 1562 831 1562 831 1658 722 c 1,45,46
 1754 610 1754 610 1754 415 c 0,47,48
 1754 216 1754 216 1658 106 c 0,49,50
 1563 -2 1563 -2 1393 -2 c 0,51,52
 1127 -2 1127 -2 1048 236 c 0,37,38
1187 414 m 0,53,54
 1187 338 1187 338 1204 282.5 c 128,-1,55
 1221 227 1221 227 1250 191 c 0,56,57
 1306 120 1306 120 1393 120 c 0,58,59
 1476 120 1476 120 1532 191 c 0,60,61
 1595 270 1595 270 1595 415 c 0,62,63
 1595 559 1595 559 1532 638 c 0,64,65
 1476 709 1476 709 1393 709 c 0,66,67
 1306 709 1306 709 1250 638 c 0,68,69
 1187 559 1187 559 1187 414 c 0,53,54
EndSplineSet
EndChar

StartChar: ampersand
Encoding: 38 38 28
Width: 1537
GlyphClass: 2
Flags: W
LayerCount: 2
Fore
SplineSet
1086 162 m 1,0,1
 908 -20 908 -20 645 -20 c 0,2,3
 458 -20 458 -20 320 96 c 0,4,5
 178 215 178 215 164 391 c 0,6,7
 163 399 163 399 163 407 c 128,-1,8
 163 415 163 415 163 423 c 0,9,10
 163 572 163 572 260 698 c 0,11,12
 348 813 348 813 495 883 c 1,13,14
 385 1021 385 1021 375 1199 c 1,15,16
 369 1352 369 1352 470 1458 c 0,17,18
 569 1563 569 1563 715 1563 c 0,19,20
 862 1563 862 1563 954 1474 c 1,21,22
 1045 1388 1045 1388 1045 1250 c 0,23,24
 1045 1086 1045 1086 926 983 c 0,25,26
 907 967 907 967 878 944 c 1,27,-1
 711 820 l 1,28,29
 718 811 718 811 724.5 801 c 128,-1,30
 731 791 731 791 747 771 c 0,31,32
 980 494 980 494 1083 393 c 1,33,34
 1152 453 1152 453 1216 582 c 0,35,36
 1235 621 1235 621 1250 662 c 1,37,-1
 1396 558 l 1,38,39
 1296 374 1296 374 1180 278 c 1,40,-1
 1418 90 l 1,41,-1
 1266 -37 l 1,42,-1
 1086 162 l 1,0,1
634 936 m 1,43,44
 792 1024 792 1024 856 1161 c 0,45,46
 879 1209 879 1209 879 1275.5 c 128,-1,47
 879 1342 879 1342 837.5 1381 c 128,-1,48
 796 1420 796 1420 737 1420 c 128,-1,49
 678 1420 678 1420 642.5 1402 c 128,-1,50
 607 1384 607 1384 583 1354 c 0,51,52
 534 1293 534 1293 534 1202 c 0,53,54
 534 1086 534 1086 625 952 c 1,55,-1
 634 936 l 1,43,44
527 156.5 m 128,-1,57
 587 132 587 132 645.5 132 c 128,-1,58
 704 132 704 132 749 142.5 c 128,-1,59
 794 153 794 153 836 171 c 0,60,61
 919 206 919 206 991 263 c 1,62,-1
 553 757 l 1,63,64
 470 727 470 727 391 623 c 1,65,66
 333 532 333 532 333 453.5 c 128,-1,67
 333 375 333 375 357 319.5 c 128,-1,68
 381 264 381 264 424 222.5 c 128,-1,56
 467 181 467 181 527 156.5 c 128,-1,57
EndSplineSet
EndChar

StartChar: quotesingle
Encoding: 39 39 29
Width: 512
GlyphClass: 2
Flags: W
LayerCount: 2
Fore
SplineSet
199 1005 m 1,0,-1
 167 1601 l 1,1,-1
 345 1601 l 1,2,-1
 313 1005 l 1,3,-1
 199 1005 l 1,0,-1
EndSplineSet
EndChar

StartChar: parenleft
Encoding: 40 40 30
Width: 854
GlyphClass: 2
Flags: W
LayerCount: 2
Fore
SplineSet
505 -267 m 1,0,1
 293 53 293 53 234 450 c 0,2,3
 216 571 216 571 216 685 c 0,4,5
 216 1049 216 1049 378 1408 c 0,6,7
 432 1527 432 1527 505 1636 c 1,8,-1
 637 1570 l 1,9,10
 439 1280 439 1280 389 904 c 0,11,12
 374 791 374 791 374 685 c 0,13,14
 374 332 374 332 518 12 c 0,15,16
 568 -99 568 -99 637 -199 c 1,17,-1
 505 -267 l 1,0,1
EndSplineSet
EndChar

StartChar: parenright
Encoding: 41 41 31
Width: 854
GlyphClass: 2
Flags: W
LayerCount: 2
Fore
SplineSet
348 -267 m 1,0,1
 560 53 560 53 619 450 c 0,2,3
 637 571 637 571 637 685 c 0,4,5
 637 1049 637 1049 475 1408 c 0,6,7
 421 1527 421 1527 348 1636 c 1,8,-1
 216 1570 l 1,9,10
 414 1280 414 1280 464 904 c 0,11,12
 479 791 479 791 479 685 c 0,13,14
 479 332 479 332 335 12 c 0,15,16
 285 -99 285 -99 216 -199 c 1,17,-1
 348 -267 l 1,0,1
EndSplineSet
EndChar

StartChar: asterisk
Encoding: 42 42 32
Width: 1195
GlyphClass: 2
Flags: W
LayerCount: 2
Fore
SplineSet
596 1358 m 0,0,1
 578 1358 578 1358 553 1349 c 1,2,-1
 527 1518 l 1,3,4
 515 1566 515 1566 515 1621 c 2,5,-1
 515 1685 l 1,6,-1
 679 1685 l 1,7,-1
 679 1656 l 2,8,9
 679 1573 679 1573 668 1518 c 2,10,-1
 635 1349 l 1,11,12
 617 1358 617 1358 596 1358 c 0,0,1
695 1270 m 1,13,14
 692 1305 692 1305 654 1340 c 1,15,-1
 792 1444 l 1,16,17
 822 1469 822 1469 858 1489 c 2,18,-1
 934 1532 l 1,19,-1
 1013 1389 l 1,20,-1
 995 1377 l 1,21,-1
 932 1346 l 1,22,23
 892 1328 892 1328 853 1316 c 1,24,-1
 856 1316 l 1,25,-1
 703 1266 l 1,26,-1
 695 1270 l 1,13,14
538 1340 m 1,27,28
 500 1304 500 1304 496 1266 c 1,29,-1
 335 1316 l 2,30,31
 318 1322 318 1322 300 1330 c 0,32,33
 249 1353 249 1353 230 1362 c 2,34,-1
 200 1377 l 1,35,-1
 184 1387 l 1,36,-1
 258 1532 l 1,37,38
 343 1494 343 1494 401 1444 c 1,39,-1
 538 1340 l 1,27,28
657 1180 m 1,40,41
 690 1208 690 1208 699 1257 c 1,42,-1
 856 1203 l 1,43,-1
 853 1203 l 1,44,45
 891 1195 891 1195 921 1181 c 2,46,-1
 995 1146 l 1,47,48
 1004 1137 1004 1137 1013 1137 c 1,49,-1
 934 991 l 1,50,51
 927 994 927 994 910 1003 c 2,52,-1
 872 1024 l 2,53,54
 819 1054 819 1054 792 1078 c 1,55,-1
 657 1180 l 1,40,41
182 1139 m 1,56,-1
 200 1146 l 1,57,58
 295 1194 295 1194 335 1203 c 1,59,-1
 489 1254 l 1,60,-1
 496 1250 l 1,61,62
 500 1206 500 1206 536 1180 c 1,63,-1
 401 1078 l 1,64,65
 362 1044 362 1044 314.5 1019 c 128,-1,66
 267 994 267 994 258 991 c 1,67,-1
 182 1139 l 1,56,-1
553 1168 m 1,68,69
 571 1159 571 1159 593.5 1159 c 128,-1,70
 616 1159 616 1159 638 1164 c 1,71,-1
 668 998 l 1,72,73
 679 946 679 946 679 894 c 2,74,-1
 679 833 l 1,75,-1
 515 833 l 1,76,-1
 515 862 l 2,77,78
 515 952 515 952 527 998 c 1,79,-1
 553 1168 l 1,68,69
EndSplineSet
EndChar

StartChar: plus
Encoding: 43 43 33
Width: 1196
GlyphClass: 2
Flags: W
LayerCount: 2
Fore
SplineSet
534 706 m 1,0,-1
 136 706 l 1,1,-1
 136 823 l 1,2,-1
 534 823 l 1,3,-1
 534 1221 l 1,4,-1
 660 1221 l 1,5,-1
 660 823 l 1,6,-1
 1059 823 l 1,7,-1
 1059 706 l 1,8,-1
 660 706 l 1,9,-1
 660 306 l 1,10,-1
 534 306 l 1,11,-1
 534 706 l 1,0,-1
EndSplineSet
EndChar

StartChar: comma
Encoding: 44 44 34
Width: 682
GlyphClass: 2
Flags: W
LayerCount: 2
Fore
SplineSet
194 -210 m 1,0,1
 278 -72 278 -72 294 32 c 0,2,3
 301 73 301 73 302 123 c 1,4,-1
 302 267 l 1,5,-1
 488 278 l 1,6,-1
 488 181 l 2,7,8
 488 -103 488 -103 351 -250 c 1,9,-1
 194 -210 l 1,0,1
EndSplineSet
EndChar

StartChar: hyphen
Encoding: 45 45 35
Width: 853
GlyphClass: 2
Flags: W
LayerCount: 2
Fore
SplineSet
126 671 m 1,0,-1
 727 671 l 1,1,-1
 727 518 l 1,2,-1
 126 518 l 1,3,-1
 126 671 l 1,0,-1
EndSplineSet
EndChar

StartChar: period
Encoding: 46 46 36
Width: 682
GlyphClass: 2
Flags: W
LayerCount: 2
Fore
SplineSet
225 203 m 1,0,-1
 457 203 l 1,1,-1
 457 0 l 1,2,-1
 225 0 l 1,3,-1
 225 203 l 1,0,-1
EndSplineSet
EndChar

StartChar: slash
Encoding: 47 47 37
Width: 1024
GlyphClass: 2
Flags: W
LayerCount: 2
Fore
SplineSet
797 1734 m 1,0,-1
 937 1678 l 1,1,-1
 226 -113 l 1,2,-1
 86 -57 l 1,3,-1
 797 1734 l 1,0,-1
EndSplineSet
EndChar

StartChar: zero
Encoding: 48 48 38
Width: 1364
GlyphClass: 2
Flags: W
LayerCount: 2
Fore
SplineSet
682 -20 m 0,0,1
 438 -20 438 -20 302 197 c 0,2,3
 167 411 167 411 167 774 c 0,4,5
 167 1136 167 1136 302 1350 c 0,6,7
 439 1568 439 1568 682 1568 c 0,8,9
 924 1568 924 1568 1062 1350 c 0,10,11
 1197 1137 1197 1137 1197 774 c 0,12,13
 1197 410 1197 410 1062 197 c 0,14,15
 924 -20 924 -20 682 -20 c 0,0,1
682 134 m 0,16,17
 765 134 765 134 828 180 c 128,-1,18
 891 226 891 226 933 310 c 0,19,20
 1018 480 1018 480 1018 774 c 0,21,22
 1018 1067 1018 1067 933 1237 c 0,23,24
 845 1413 845 1413 682 1413 c 0,25,26
 521 1413 521 1413 432 1237 c 0,27,28
 345 1066 345 1066 345 774 c 0,29,30
 345 481 345 481 432 310 c 0,31,32
 521 134 521 134 682 134 c 0,16,17
EndSplineSet
EndChar

StartChar: one
Encoding: 49 49 39
Width: 1025
GlyphClass: 2
Flags: W
LayerCount: 2
Fore
SplineSet
510 0 m 1,0,-1
 510 1243 l 2,1,2
 510 1299 510 1299 517 1406 c 1,3,-1
 221 1406 l 1,4,-1
 225 1554 l 1,5,-1
 680 1554 l 1,6,-1
 680 0 l 1,7,-1
 510 0 l 1,0,-1
EndSplineSet
EndChar

StartChar: two
Encoding: 50 50 40
Width: 1194
GlyphClass: 2
Flags: W
LayerCount: 2
Fore
SplineSet
174 115 m 1,0,1
 234 187 234 187 307 262 c 1,2,-1
 454 418 l 2,3,4
 633 608 633 608 703 725.5 c 128,-1,5
 773 843 773 843 803 937.5 c 128,-1,6
 833 1032 833 1032 829.5 1115 c 128,-1,7
 826 1198 826 1198 808 1251.5 c 128,-1,8
 790 1305 790 1305 754 1343 c 0,9,10
 680 1423 680 1423 538 1423 c 0,11,12
 415 1423 415 1423 310 1317 c 0,13,14
 278 1284 278 1284 255 1243 c 1,15,-1
 172 1368 l 1,16,17
 291 1563 291 1563 545 1568 c 0,18,19
 768 1572 768 1572 892 1454 c 0,20,21
 1012 1340 1012 1340 1012 1133 c 0,22,23
 1012 820 1012 820 695 448 c 0,24,25
 628 370 628 370 556 296 c 2,26,-1
 412 150 l 1,27,-1
 1021 150 l 1,28,-1
 1009 0 l 1,29,-1
 202 0 l 1,30,-1
 174 115 l 1,0,1
EndSplineSet
EndChar

StartChar: three
Encoding: 51 51 41
Width: 1194
GlyphClass: 2
Flags: W
LayerCount: 2
Fore
SplineSet
185 1464 m 1,0,1
 360 1572 360 1572 544 1568 c 1,2,3
 723 1568 723 1568 846 1478 c 0,4,5
 988 1374 988 1374 988 1188 c 0,6,7
 988 1076 988 1076 923 979 c 0,8,9
 853 874 853 874 733 832 c 1,10,11
 941 796 941 796 1012 600 c 0,12,13
 1038 530 1038 530 1036 434.5 c 128,-1,14
 1034 339 1034 339 997 255 c 128,-1,15
 960 171 960 171 890 110 c 0,16,17
 740 -22 740 -22 484 -20 c 1,18,19
 289 -20 289 -20 157 58 c 1,20,-1
 210 210 l 1,21,22
 340 132 340 132 458.5 132 c 128,-1,23
 577 132 577 132 646.5 157 c 128,-1,24
 716 182 716 182 762 224 c 0,25,26
 851 307 851 307 853 442 c 0,27,28
 855 607 855 607 748 687 c 0,29,30
 655 756 655 756 495 754 c 1,31,-1
 437 754 l 1,32,-1
 437 893 l 1,33,-1
 490 893 l 1,34,35
 607 891 607 891 699 962 c 0,36,37
 805 1043 805 1043 805 1179 c 1,38,39
 794 1384 794 1384 579 1411 c 0,40,41
 553 1414 553 1414 529 1414 c 0,42,43
 392 1414 392 1414 257 1327 c 1,44,-1
 185 1464 l 1,0,1
EndSplineSet
EndChar

StartChar: four
Encoding: 52 52 42
Width: 1194
GlyphClass: 2
Flags: W
LayerCount: 2
Fore
SplineSet
39 574 m 1,0,-1
 648 1554 l 1,1,-1
 914 1554 l 1,2,-1
 914 556 l 1,3,-1
 1154 556 l 1,4,-1
 1127 409 l 1,5,-1
 914 409 l 1,6,-1
 914 0 l 1,7,-1
 745 0 l 1,8,-1
 745 409 l 1,9,-1
 60 409 l 1,10,-1
 39 574 l 1,0,-1
745 556 m 1,11,-1
 745 1415 l 1,12,-1
 222 556 l 1,13,-1
 745 556 l 1,11,-1
EndSplineSet
EndChar

StartChar: five
Encoding: 53 53 43
Width: 1194
GlyphClass: 2
Flags: W
LayerCount: 2
Fore
SplineSet
217 210 m 1,0,1
 344 134 344 134 504 134 c 0,2,3
 658 134 658 134 756 221 c 0,4,5
 863 317 863 317 865 490 c 1,6,7
 865 611 865 611 834 667 c 128,-1,8
 803 723 803 723 773 748.5 c 128,-1,9
 743 774 743 774 708 790 c 0,10,11
 582 849 582 849 416 804 c 0,12,13
 344 785 344 785 281 750 c 1,14,-1
 150 803 l 1,15,-1
 286 1554 l 1,16,-1
 1023 1554 l 1,17,-1
 1010 1404 l 1,18,-1
 416 1404 l 1,19,20
 419 1356 419 1356 389 1183 c 1,21,-1
 332 912 l 1,22,23
 529 1003 529 1003 713 957 c 0,24,25
 857 921 857 921 948 810 c 0,26,27
 1043 695 1043 695 1043 490 c 1,28,29
 1041 239 1041 239 880 102 c 0,30,31
 734 -22 734 -22 504 -20 c 1,32,33
 357 -20 357 -20 228 28 c 0,34,35
 191 42 191 42 164 58 c 1,36,-1
 217 210 l 1,0,1
EndSplineSet
EndChar

StartChar: six
Encoding: 54 54 44
Width: 1194
GlyphClass: 2
Flags: W
LayerCount: 2
Fore
SplineSet
312 856 m 1,0,1
 432 962 432 962 634 962 c 0,2,3
 780 962 780 962 874 901 c 1,4,5
 1015 807 1015 807 1060 622 c 0,6,7
 1099 458 1099 458 1038 284 c 0,8,9
 972 96 972 96 798 19 c 0,10,11
 710 -20 710 -20 606 -19.5 c 128,-1,12
 502 -19 502 -19 430 6 c 128,-1,13
 358 31 358 31 305 75 c 128,-1,14
 252 119 252 119 216.5 178.5 c 128,-1,15
 181 238 181 238 160 307 c 0,16,17
 120 434 120 434 120 608 c 0,18,19
 120 857 120 857 188.5 1039.5 c 128,-1,20
 257 1222 257 1222 359 1328 c 0,21,22
 557 1534 557 1534 949 1570 c 1,23,-1
 971 1417 l 1,24,25
 684 1393 684 1393 522 1255 c 128,-1,26
 360 1117 360 1117 312 856 c 1,0,1
294 721 m 1,27,-1
 293 692 l 1,28,29
 289 644 289 644 289 573.5 c 128,-1,30
 289 503 289 503 306 418.5 c 128,-1,31
 323 334 323 334 360 270 c 0,32,33
 438 134 438 134 594 130 c 1,34,35
 885 130 885 130 898 484 c 1,36,37
 902 700 902 700 754 784 c 0,38,39
 694 818 694 818 628 818 c 128,-1,40
 562 818 562 818 519.5 811 c 128,-1,41
 477 804 477 804 436 791 c 0,42,43
 354 765 354 765 294 721 c 1,27,-1
EndSplineSet
EndChar

StartChar: seven
Encoding: 55 55 45
Width: 1194
GlyphClass: 2
Flags: W
LayerCount: 2
Fore
SplineSet
798 1228 m 1,0,1
 858 1348 858 1348 898 1404 c 1,2,-1
 111 1404 l 1,3,-1
 115 1554 l 1,4,-1
 1053 1554 l 1,5,-1
 1083 1449 l 1,6,-1
 411 -2 l 1,7,-1
 247 64 l 1,8,-1
 798 1228 l 1,0,1
EndSplineSet
EndChar

StartChar: eight
Encoding: 56 56 46
Width: 1194
GlyphClass: 2
Flags: W
LayerCount: 2
Fore
SplineSet
166 213 m 128,-1,1
 127 290 127 290 127 379 c 128,-1,2
 127 468 127 468 152.5 531.5 c 128,-1,3
 178 595 178 595 222 646 c 0,4,5
 307 744 307 744 456 809 c 1,6,7
 249 892 249 892 184 1065 c 0,8,9
 162 1125 162 1125 162 1206.5 c 128,-1,10
 162 1288 162 1288 199 1357.5 c 128,-1,11
 236 1427 236 1427 296 1474 c 0,12,13
 418 1568 418 1568 595 1568 c 0,14,15
 770 1568 770 1568 894 1473 c 0,16,17
 1032 1368 1032 1368 1032 1196 c 0,18,19
 1032 994 1032 994 854 871 c 0,20,21
 801 834 801 834 738 809 c 1,22,23
 971 708 971 708 1042 532 c 0,24,25
 1067 468 1067 468 1067 379 c 128,-1,26
 1067 290 1067 290 1028 213 c 128,-1,27
 989 136 989 136 924 84 c 1,28,29
 793 -18 793 -18 595 -20 c 1,30,31
 399 -18 399 -18 270 84 c 0,32,0
 205 136 205 136 166 213 c 128,-1,1
597 884 m 1,33,34
 810 964 810 964 844 1096 c 0,35,36
 854 1136 854 1136 854 1175 c 0,37,38
 854 1287 854 1287 787.5 1350 c 128,-1,39
 721 1413 721 1413 597 1413 c 128,-1,40
 473 1413 473 1413 407 1350 c 128,-1,41
 341 1287 341 1287 341 1175 c 0,42,43
 341 1083 341 1083 380 1033 c 0,44,45
 453 938 453 938 597 884 c 1,33,34
599 730 m 1,46,47
 306 630 306 630 306 384 c 0,48,49
 306 265 306 265 396 196 c 0,50,51
 478 134 478 134 595 134 c 0,52,53
 714 134 714 134 796 196 c 0,54,55
 889 267 889 267 889 384 c 0,56,57
 889 630 889 630 599 730 c 1,46,47
EndSplineSet
EndChar

StartChar: nine
Encoding: 57 57 47
Width: 1194
GlyphClass: 2
Flags: W
LayerCount: 2
Fore
SplineSet
217 128 m 1,0,1
 623 178 623 178 782 428 c 0,2,3
 839 517 839 517 870 641 c 1,4,5
 756 589 756 589 597 587 c 1,6,7
 135 575 135 575 113 1073 c 1,8,9
 113 1311 113 1311 260 1447 c 0,10,11
 389 1566 389 1566 579 1568 c 0,12,13
 937 1571 937 1571 1044 1242 c 0,14,15
 1081 1128 1081 1128 1081 936.5 c 128,-1,16
 1081 745 1081 745 1029 569.5 c 128,-1,17
 977 394 977 394 874 268 c 1,18,19
 662 13 662 13 255 -23 c 1,20,-1
 217 128 l 1,0,1
905 963 m 0,21,22
 905 1417 905 1417 579 1417 c 1,23,24
 453 1419 453 1419 371 1327 c 0,25,26
 286 1231 286 1231 290 1079 c 1,27,28
 293 832 293 832 451 757 c 0,29,30
 508 730 508 730 569 729.5 c 128,-1,31
 630 729 630 729 670 732.5 c 128,-1,32
 710 736 710 736 750 742 c 1,33,34
 835 757 835 757 895 779 c 1,35,36
 905 865 905 865 905 963 c 0,21,22
EndSplineSet
EndChar

StartChar: colon
Encoding: 58 58 48
Width: 682
GlyphClass: 2
Flags: W
LayerCount: 2
Fore
SplineSet
238 1157 m 1,0,-1
 444 1157 l 1,1,-1
 444 939 l 1,2,-1
 238 939 l 1,3,-1
 238 1157 l 1,0,-1
238 218 m 1,4,-1
 444 218 l 1,5,-1
 444 0 l 1,6,-1
 238 0 l 1,7,-1
 238 218 l 1,4,-1
EndSplineSet
EndChar

StartChar: semicolon
Encoding: 59 59 49
Width: 682
GlyphClass: 2
Flags: W
LayerCount: 2
Fore
SplineSet
238 1157 m 1,0,-1
 444 1157 l 1,1,-1
 444 939 l 1,2,-1
 238 939 l 1,3,-1
 238 1157 l 1,0,-1
149 -210 m 1,4,5
 233 -76 233 -76 250 32 c 0,6,7
 257 73 257 73 258 123 c 1,8,-1
 258 267 l 1,9,-1
 443 278 l 1,10,-1
 443 181 l 2,11,12
 443 -103 443 -103 306 -250 c 1,13,-1
 149 -210 l 1,4,5
EndSplineSet
EndChar

StartChar: less
Encoding: 60 60 50
Width: 1022
GlyphClass: 2
Flags: W
LayerCount: 2
Fore
SplineSet
157 773 m 1,0,-1
 715 1206 l 1,1,-1
 806 1102 l 1,2,-1
 285 713 l 1,3,-1
 806 324 l 1,4,-1
 715 220 l 1,5,-1
 157 653 l 1,6,-1
 157 773 l 1,0,-1
EndSplineSet
EndChar

StartChar: equal
Encoding: 61 61 51
Width: 1196
GlyphClass: 2
Flags: W
LayerCount: 2
Fore
SplineSet
183 840 m 1,0,-1
 1013 840 l 1,1,-1
 1013 712 l 1,2,-1
 183 712 l 1,3,-1
 183 840 l 1,0,-1
183 309 m 1,4,-1
 1013 309 l 1,5,-1
 1013 182 l 1,6,-1
 183 182 l 1,7,-1
 183 309 l 1,4,-1
EndSplineSet
EndChar

StartChar: greater
Encoding: 62 62 52
Width: 1022
GlyphClass: 2
Flags: W
LayerCount: 2
Fore
SplineSet
306 220 m 1,0,-1
 216 324 l 1,1,-1
 737 713 l 1,2,-1
 216 1102 l 1,3,-1
 306 1206 l 1,4,-1
 865 773 l 1,5,-1
 865 653 l 1,6,-1
 306 220 l 1,0,-1
EndSplineSet
EndChar

StartChar: question
Encoding: 63 63 53
Width: 1196
GlyphClass: 2
Flags: W
LayerCount: 2
Fore
SplineSet
548 1431 m 0,0,1
 405 1431 405 1431 229 1336 c 1,2,-1
 171 1488 l 1,3,4
 440 1633 440 1633 735 1571 c 0,5,6
 913 1534 913 1534 985 1408 c 0,7,8
 1022 1343 1022 1343 1023.5 1263.5 c 128,-1,9
 1025 1184 1025 1184 1010 1131.5 c 128,-1,10
 995 1079 995 1079 969.5 1033 c 128,-1,11
 944 987 944 987 910 944 c 2,12,-1
 758 757 l 1,13,14
 616 577 616 577 606 389 c 1,15,-1
 424 389 l 1,16,17
 449 654 449 654 661 898 c 2,18,-1
 728 975 l 2,19,20
 844 1109 844 1109 844 1228 c 0,21,22
 844 1380 844 1380 666 1419 c 0,23,24
 612 1431 612 1431 548 1431 c 0,0,1
414 203 m 1,25,-1
 620 203 l 1,26,-1
 620 0 l 1,27,-1
 414 0 l 1,28,-1
 414 203 l 1,25,-1
EndSplineSet
EndChar

StartChar: at
Encoding: 64 64 54
Width: 2048
GlyphClass: 2
Flags: W
LayerCount: 2
Fore
SplineSet
1536 -208 m 1,0,1
 1322 -285 1322 -285 1100.5 -285 c 128,-1,2
 879 -285 879 -285 708.5 -225.5 c 128,-1,3
 538 -166 538 -166 416 -52 c 0,4,5
 159 188 159 188 159 611 c 0,6,7
 159 1092 159 1092 412 1332 c 0,8,9
 645 1553 645 1553 1064 1553 c 0,10,11
 1411 1553 1411 1553 1640 1353 c 0,12,13
 1888 1135 1888 1135 1888 748 c 0,14,15
 1888 468 1888 468 1786 302 c 0,16,17
 1691 148 1691 148 1524 123 c 0,18,19
 1503 120 1503 120 1477.5 120 c 128,-1,20
 1452 120 1452 120 1422.5 127 c 128,-1,21
 1393 134 1393 134 1368 150 c 0,22,23
 1313 183 1313 183 1290 247 c 1,24,25
 1174 131 1174 131 1016 131 c 0,26,27
 980 131 980 131 914 142.5 c 128,-1,28
 848 154 848 154 785 203.5 c 128,-1,29
 722 253 722 253 684 321 c 0,30,31
 613 450 613 450 620 625 c 0,32,33
 638 1093 638 1093 1001 1093 c 0,34,35
 1141 1093 1141 1093 1283 1009 c 1,36,-1
 1290 1093 l 1,37,-1
 1420 1073 l 1,38,39
 1413 1028 1413 1028 1413 956 c 2,40,-1
 1413 345 l 2,41,42
 1413 299 1413 299 1435 275.5 c 128,-1,43
 1457 252 1457 252 1485 252 c 128,-1,44
 1513 252 1513 252 1546.5 264 c 128,-1,45
 1580 276 1580 276 1618 313.5 c 128,-1,46
 1656 351 1656 351 1682 411 c 0,47,48
 1737 538 1737 538 1737 726.5 c 128,-1,49
 1737 915 1737 915 1683.5 1040.5 c 128,-1,50
 1630 1166 1630 1166 1538 1250 c 0,51,52
 1356 1416 1356 1416 1062 1416 c 0,53,54
 511 1416 511 1416 361 976 c 0,55,56
 309 823 309 823 309 627 c 128,-1,57
 309 431 309 431 363.5 290 c 128,-1,58
 418 149 418 149 519 52 c 0,59,60
 726 -148 726 -148 1086 -148 c 0,61,62
 1275 -148 1275 -148 1471 -84 c 1,63,-1
 1536 -208 l 1,0,1
783 745 m 128,-1,65
 772 684 772 684 770 615 c 128,-1,66
 768 546 768 546 782 480 c 128,-1,67
 796 414 796 414 828 364 c 0,68,69
 897 254 897 254 1036 254 c 0,70,71
 1112 254 1112 254 1177 286.5 c 128,-1,72
 1242 319 1242 319 1276 345 c 1,73,-1
 1276 916 l 1,74,75
 1111 973 1111 973 1023 968.5 c 128,-1,76
 935 964 935 964 890.5 933 c 128,-1,77
 846 902 846 902 820 854 c 128,-1,64
 794 806 794 806 783 745 c 128,-1,65
EndSplineSet
EndChar

StartChar: A
Encoding: 65 65 55
Width: 1537
GlyphClass: 2
Flags: W
LayerCount: 2
Fore
SplineSet
657 1554 m 1,0,-1
 879 1554 l 1,1,-1
 1492 0 l 1,2,-1
 1294 0 l 1,3,-1
 1133 431 l 1,4,-1
 402 431 l 1,5,-1
 243 0 l 1,6,-1
 44 0 l 1,7,-1
 657 1554 l 1,0,-1
1075 574 m 1,8,-1
 916 992 l 2,9,10
 882 1083 882 1083 859 1150 c 2,11,-1
 815 1284 l 2,12,13
 794 1351 794 1351 768 1426 c 1,14,15
 745 1360 745 1360 724 1293 c 2,16,17
 724 1293 724 1293 678 1151 c 1,18,19
 678 1151 678 1151 461 574 c 1,20,-1
 1075 574 l 1,8,-1
EndSplineSet
EndChar

StartChar: B
Encoding: 66 66 56
Width: 1366
GlyphClass: 2
Flags: W
LayerCount: 2
Fore
SplineSet
197 1555 m 1,0,-1
 582 1555 l 2,1,2
 854 1555 854 1555 984 1474 c 0,3,4
 1135 1380 1135 1380 1141 1160 c 1,5,6
 1144 957 1144 957 1004 860 c 0,7,8
 961 830 961 830 911 814 c 1,9,10
 1039 809 1039 809 1132 722 c 0,11,12
 1242 618 1242 618 1236 439 c 1,13,14
 1230 206 1230 206 1082 100 c 1,15,16
 934 -4 934 -4 624 0 c 1,17,-1
 197 0 l 1,18,-1
 197 1555 l 1,0,-1
628 862 m 1,19,20
 972 853 972 853 961 1160 c 1,21,22
 958 1360 958 1360 744 1396 c 0,23,24
 673 1407 673 1407 582 1407 c 2,25,-1
 368 1407 l 1,26,-1
 368 862 l 1,27,-1
 628 862 l 1,19,20
624 150 m 1,28,29
 831 146 831 146 934 202 c 0,30,31
 1052 267 1052 267 1056 419 c 0,32,33
 1061 622 1061 622 922 682 c 0,34,35
 846 714 846 714 754.5 716.5 c 128,-1,36
 663 719 663 719 604 719 c 2,37,-1
 368 719 l 1,38,-1
 368 150 l 1,39,-1
 624 150 l 1,28,29
EndSplineSet
EndChar

StartChar: C
Encoding: 67 67 57
Width: 1366
GlyphClass: 2
Flags: W
LayerCount: 2
Fore
SplineSet
854 -20 m 0,0,1
 115 -20 115 -20 115 774 c 0,2,3
 115 1419 115 1419 611 1542 c 0,4,5
 718 1568 718 1568 838 1568 c 0,6,7
 1069 1568 1069 1568 1294 1477 c 1,8,-1
 1241 1329 l 1,9,10
 1033 1411 1033 1411 875 1411 c 128,-1,11
 717 1411 717 1411 614.5 1379.5 c 128,-1,12
 512 1348 512 1348 439 1269 c 0,13,14
 300 1119 300 1119 294 774 c 1,15,16
 300 456 300 456 428 302 c 1,17,18
 566 139 566 139 857 139 c 0,19,20
 1057 139 1057 139 1280 232 c 1,21,-1
 1333 81 l 1,22,23
 1097 -20 1097 -20 854 -20 c 0,0,1
EndSplineSet
EndChar

StartChar: D
Encoding: 68 68 58
Width: 1541
GlyphClass: 2
Flags: W
LayerCount: 2
Fore
SplineSet
220 0 m 1,0,-1
 220 1554 l 1,1,-1
 702 1554 l 2,2,3
 1275 1554 1275 1554 1394 1099 c 0,4,5
 1431 955 1431 955 1431 776 c 2,6,-1
 1431 735 l 2,7,8
 1431 384 1431 384 1240 193 c 0,9,10
 1047 0 1047 0 694 0 c 2,11,-1
 220 0 l 1,0,-1
393 157 m 1,12,-1
 694 157 l 2,13,14
 965 157 965 157 1111 316 c 0,15,16
 1252 469 1252 469 1252 735 c 2,17,-1
 1252 776 l 1,18,19
 1246 1095 1246 1095 1120 1242 c 0,20,21
 988 1396 988 1396 698 1396 c 2,22,-1
 393 1396 l 1,23,-1
 393 157 l 1,12,-1
EndSplineSet
EndChar

StartChar: E
Encoding: 69 69 59
Width: 1196
GlyphClass: 2
Flags: W
LayerCount: 2
Fore
SplineSet
220 1554 m 1,0,-1
 1107 1554 l 1,1,-1
 1098 1394 l 1,2,-1
 393 1394 l 1,3,-1
 393 874 l 1,4,-1
 1024 874 l 1,5,-1
 1024 716 l 1,6,-1
 393 716 l 1,7,-1
 393 159 l 1,8,-1
 1117 159 l 1,9,-1
 1126 0 l 1,10,-1
 220 0 l 1,11,-1
 220 1554 l 1,0,-1
EndSplineSet
EndChar

StartChar: F
Encoding: 70 70 60
Width: 1196
GlyphClass: 2
Flags: W
LayerCount: 2
Fore
SplineSet
220 1554 m 1,0,-1
 1102 1554 l 1,1,-1
 1093 1394 l 1,2,-1
 393 1394 l 1,3,-1
 393 874 l 1,4,-1
 1017 874 l 1,5,-1
 1017 716 l 1,6,-1
 393 716 l 1,7,-1
 393 0 l 1,8,-1
 220 0 l 1,9,-1
 220 1554 l 1,0,-1
EndSplineSet
EndChar

StartChar: G
Encoding: 71 71 61
Width: 1537
GlyphClass: 2
Flags: W
LayerCount: 2
Fore
SplineSet
863 1569 m 1,0,-1
 903 1568 l 1,1,2
 1145 1559 1145 1559 1347 1468 c 1,3,-1
 1289 1320 l 1,4,5
 1099 1406 1099 1406 924 1410.5 c 128,-1,6
 749 1415 749 1415 641.5 1367.5 c 128,-1,7
 534 1320 534 1320 466 1232 c 0,8,9
 333 1060 333 1060 333 740 c 1,10,11
 345 442 345 442 476 296 c 0,12,13
 634 121 634 121 966 134 c 0,14,15
 1110 140 1110 140 1210 194 c 1,16,-1
 1210 688 l 1,17,-1
 939 688 l 1,18,-1
 939 847 l 1,19,-1
 1382 847 l 1,20,-1
 1382 81 l 1,21,22
 1205 5 1205 5 1006 -16 c 0,23,24
 944 -22 944 -22 890 -20 c 0,25,26
 330 0 330 0 200 432 c 0,27,28
 158 570 158 570 156.5 710 c 128,-1,29
 155 850 155 850 170.5 954.5 c 128,-1,30
 186 1059 186 1059 220.5 1151 c 128,-1,31
 255 1243 255 1243 310 1320 c 128,-1,32
 365 1397 365 1397 444 1452 c 1,33,34
 608 1569 608 1569 863 1569 c 1,0,-1
EndSplineSet
EndChar

StartChar: H
Encoding: 72 72 62
Width: 1537
GlyphClass: 2
Flags: W
LayerCount: 2
Fore
SplineSet
171 0 m 1,0,-1
 171 1554 l 1,1,-1
 344 1554 l 1,2,-1
 344 887 l 1,3,-1
 1191 887 l 1,4,-1
 1191 1554 l 1,5,-1
 1364 1554 l 1,6,-1
 1364 0 l 1,7,-1
 1191 0 l 1,8,-1
 1191 733 l 1,9,-1
 344 733 l 1,10,-1
 344 0 l 1,11,-1
 171 0 l 1,0,-1
EndSplineSet
EndChar

StartChar: I
Encoding: 73 73 63
Width: 513
GlyphClass: 2
Flags: W
LayerCount: 2
Fore
SplineSet
170 1554 m 1,0,-1
 343 1554 l 1,1,-1
 343 0 l 1,2,-1
 170 0 l 1,3,-1
 170 1554 l 1,0,-1
EndSplineSet
EndChar

StartChar: J
Encoding: 74 74 64
Width: 853
GlyphClass: 2
Flags: W
LayerCount: 2
Fore
SplineSet
83 172 m 1,0,1
 159 134 159 134 246 134 c 128,-1,2
 333 134 333 134 383 157 c 128,-1,3
 433 180 433 180 460 224 c 1,4,5
 507 297 507 297 507 468 c 2,6,-1
 507 1554 l 1,7,-1
 680 1554 l 1,8,-1
 680 479 l 2,9,10
 680 315 680 315 659.5 234.5 c 128,-1,11
 639 154 639 154 598.5 104 c 128,-1,12
 558 54 558 54 504 26 c 1,13,14
 411 -20 411 -20 252 -20 c 0,15,16
 138 -20 138 -20 57 -2 c 1,17,-1
 83 172 l 1,0,1
EndSplineSet
EndChar

StartChar: K
Encoding: 75 75 65
Width: 1365
GlyphClass: 2
Flags: W
LayerCount: 2
Fore
SplineSet
970 213 m 1,0,-1
 828 391 l 2,1,2
 776 455 776 455 764 467 c 0,3,4
 629 616 629 616 580 676 c 2,5,6
 580 676 580 676 472 806 c 1,7,-1
 472 839 l 1,8,-1
 1071 1554 l 1,9,-1
 1301 1554 l 1,10,-1
 673 827 l 1,11,12
 943 519 943 519 983 470 c 2,13,-1
 1106 324 l 1,14,-1
 1312 86 l 1,15,-1
 1144 -23 l 1,16,17
 1059 99 1059 99 970 213 c 1,0,-1
220 0 m 1,18,-1
 220 1554 l 1,19,-1
 393 1554 l 1,20,-1
 393 0 l 1,21,-1
 220 0 l 1,18,-1
EndSplineSet
EndChar

StartChar: L
Encoding: 76 76 66
Width: 1197
GlyphClass: 2
Flags: W
LayerCount: 2
Fore
SplineSet
168 0 m 1,0,-1
 168 1554 l 1,1,-1
 341 1554 l 1,2,-1
 341 162 l 1,3,-1
 1054 162 l 1,4,-1
 1047 0 l 1,5,-1
 168 0 l 1,0,-1
EndSplineSet
EndChar

StartChar: M
Encoding: 77 77 67
Width: 1880
GlyphClass: 2
Flags: W
LayerCount: 2
Fore
SplineSet
165 0 m 1,0,-1
 165 1554 l 1,1,-1
 454 1554 l 1,2,-1
 940 282 l 1,3,-1
 1431 1554 l 1,4,-1
 1714 1554 l 1,5,-1
 1714 0 l 1,6,-1
 1541 0 l 1,7,-1
 1541 1126 l 2,8,9
 1541 1206 1541 1206 1542.5 1281.5 c 128,-1,10
 1544 1357 1544 1357 1545 1417 c 1,11,-1
 1055 150 l 1,12,-1
 823 150 l 1,13,-1
 334 1417 l 1,14,-1
 336 1302 l 2,15,16
 338 1206 338 1206 338 1126 c 2,17,-1
 338 0 l 1,18,-1
 165 0 l 1,0,-1
EndSplineSet
EndChar

StartChar: N
Encoding: 78 78 68
Width: 1536
GlyphClass: 2
Flags: W
LayerCount: 2
Fore
SplineSet
165 1554 m 1,0,-1
 422 1554 l 1,1,-1
 1075 407 l 1,2,-1
 1197 163 l 1,3,-1
 1197 1554 l 1,4,-1
 1370 1554 l 1,5,-1
 1370 0 l 1,6,-1
 1116 0 l 1,7,-1
 458 1153 l 1,8,-1
 338 1390 l 1,9,-1
 338 0 l 1,10,-1
 165 0 l 1,11,-1
 165 1554 l 1,0,-1
EndSplineSet
EndChar

StartChar: O
Encoding: 79 79 69
Width: 1708
GlyphClass: 2
Flags: W
LayerCount: 2
Fore
SplineSet
134 770 m 0,0,1
 134 959 134 959 187.5 1107 c 128,-1,2
 241 1255 241 1255 338 1358 c 0,3,4
 537 1568 537 1568 864 1568 c 0,5,6
 1209 1568 1209 1568 1392 1358 c 0,7,8
 1573 1151 1573 1151 1573 770 c 0,9,10
 1573 399 1573 399 1369 187 c 0,11,12
 1170 -20 1170 -20 842 -20 c 0,13,14
 513 -20 513 -20 324 187 c 0,15,16
 134 396 134 396 134 770 c 0,0,1
312 768 m 0,17,18
 311 613 311 613 348 493.5 c 128,-1,19
 385 374 385 374 456 294 c 0,20,21
 599 133 599 133 856 137 c 1,22,23
 1109 139 1109 139 1252 302 c 0,24,25
 1400 471 1400 471 1396 781 c 0,26,27
 1388 1411 1388 1411 842 1411 c 0,28,29
 593 1411 593 1411 454 1243 c 0,30,31
 314 1074 314 1074 312 768 c 0,17,18
EndSplineSet
EndChar

StartChar: P
Encoding: 80 80 70
Width: 1363
GlyphClass: 2
Flags: W
LayerCount: 2
Fore
SplineSet
208 1554 m 1,0,-1
 638 1554 l 1,1,2
 1118 1560 1118 1560 1220 1250 c 0,3,4
 1254 1149 1254 1149 1251.5 1026 c 128,-1,5
 1249 903 1249 903 1209.5 804.5 c 128,-1,6
 1170 706 1170 706 1094 634 c 1,7,8
 930 482 930 482 640 486 c 1,9,-1
 382 486 l 1,10,-1
 382 0 l 1,11,-1
 208 0 l 1,12,-1
 208 1554 l 1,0,-1
640 636 m 1,13,14
 945 633 945 633 1040 860 c 0,15,16
 1070 932 1070 932 1071.5 1023.5 c 128,-1,17
 1073 1115 1073 1115 1050.5 1185 c 128,-1,18
 1028 1255 1028 1255 976 1303 c 0,19,20
 872 1400 872 1400 638 1400 c 2,21,-1
 382 1400 l 1,22,-1
 382 636 l 1,23,-1
 640 636 l 1,13,14
EndSplineSet
EndChar

StartChar: Q
Encoding: 81 81 71
Width: 1705
GlyphClass: 2
Flags: W
LayerCount: 2
Fore
SplineSet
1060 11 m 1,0,1
 948 -20 948 -20 806 -20 c 128,-1,2
 664 -20 664 -20 533 33 c 128,-1,3
 402 86 402 86 310 187 c 0,4,5
 120 396 120 396 120 770 c 0,6,7
 120 1142 120 1142 324 1358 c 0,8,9
 523 1568 523 1568 850 1568 c 0,10,11
 1195 1568 1195 1568 1378 1358 c 0,12,13
 1559 1151 1559 1151 1559 770 c 0,14,15
 1559 400 1559 400 1356 188 c 0,16,17
 1292 121 1292 121 1211 75 c 1,18,-1
 1475 -243 l 1,19,-1
 1307 -356 l 1,20,21
 1271 -304 1271 -304 1228 -233.5 c 128,-1,22
 1185 -163 1185 -163 1137 -95 c 1,23,-1
 1060 11 l 1,0,1
298 768 m 0,24,25
 297 613 297 613 334 493.5 c 128,-1,26
 371 374 371 374 442 294 c 0,27,28
 585 133 585 133 842 137 c 1,29,30
 1095 139 1095 139 1238 302 c 0,31,32
 1386 471 1386 471 1382 781 c 0,33,34
 1374 1411 1374 1411 828 1411 c 0,35,36
 579 1411 579 1411 440 1243 c 0,37,38
 300 1074 300 1074 298 768 c 0,24,25
EndSplineSet
EndChar

StartChar: R
Encoding: 82 82 72
Width: 1365
GlyphClass: 2
Flags: W
LayerCount: 2
Fore
SplineSet
713 575 m 1,0,1
 682 571 682 571 620 571 c 2,2,-1
 393 571 l 1,3,-1
 393 0 l 1,4,-1
 220 0 l 1,5,-1
 220 1554 l 1,6,-1
 643 1554 l 1,7,8
 1105 1560 1105 1560 1195 1262 c 0,9,10
 1223 1169 1223 1169 1222 1056 c 1,11,12
 1214 876 1214 876 1135 763 c 128,-1,13
 1056 650 1056 650 894 602 c 1,14,-1
 936 534 l 1,15,16
 967 486 967 486 1009 426 c 1,17,-1
 1268 88 l 1,18,-1
 1090 -20 l 1,19,20
 1039 72 1039 72 980 165 c 2,21,-1
 788 464 l 2,22,23
 753 519 753 519 713 575 c 1,0,1
620 723 m 1,24,25
 932 720 932 720 1012 904 c 0,26,27
 1040 968 1040 968 1042.5 1054.5 c 128,-1,28
 1045 1141 1045 1141 1024.5 1205 c 128,-1,29
 1004 1269 1004 1269 956 1312 c 1,30,31
 859 1402 859 1402 643 1400 c 1,32,-1
 393 1400 l 1,33,-1
 393 723 l 1,34,-1
 620 723 l 1,24,25
EndSplineSet
EndChar

StartChar: S
Encoding: 83 83 73
Width: 1195
GlyphClass: 2
Flags: W
LayerCount: 2
Fore
SplineSet
636 1568 m 1,0,-1
 668 1569 l 1,1,2
 818 1569 818 1569 1011 1510 c 1,3,-1
 979 1360 l 1,4,5
 535 1502 535 1502 383 1288 c 0,6,7
 338 1225 338 1225 338 1151.5 c 128,-1,8
 338 1078 338 1078 362.5 1035.5 c 128,-1,9
 387 993 387 993 429 960 c 0,10,11
 495 908 495 908 611 865 c 128,-1,12
 727 822 727 822 805.5 781.5 c 128,-1,13
 884 741 884 741 946 687 c 0,14,15
 1085 566 1085 566 1085 407 c 0,16,17
 1085 277 1085 277 1029.5 191 c 128,-1,18
 974 105 974 105 902 60 c 1,19,20
 770 -20 770 -20 563 -20 c 0,21,22
 352 -20 352 -20 115 62 c 1,23,-1
 146 215 l 1,24,25
 338 143 338 143 567 134 c 0,26,27
 761 127 761 127 856 248 c 0,28,29
 905 312 905 312 905 380 c 128,-1,30
 905 448 905 448 878.5 492.5 c 128,-1,31
 852 537 852 537 807 574 c 0,32,33
 725 643 725 643 611 683 c 128,-1,34
 497 723 497 723 423 759.5 c 128,-1,35
 349 796 349 796 290 848 c 0,36,37
 161 963 161 963 161 1142 c 0,38,39
 161 1432 161 1432 440 1534 c 0,40,41
 534 1568 534 1568 636 1568 c 1,0,-1
EndSplineSet
EndChar

StartChar: T
Encoding: 84 84 74
Width: 1539
GlyphClass: 2
Flags: W
LayerCount: 2
Fore
SplineSet
682 0 m 1,0,-1
 682 1394 l 1,1,-1
 170 1394 l 1,2,-1
 170 1554 l 1,3,-1
 1360 1554 l 1,4,-1
 1360 1394 l 1,5,-1
 856 1394 l 1,6,-1
 856 0 l 1,7,-1
 682 0 l 1,0,-1
EndSplineSet
EndChar

StartChar: U
Encoding: 85 85 75
Width: 1537
GlyphClass: 2
Flags: W
LayerCount: 2
Fore
SplineSet
196 1554 m 1,0,-1
 369 1554 l 1,1,-1
 369 696 l 2,2,3
 369 532 369 532 383 456.5 c 128,-1,4
 397 381 397 381 421.5 325.5 c 128,-1,5
 446 270 446 270 490 228 c 0,6,7
 586 139 586 139 768 139 c 0,8,9
 1031 139 1031 139 1114 326 c 0,10,11
 1159 429 1159 429 1163 532 c 128,-1,12
 1167 635 1167 635 1167 696 c 2,13,-1
 1167 1554 l 1,14,-1
 1341 1554 l 1,15,-1
 1341 696 l 2,16,17
 1341 481 1341 481 1319 384 c 128,-1,18
 1297 287 1297 287 1261 216.5 c 128,-1,19
 1225 146 1225 146 1161 94 c 0,20,21
 1023 -20 1023 -20 768 -20 c 0,22,23
 394 -20 394 -20 274 216 c 1,24,25
 209 347 209 347 200 530 c 0,26,27
 196 615 196 615 196 696 c 2,28,-1
 196 1554 l 1,0,-1
EndSplineSet
EndChar

StartChar: V
Encoding: 86 86 76
Width: 1364
GlyphClass: 2
Flags: W
LayerCount: 2
Fore
SplineSet
6 1554 m 1,0,-1
 205 1554 l 1,1,-1
 682 153 l 1,2,-1
 1158 1554 l 1,3,-1
 1357 1554 l 1,4,-1
 797 0 l 1,5,-1
 565 0 l 1,6,-1
 6 1554 l 1,0,-1
EndSplineSet
EndChar

StartChar: W
Encoding: 87 87 77
Width: 2048
GlyphClass: 2
Flags: W
LayerCount: 2
Fore
SplineSet
455 0 m 1,0,-1
 322 455 l 1,1,-1
 17 1554 l 1,2,-1
 214 1554 l 1,3,-1
 487 493 l 1,4,-1
 570 159 l 1,5,-1
 647 493 l 1,6,-1
 920 1554 l 1,7,-1
 1132 1554 l 1,8,-1
 1402 493 l 1,9,-1
 1477 159 l 1,10,-1
 1834 1554 l 1,11,-1
 2031 1554 l 1,12,-1
 1735 481 l 1,13,-1
 1594 0 l 1,14,-1
 1360 0 l 1,15,-1
 1095 1035 l 1,16,-1
 1029 1352 l 1,17,-1
 1020 1352 l 1,18,-1
 952 1035 l 1,19,-1
 689 0 l 1,20,-1
 455 0 l 1,0,-1
EndSplineSet
EndChar

StartChar: X
Encoding: 88 88 78
Width: 1362
GlyphClass: 2
Flags: W
LayerCount: 2
Fore
SplineSet
556 793 m 1,0,-1
 99 1554 l 1,1,-1
 304 1554 l 1,2,-1
 529 1151 l 1,3,-1
 679 912 l 1,4,-1
 830 1151 l 1,5,-1
 1059 1554 l 1,6,-1
 1265 1554 l 1,7,-1
 804 793 l 1,8,-1
 1283 0 l 1,9,-1
 1075 0 l 1,10,-1
 865 366 l 1,11,-1
 679 678 l 1,12,-1
 496 366 l 1,13,-1
 288 0 l 1,14,-1
 79 0 l 1,15,-1
 556 793 l 1,0,-1
EndSplineSet
EndChar

StartChar: Y
Encoding: 89 89 79
Width: 1196
GlyphClass: 2
Flags: W
LayerCount: 2
Fore
SplineSet
510 567 m 1,0,1
 442 682 442 682 376 808 c 0,2,3
 51 1432 51 1432 -20 1554 c 1,4,-1
 184 1554 l 1,5,-1
 598 731 l 1,6,-1
 1012 1554 l 1,7,-1
 1216 1554 l 1,8,-1
 684 567 l 1,9,-1
 684 0 l 1,10,-1
 510 0 l 1,11,-1
 510 567 l 1,0,1
EndSplineSet
EndChar

StartChar: Z
Encoding: 90 90 80
Width: 1196
GlyphClass: 2
Flags: W
LayerCount: 2
Fore
SplineSet
61 120 m 1,0,-1
 851 1396 l 1,1,-1
 117 1396 l 1,2,-1
 117 1554 l 1,3,-1
 1052 1554 l 1,4,-1
 1079 1435 l 1,5,-1
 286 157 l 1,6,-1
 1134 157 l 1,7,-1
 1123 0 l 1,8,-1
 90 0 l 1,9,-1
 61 120 l 1,0,-1
EndSplineSet
EndChar

StartChar: bracketleft
Encoding: 91 91 81
Width: 854
GlyphClass: 2
Flags: W
LayerCount: 2
Fore
SplineSet
201 -267 m 1,0,-1
 201 1610 l 1,1,-1
 643 1610 l 1,2,-1
 641 1481 l 1,3,-1
 347 1481 l 1,4,-1
 347 -137 l 1,5,-1
 651 -137 l 1,6,-1
 653 -267 l 1,7,-1
 201 -267 l 1,0,-1
EndSplineSet
EndChar

StartChar: backslash
Encoding: 92 92 82
Width: 1024
GlyphClass: 2
Flags: W
LayerCount: 2
Fore
SplineSet
226 1734 m 1,0,-1
 86 1678 l 1,1,-1
 797 -113 l 1,2,-1
 937 -57 l 1,3,-1
 226 1734 l 1,0,-1
EndSplineSet
EndChar

StartChar: bracketright
Encoding: 93 93 83
Width: 854
GlyphClass: 2
Flags: W
LayerCount: 2
Fore
SplineSet
653 -267 m 1,0,-1
 653 1610 l 1,1,-1
 211 1610 l 1,2,-1
 213 1481 l 1,3,-1
 507 1481 l 1,4,-1
 507 -137 l 1,5,-1
 203 -137 l 1,6,-1
 201 -267 l 1,7,-1
 653 -267 l 1,0,-1
EndSplineSet
EndChar

StartChar: asciicircum
Encoding: 94 94 84
Width: 1195
GlyphClass: 2
Flags: W
LayerCount: 2
Fore
SplineSet
111 886 m 1,0,-1
 537 1479 l 1,1,-1
 657 1479 l 1,2,-1
 1083 886 l 1,3,-1
 975 801 l 1,4,-1
 597 1340 l 1,5,-1
 220 801 l 1,6,-1
 111 886 l 1,0,-1
EndSplineSet
EndChar

StartChar: underscore
Encoding: 95 95 85
Width: 1195
GlyphClass: 2
Flags: W
LayerCount: 2
Fore
SplineSet
1199 -203 m 1,0,-1
 1199 -317 l 1,1,-1
 -4 -317 l 1,2,-1
 -4 -203 l 1,3,-1
 1199 -203 l 1,0,-1
EndSplineSet
EndChar

StartChar: grave
Encoding: 96 96 86
Width: 507
GlyphClass: 2
Flags: W
LayerCount: 2
Fore
SplineSet
407 1296 m 1,0,-1
 7 1641 l 1,1,-1
 120 1764 l 1,2,-1
 499 1398 l 1,3,-1
 407 1296 l 1,0,-1
EndSplineSet
EndChar

StartChar: a
Encoding: 97 97 87
Width: 1196
GlyphClass: 2
Flags: W
LayerCount: 2
Fore
SplineSet
1061 -9 m 1,0,1
 1028 -20 1028 -20 979 -20 c 128,-1,2
 930 -20 930 -20 898.5 -9 c 128,-1,3
 867 2 867 2 844 22 c 0,4,5
 799 60 799 60 786 123 c 1,6,7
 732 40 732 40 592 -3 c 0,8,9
 466 -42 466 -42 338 2 c 1,10,11
 200 48 200 48 139 171 c 0,12,13
 108 233 108 233 108 307.5 c 128,-1,14
 108 382 108 382 137 433.5 c 128,-1,15
 166 485 166 485 214 518 c 0,16,17
 304 581 304 581 455 594 c 1,18,19
 576 606 576 606 768 611 c 1,20,-1
 768 791 l 2,21,22
 768 918 768 918 753.5 950 c 128,-1,23
 739 982 739 982 719 998 c 0,24,25
 685 1024 685 1024 581 1024 c 1,26,-1
 543 1023 l 1,27,28
 387 1015 387 1015 240 972 c 1,29,-1
 212 1120 l 1,30,31
 387 1171 387 1171 556 1171 c 0,32,33
 797 1171 797 1171 872 1080 c 0,34,35
 917 1025 917 1025 926 945 c 128,-1,36
 935 865 935 865 936 797 c 1,37,-1
 936 226 l 2,38,39
 936 141 936 141 951.5 124.5 c 128,-1,40
 967 108 967 108 987.5 108 c 128,-1,41
 1008 108 1008 108 1050 115 c 1,42,-1
 1061 -9 l 1,0,1
768 366 m 2,43,44
 768 437 768 437 772 497 c 1,45,46
 421 497 421 497 330 430 c 1,47,48
 279 394 279 394 279 318 c 0,49,50
 279 231 279 231 338 176 c 0,51,52
 395 123 395 123 487 123 c 1,53,54
 664 118 664 118 768 234 c 1,55,-1
 768 366 l 2,43,44
EndSplineSet
EndChar

StartChar: b
Encoding: 98 98 88
Width: 1365
GlyphClass: 2
Flags: W
LayerCount: 2
Fore
SplineSet
201 51 m 1,0,1
 201 1403 201 1403 194 1620 c 1,2,-1
 369 1634 l 1,3,-1
 369 1036 l 1,4,5
 541 1171 541 1171 696 1171 c 0,6,7
 919 1171 919 1171 1045 1019 c 0,8,9
 1174 863 1174 863 1170 581 c 0,10,11
 1166 221 1166 221 943 69 c 1,12,13
 809 -20 809 -20 618 -20 c 128,-1,14
 427 -20 427 -20 201 51 c 1,0,1
369 400 m 1,15,-1
 368 248 l 2,16,17
 367 203 367 203 367 157 c 1,18,19
 482 125 482 125 576.5 125 c 128,-1,20
 671 125 671 125 734.5 139.5 c 128,-1,21
 798 154 798 154 856 200 c 128,-1,22
 914 246 914 246 952 342 c 128,-1,23
 990 438 990 438 991.5 562.5 c 128,-1,24
 993 687 993 687 974 769.5 c 128,-1,25
 955 852 955 852 918 909 c 0,26,27
 841 1025 841 1025 700 1025 c 0,28,29
 520 1025 520 1025 369 894 c 1,30,-1
 369 400 l 1,15,-1
EndSplineSet
EndChar

StartChar: c
Encoding: 99 99 89
Width: 1024
GlyphClass: 2
Flags: W
LayerCount: 2
Fore
SplineSet
960 35 m 1,0,1
 816 -20 816 -20 668.5 -20 c 128,-1,2
 521 -20 521 -20 423.5 14 c 128,-1,3
 326 48 326 48 256 120 c 0,4,5
 110 272 110 272 110 574 c 0,6,7
 110 1172 110 1172 622 1172 c 1,8,-1
 657 1171 l 1,9,10
 788 1166 788 1166 844.5 1146 c 128,-1,11
 901 1126 901 1126 927 1115 c 1,12,-1
 889 967 l 1,13,14
 763 1024 763 1024 634 1024 c 2,15,-1
 617 1024 l 2,16,17
 289 1024 289 1024 289 576 c 0,18,19
 289 339 289 339 397 224 c 0,20,21
 487 128 487 128 640.5 128 c 128,-1,22
 794 128 794 128 934 183 c 1,23,-1
 960 35 l 1,0,1
EndSplineSet
EndChar

StartChar: d
Encoding: 100 100 90
Width: 1370
GlyphClass: 2
Flags: W
LayerCount: 2
Fore
SplineSet
944 150 m 1,0,1
 768 -20 768 -20 575 -20 c 1,2,3
 273 -24 273 -24 174 279 c 0,4,5
 133 407 133 407 136 553.5 c 128,-1,6
 139 700 139 700 165 809.5 c 128,-1,7
 191 919 191 919 246 1000 c 1,8,9
 365 1171 365 1171 602 1171 c 1,10,11
 783 1168 783 1168 942 1088 c 1,12,-1
 942 1634 l 1,13,-1
 1111 1620 l 1,14,-1
 1111 1092 l 2,15,16
 1111 108 1111 108 1118 0 c 1,17,-1
 961 0 l 1,18,-1
 944 150 l 1,0,1
947 965 m 1,19,20
 804 1021 804 1021 613 1025 c 1,21,22
 372 1025 372 1025 329 747 c 0,23,24
 283 447 283 447 362 270 c 0,25,26
 425 128 425 128 588 128 c 0,27,28
 785 128 785 128 944 298 c 1,29,-1
 944 790 l 2,30,31
 944 832 944 832 945 874.5 c 128,-1,32
 946 917 946 917 947 965 c 1,19,20
EndSplineSet
EndChar

StartChar: e
Encoding: 101 101 91
Width: 1196
GlyphClass: 2
Flags: W
LayerCount: 2
Fore
SplineSet
957 35 m 1,0,1
 810 -20 810 -20 663 -20 c 0,2,3
 363 -20 363 -20 230 162 c 1,4,5
 121 309 121 309 121 587 c 128,-1,6
 121 865 121 865 245.5 1017 c 128,-1,7
 370 1169 370 1169 612 1171 c 1,8,9
 838 1171 838 1171 952 1002 c 0,10,11
 1056 849 1056 849 1056 570 c 2,12,-1
 1056 534 l 1,13,-1
 297 534 l 1,14,15
 314 215 314 215 515 148 c 0,16,17
 577 128 577 128 677.5 128 c 128,-1,18
 778 128 778 128 924 183 c 1,19,-1
 957 35 l 1,0,1
876 669 m 1,20,21
 864 842 864 842 814 927 c 1,22,23
 727 1070 727 1070 512 1012 c 1,24,25
 393 981 393 981 334 856 c 0,26,27
 299 782 299 782 297 669 c 1,28,-1
 876 669 l 1,20,21
EndSplineSet
EndChar

StartChar: f
Encoding: 102 102 92
Width: 854
GlyphClass: 2
Flags: W
LayerCount: 2
Fore
SplineSet
452 1351 m 2,0,-1
 455 1250 l 1,1,-1
 455 1157 l 1,2,-1
 739 1157 l 1,3,-1
 739 1016 l 1,4,-1
 455 1016 l 1,5,-1
 455 0 l 1,6,-1
 284 0 l 1,7,-1
 284 1016 l 1,8,-1
 112 1016 l 1,9,-1
 112 1157 l 1,10,-1
 284 1157 l 1,11,-1
 284 1261 l 1,12,13
 282 1299 282 1299 282 1337 c 128,-1,14
 282 1375 282 1375 286.5 1411 c 128,-1,15
 291 1447 291 1447 302 1477 c 0,16,17
 325 1536 325 1536 384 1572 c 0,18,19
 484 1635 484 1635 637 1635 c 0,20,21
 707 1635 707 1635 812 1620 c 1,22,-1
 791 1455 l 1,23,24
 662 1494 662 1494 592.5 1494 c 128,-1,25
 523 1494 523 1494 494 1463.5 c 128,-1,26
 465 1433 465 1433 458.5 1408 c 128,-1,27
 452 1383 452 1383 452 1351 c 2,0,-1
EndSplineSet
EndChar

StartChar: g
Encoding: 103 103 93
Width: 1196
GlyphClass: 2
Flags: W
LayerCount: 2
Fore
SplineSet
553 382 m 0,0,1
 457 382 457 382 387 409 c 1,2,3
 359 393 359 393 335 358 c 0,4,5
 296 302 296 302 296 277 c 0,6,7
 296 230 296 230 343 199 c 1,8,9
 386 172 386 172 451.5 172 c 128,-1,10
 517 172 517 172 569 180 c 0,11,12
 658 195 658 195 731 195 c 128,-1,13
 804 195 804 195 873.5 180 c 128,-1,14
 943 165 943 165 997 131 c 0,15,16
 1116 56 1116 56 1125 -95 c 1,17,18
 1130 -305 1130 -305 936 -425 c 0,19,20
 779 -523 779 -523 565 -530 c 0,21,22
 372 -536 372 -536 240 -455 c 0,23,24
 196 -428 196 -428 163 -390 c 0,25,26
 98 -314 98 -314 98 -205 c 0,27,28
 98 -67 98 -67 194 36 c 0,29,30
 225 70 225 70 264 93 c 1,31,32
 149 153 149 153 149 257 c 0,33,34
 149 320 149 320 189.5 371.5 c 128,-1,35
 230 423 230 423 306 451 c 1,36,37
 149 548 149 548 149 773 c 0,38,39
 149 959 149 959 281 1069 c 0,40,41
 403 1171 403 1171 576 1171 c 0,42,43
 691 1171 691 1171 781 1135 c 1,44,45
 814 1129 814 1129 905.5 1129 c 128,-1,46
 997 1129 997 1129 1172 1166 c 1,47,-1
 1199 1020 l 1,48,49
 1158 1018 1158 1018 1116.5 1015.5 c 128,-1,50
 1075 1013 1075 1013 1027 1011 c 2,51,-1
 929 1007 l 1,52,53
 977 950 977 950 991 833 c 0,54,55
 995 800 995 800 995 773 c 0,56,57
 995 582 995 582 863 476 c 0,58,59
 746 382 746 382 553 382 c 0,0,1
829 773 m 1,60,61
 833 929 833 929 752 996 c 1,62,63
 692 1041 692 1041 567 1037 c 1,64,65
 394 1024 394 1024 336 882 c 0,66,67
 317 835 317 835 315 775 c 1,68,69
 313 648 313 648 378 582 c 128,-1,70
 443 516 443 516 562 516 c 128,-1,71
 681 516 681 516 755 586 c 128,-1,72
 829 656 829 656 829 773 c 1,60,61
493 24 m 1,73,74
 415 24 415 24 357 44 c 1,75,76
 291 3 291 3 268 -98 c 0,77,78
 261 -129 261 -129 261 -162 c 0,79,80
 261 -240 261 -240 304 -292 c 1,81,82
 375 -385 375 -385 563 -380 c 0,83,84
 714 -376 714 -376 796 -336 c 0,85,86
 947 -264 947 -264 947 -132 c 1,87,88
 943 39 943 39 735 39 c 1,89,-1
 493 24 l 1,73,74
EndSplineSet
EndChar

StartChar: h
Encoding: 104 104 94
Width: 1366
GlyphClass: 2
Flags: W
LayerCount: 2
Fore
SplineSet
218 0 m 1,0,-1
 215 1409 l 1,1,2
 213 1589 213 1589 212 1620 c 1,3,-1
 383 1634 l 1,4,-1
 383 1016 l 1,5,6
 610 1171 610 1171 781 1171 c 0,7,8
 1061 1171 1061 1171 1128 970 c 0,9,10
 1151 901 1151 901 1154 806 c 1,11,-1
 1154 0 l 1,12,-1
 987 0 l 1,13,-1
 987 745 l 2,14,15
 987 898 987 898 942 960 c 0,16,17
 899 1020 899 1020 788 1020 c 0,18,19
 640 1020 640 1020 490 945 c 0,20,21
 440 920 440 920 386 888 c 1,22,-1
 388 797 l 2,23,24
 390 721 390 721 390 643 c 2,25,-1
 390 0 l 1,26,-1
 218 0 l 1,0,-1
EndSplineSet
EndChar

StartChar: i
Encoding: 105 105 95
Width: 684
GlyphClass: 2
Flags: W
LayerCount: 2
Fore
SplineSet
257 1620 m 1,0,-1
 427 1620 l 1,1,-1
 427 1382 l 1,2,-1
 257 1382 l 1,3,-1
 257 1620 l 1,0,-1
257 1157 m 1,4,-1
 427 1157 l 1,5,-1
 427 0 l 1,6,-1
 257 0 l 1,7,-1
 257 1157 l 1,4,-1
EndSplineSet
EndChar

StartChar: j
Encoding: 106 106 96
Width: 684
GlyphClass: 2
Flags: W
LayerCount: 2
Fore
SplineSet
257 1620 m 1,0,-1
 428 1620 l 1,1,-1
 428 1382 l 1,2,-1
 257 1382 l 1,3,-1
 257 1620 l 1,0,-1
259 -200 m 2,4,-1
 257 -35 l 1,5,-1
 257 1157 l 1,6,-1
 428 1157 l 1,7,-1
 428 -35 l 1,8,-1
 429 -119 l 1,9,10
 429 -272 429 -272 410.5 -331 c 128,-1,11
 392 -390 392 -390 364.5 -422 c 128,-1,12
 337 -454 337 -454 290 -474 c 0,13,14
 205 -512 205 -512 82 -512 c 0,15,16
 14 -512 14 -512 -89 -497 c 1,17,-1
 -69 -333 l 1,18,19
 54 -372 54 -372 121.5 -372 c 128,-1,20
 189 -372 189 -372 218 -341 c 128,-1,21
 247 -310 247 -310 253 -280 c 128,-1,22
 259 -250 259 -250 259 -200 c 2,4,-1
EndSplineSet
EndChar

StartChar: k
Encoding: 107 107 97
Width: 1198
GlyphClass: 2
Flags: W
LayerCount: 2
Fore
SplineSet
206 0 m 1,0,1
 206 0 206 0 203 1409 c 1,2,3
 201 1589 201 1589 200 1620 c 1,4,-1
 376 1634 l 1,5,-1
 378 694 l 1,6,-1
 378 0 l 1,7,-1
 206 0 l 1,0,1
764 234 m 2,8,-1
 476 583 l 2,9,10
 441 624 441 624 429 641 c 1,11,-1
 889 1157 l 1,12,-1
 1111 1157 l 1,13,-1
 628 641 l 1,14,15
 633 634 633 634 648 616 c 0,16,17
 761 482 761 482 789 446 c 1,18,-1
 1118 90 l 1,19,-1
 955 -20 l 1,20,21
 868 107 868 107 764 234 c 2,8,-1
EndSplineSet
EndChar

StartChar: l
Encoding: 108 108 98
Width: 698
GlyphClass: 2
Flags: W
LayerCount: 2
Fore
SplineSet
364 312 m 1,0,1
 358 203 358 203 393 167.5 c 128,-1,2
 428 132 428 132 493.5 132 c 128,-1,3
 559 132 559 132 683 166 c 1,4,-1
 715 20 l 1,5,6
 583 -16 583 -16 504.5 -18.5 c 128,-1,7
 426 -21 426 -21 370 -7.5 c 128,-1,8
 314 6 314 6 274 42 c 0,9,10
 188 119 188 119 192 301 c 1,11,-1
 194 1620 l 1,12,-1
 366 1634 l 1,13,-1
 364 312 l 1,0,1
EndSplineSet
EndChar

StartChar: m
Encoding: 109 109 99
Width: 2049
GlyphClass: 2
Flags: W
LayerCount: 2
Fore
SplineSet
206 0 m 1,0,-1
 207 339 l 1,1,2
 207 771 207 771 204 890 c 2,3,-1
 200 1048 l 2,4,5
 197 1140 197 1140 194 1157 c 1,6,-1
 366 1166 l 1,7,8
 365 1154 365 1154 364.5 1134.5 c 128,-1,9
 364 1115 364 1115 364 1086 c 2,10,-1
 364 1011 l 1,11,-1
 440 1065 l 1,12,13
 591 1171 591 1171 728.5 1171 c 128,-1,14
 866 1171 866 1171 947.5 1128.5 c 128,-1,15
 1029 1086 1029 1086 1069 996 c 1,16,17
 1082 1004 1082 1004 1145.5 1048.5 c 128,-1,18
 1209 1093 1209 1093 1254 1116 c 0,19,20
 1360 1171 1360 1171 1460 1171 c 0,21,22
 1650 1171 1650 1171 1741 1083.5 c 128,-1,23
 1832 996 1832 996 1837 806 c 1,24,-1
 1837 0 l 1,25,-1
 1667 0 l 1,26,-1
 1667 745 l 2,27,28
 1667 899 1667 899 1622 960 c 0,29,30
 1577 1020 1577 1020 1467 1020 c 0,31,32
 1369 1020 1369 1020 1305.5 995 c 128,-1,33
 1242 970 1242 970 1198 945 c 2,34,-1
 1102 888 l 1,35,-1
 1099 886 l 1,36,37
 1106 853 1106 853 1106 806 c 2,38,-1
 1106 0 l 1,39,-1
 937 0 l 1,40,-1
 937 745 l 2,41,42
 937 898 937 898 892 960 c 0,43,44
 849 1020 849 1020 738 1020 c 0,45,46
 640 1020 640 1020 576.5 995 c 128,-1,47
 513 970 513 970 469 945 c 2,48,-1
 373 888 l 1,49,-1
 375 797 l 2,50,51
 377 721 377 721 377 643 c 2,52,-1
 377 0 l 1,53,-1
 206 0 l 1,0,-1
EndSplineSet
EndChar

StartChar: n
Encoding: 110 110 100
Width: 1365
GlyphClass: 2
Flags: W
LayerCount: 2
Fore
SplineSet
206 0 m 1,0,-1
 207 339 l 1,1,2
 207 771 207 771 204 890 c 2,3,-1
 200 1048 l 2,4,5
 197 1140 197 1140 194 1157 c 1,6,-1
 366 1166 l 1,7,8
 365 1154 365 1154 364.5 1134.5 c 128,-1,9
 364 1115 364 1115 364 1086 c 2,10,-1
 364 1011 l 1,11,12
 598 1171 598 1171 777.5 1171 c 128,-1,13
 957 1171 957 1171 1049 1083.5 c 128,-1,14
 1141 996 1141 996 1146 806 c 1,15,-1
 1146 0 l 1,16,-1
 974 0 l 1,17,-1
 974 745 l 2,18,19
 974 898 974 898 930 960 c 1,20,21
 886 1020 886 1020 775 1020 c 0,22,23
 626 1020 626 1020 478 945 c 0,24,25
 428 920 428 920 373 888 c 1,26,-1
 375 797 l 2,27,28
 377 721 377 721 377 643 c 2,29,-1
 377 0 l 1,30,-1
 206 0 l 1,0,-1
EndSplineSet
EndChar

StartChar: o
Encoding: 111 111 101
Width: 1363
GlyphClass: 2
Flags: W
LayerCount: 2
Fore
SplineSet
164 564 m 0,0,1
 164 708 164 708 203.5 822.5 c 128,-1,2
 243 937 243 937 314 1014 c 0,3,4
 457 1171 457 1171 690 1171 c 0,5,6
 940 1171 940 1171 1071 1016 c 0,7,8
 1199 864 1199 864 1199 574 c 0,9,10
 1199 288 1199 288 1045 127 c 0,11,12
 904 -20 904 -20 676 -20 c 0,13,14
 437 -20 437 -20 302 130 c 1,15,16
 164 281 164 281 164 564 c 0,0,1
678 125 m 0,17,18
 1016 125 1016 125 1016 574 c 1,19,20
 1010 910 1010 910 832 995 c 0,21,22
 769 1025 769 1025 684.5 1025 c 128,-1,23
 600 1025 600 1025 536 994.5 c 128,-1,24
 472 964 472 964 428 906 c 1,25,26
 339 785 339 785 341.5 569 c 128,-1,27
 344 353 344 353 428.5 239 c 128,-1,28
 513 125 513 125 678 125 c 0,17,18
EndSplineSet
EndChar

StartChar: p
Encoding: 112 112 102
Width: 1365
GlyphClass: 2
Flags: W
LayerCount: 2
Fore
SplineSet
658 -21 m 0,0,1
 525 -21 525 -21 369 49 c 1,2,-1
 369 -479 l 1,3,-1
 197 -479 l 1,4,5
 197 972 197 972 188 1157 c 1,6,-1
 354 1171 l 1,7,-1
 354 993 l 1,8,9
 522 1166 522 1166 718 1171 c 0,10,11
 1036 1178 1036 1178 1134 864 c 0,12,13
 1173 740 1173 740 1173 599.5 c 128,-1,14
 1173 459 1173 459 1143.5 347.5 c 128,-1,15
 1114 236 1114 236 1054 154 c 0,16,17
 924 -21 924 -21 678 -21 c 0,18,19
 668 -21 668 -21 658 -21 c 0,0,1
363 854 m 1,20,-1
 369 620 l 1,21,-1
 369 194 l 1,22,23
 495 143 495 143 549 135 c 0,24,25
 720 110 720 110 799 148.5 c 128,-1,26
 878 187 878 187 920 250 c 0,27,28
 998 367 998 367 996 588 c 0,29,30
 993 896 993 896 852 990 c 0,31,32
 801 1024 801 1024 734 1023 c 128,-1,33
 667 1022 667 1022 619 1009 c 128,-1,34
 571 996 571 996 531.5 978 c 128,-1,35
 492 960 492 960 461.5 938.5 c 128,-1,36
 431 917 431 917 409.5 899 c 128,-1,37
 388 881 388 881 376 868 c 128,-1,38
 364 855 364 855 363 854 c 1,20,-1
EndSplineSet
EndChar

StartChar: q
Encoding: 113 113 103
Width: 1365
GlyphClass: 2
Flags: W
LayerCount: 2
Fore
SplineSet
1101 1095 m 1,0,-1
 1101 238 l 2,1,2
 1101 -336 1101 -336 1108 -466 c 1,3,-1
 932 -479 l 1,4,-1
 930 329 l 1,5,-1
 930 759 l 2,6,7
 930 834 930 834 931.5 891 c 128,-1,8
 933 948 933 948 934 991 c 1,9,10
 752 1044 752 1044 578 1008 c 0,11,12
 442 979 442 979 372 834 c 0,13,14
 320 728 320 728 320 562 c 2,15,-1
 320 537 l 2,16,17
 320 235 320 235 488 154 c 0,18,19
 614 93 614 93 823 153 c 1,20,-1
 833 16 l 1,21,22
 716 -16 716 -16 611.5 -17 c 128,-1,23
 507 -18 507 -18 419 16.5 c 128,-1,24
 331 51 331 51 270 120 c 0,25,26
 142 265 142 265 142 545 c 2,27,-1
 142 566 l 2,28,29
 142 699 142 699 180.5 812 c 128,-1,30
 219 925 219 925 286 1002 c 0,31,32
 427 1164 427 1164 678 1164 c 0,33,34
 853 1164 853 1164 1101 1095 c 1,0,-1
EndSplineSet
EndChar

StartChar: r
Encoding: 114 114 104
Width: 853
GlyphClass: 2
Flags: W
LayerCount: 2
Fore
SplineSet
371 742 m 1,0,1
 375 666 375 666 375 550 c 2,2,-1
 375 0 l 1,3,-1
 206 0 l 1,4,5
 206 1061 206 1061 194 1157 c 1,6,-1
 360 1171 l 1,7,-1
 360 890 l 1,8,9
 493 1171 493 1171 717 1171 c 0,10,11
 794 1171 794 1171 844 1159 c 1,12,-1
 807 981 l 1,13,14
 759 1005 759 1005 699.5 1005.5 c 128,-1,15
 640 1006 640 1006 591 979 c 128,-1,16
 542 952 542 952 501.5 912 c 128,-1,17
 461 872 461 872 429 826 c 2,18,-1
 371 742 l 1,0,1
EndSplineSet
EndChar

StartChar: s
Encoding: 115 115 105
Width: 1024
GlyphClass: 2
Flags: W
LayerCount: 2
Fore
SplineSet
813 979 m 1,0,1
 696 1020 696 1020 557 1020 c 0,2,3
 429 1020 429 1020 379 928 c 0,4,5
 364 901 364 901 360 860.5 c 128,-1,6
 356 820 356 820 371.5 784.5 c 128,-1,7
 387 749 387 749 417 722 c 0,8,9
 464 679 464 679 540 649 c 128,-1,10
 616 619 616 619 654.5 602 c 128,-1,11
 693 585 693 585 728 564 c 128,-1,12
 763 543 763 543 793.5 516 c 128,-1,13
 824 489 824 489 846 455 c 0,14,15
 893 383 893 383 890.5 290 c 128,-1,16
 888 197 888 197 855.5 140 c 128,-1,17
 823 83 823 83 768 48 c 1,18,19
 665 -20 665 -20 482 -20 c 0,20,21
 300 -20 300 -20 127 46 c 1,22,-1
 157 197 l 1,23,24
 316 134 316 134 486 130 c 1,25,26
 648 124 648 124 695 214 c 0,27,28
 731 282 731 282 701 350 c 0,29,30
 673 411 673 411 589 454 c 0,31,32
 549 475 549 475 498.5 495.5 c 128,-1,33
 448 516 448 516 390.5 544 c 128,-1,34
 333 572 333 572 286 613 c 0,35,36
 181 706 181 706 181 854 c 2,37,-1
 181 869 l 2,38,39
 181 945 181 945 218 1003.5 c 128,-1,40
 255 1062 255 1062 308 1098 c 0,41,42
 410 1167 410 1167 560 1171 c 1,43,44
 711 1171 711 1171 847 1127 c 1,45,-1
 813 979 l 1,0,1
EndSplineSet
EndChar

StartChar: t
Encoding: 116 116 106
Width: 853
GlyphClass: 2
Flags: W
LayerCount: 2
Fore
SplineSet
803 35 m 1,0,1
 660 -20 660 -20 519 -20 c 1,2,3
 380 -18 380 -18 316 41 c 0,4,5
 244 107 244 107 244 260 c 0,6,7
 244 270 244 270 244 280 c 128,-1,8
 244 290 244 290 245 301 c 2,9,-1
 250 1016 l 1,10,-1
 62 1016 l 1,11,-1
 67 1157 l 1,12,-1
 257 1157 l 1,13,14
 257 1324 257 1324 245 1396 c 1,15,-1
 417 1424 l 1,16,-1
 424 1157 l 1,17,-1
 740 1157 l 1,18,-1
 740 1016 l 1,19,-1
 421 1016 l 1,20,-1
 417 312 l 1,21,22
 413 211 413 211 435 179 c 128,-1,23
 457 147 457 147 484.5 138.5 c 128,-1,24
 512 130 512 130 573.5 130 c 128,-1,25
 635 130 635 130 773 176 c 1,26,-1
 803 35 l 1,0,1
EndSplineSet
EndChar

StartChar: u
Encoding: 117 117 107
Width: 1363
GlyphClass: 2
Flags: W
LayerCount: 2
Fore
SplineSet
1124 967 m 2,0,-1
 1124 467 l 2,1,2
 1124 62 1124 62 1137 0 c 1,3,-1
 981 0 l 1,4,-1
 961 162 l 1,5,6
 840 35 840 35 680 -6 c 0,7,8
 624 -20 624 -20 549.5 -19 c 128,-1,9
 475 -18 475 -18 404 8 c 128,-1,10
 333 34 333 34 284 83 c 0,11,12
 182 185 182 185 186 368 c 1,13,-1
 186 1157 l 1,14,-1
 356 1171 l 1,15,-1
 356 428 l 2,16,17
 356 270 356 270 402 202 c 0,18,19
 450 132 450 132 562 131 c 128,-1,20
 674 130 674 130 768 172.5 c 128,-1,21
 862 215 862 215 961 298 c 1,22,-1
 957 371 l 2,23,24
 954 419 954 419 954 507 c 2,25,-1
 954 1157 l 1,26,-1
 1125 1171 l 1,27,28
 1124 1062 1124 1062 1124 967 c 2,0,-1
EndSplineSet
EndChar

StartChar: v
Encoding: 118 118 108
Width: 1196
GlyphClass: 2
Flags: W
LayerCount: 2
Fore
SplineSet
70 1157 m 1,0,-1
 257 1157 l 1,1,-1
 600 134 l 1,2,-1
 940 1157 l 1,3,-1
 1125 1157 l 1,4,-1
 720 0 l 1,5,-1
 479 0 l 1,6,-1
 70 1157 l 1,0,-1
EndSplineSet
EndChar

StartChar: w
Encoding: 119 119 109
Width: 1706
GlyphClass: 2
Flags: W
LayerCount: 2
Fore
SplineSet
355 0 m 1,0,-1
 -1 1157 l 1,1,-1
 191 1157 l 1,2,-1
 474 104 l 1,3,-1
 511 257 l 1,4,-1
 750 1157 l 1,5,-1
 958 1157 l 1,6,-1
 1196 257 l 1,7,-1
 1233 104 l 1,8,-1
 1515 1157 l 1,9,-1
 1707 1157 l 1,10,-1
 1351 0 l 1,11,-1
 1101 0 l 1,12,-1
 885 854 l 1,13,-1
 854 1011 l 1,14,-1
 821 854 l 1,15,-1
 606 0 l 1,16,-1
 355 0 l 1,0,-1
EndSplineSet
EndChar

StartChar: x
Encoding: 120 120 110
Width: 1024
GlyphClass: 2
Flags: W
LayerCount: 2
Fore
SplineSet
417 597 m 1,0,-1
 35 1157 l 1,1,-1
 239 1157 l 1,2,-1
 516 720 l 1,3,-1
 790 1157 l 1,4,-1
 984 1157 l 1,5,-1
 607 590 l 1,6,-1
 1012 77 l 1,7,-1
 843 -28 l 1,8,9
 768 94 768 94 684 218 c 1,10,11
 684 218 684 218 507 466 c 1,12,-1
 216 0 l 1,13,-1
 12 0 l 1,14,-1
 417 597 l 1,0,-1
EndSplineSet
EndChar

StartChar: y
Encoding: 121 121 111
Width: 1194
GlyphClass: 2
Flags: W
LayerCount: 2
Fore
SplineSet
64 1157 m 1,0,-1
 251 1157 l 1,1,-1
 589 134 l 1,2,-1
 929 1157 l 1,3,-1
 1119 1157 l 1,4,-1
 503 -539 l 1,5,-1
 307 -472 l 1,6,7
 509 -92 509 -92 554 0 c 1,8,-1
 471 0 l 1,9,-1
 64 1157 l 1,0,-1
EndSplineSet
EndChar

StartChar: z
Encoding: 122 122 112
Width: 1025
GlyphClass: 2
Flags: W
LayerCount: 2
Fore
SplineSet
70 123 m 1,0,-1
 697 1009 l 1,1,-1
 101 1009 l 1,2,-1
 101 1157 l 1,3,-1
 914 1157 l 1,4,-1
 914 1032 l 1,5,-1
 287 148 l 1,6,-1
 954 148 l 1,7,-1
 944 0 l 1,8,-1
 97 0 l 1,9,-1
 70 123 l 1,0,-1
EndSplineSet
EndChar

StartChar: braceleft
Encoding: 123 123 113
Width: 853
GlyphClass: 2
Flags: W
LayerCount: 2
Fore
SplineSet
694 -263 m 1,0,1
 314 -243 314 -243 314 123 c 2,2,-1
 314 329 l 2,3,4
 314 504 314 504 291.5 543 c 128,-1,5
 269 582 269 582 238.5 592.5 c 128,-1,6
 208 603 208 603 159 605 c 1,7,-1
 159 742 l 1,8,9
 208 744 208 744 238.5 754.5 c 128,-1,10
 269 765 269 765 286 794 c 0,11,12
 314 843 314 843 314 1018 c 2,13,-1
 314 1224 l 2,14,15
 314 1500 314 1500 528 1578 c 0,16,17
 602 1605 602 1605 694 1610 c 1,18,-1
 694 1477 l 1,19,20
 462 1453 462 1453 462 1224 c 2,21,-1
 462 1018 l 2,22,23
 462 734 462 734 364 691 c 0,24,25
 336 679 336 679 309 673 c 1,26,27
 336 667 336 667 363.5 655.5 c 128,-1,28
 391 644 391 644 412 609 c 0,29,30
 462 528 462 528 462 329 c 2,31,-1
 462 123 l 2,32,33
 462 -11 462 -11 540 -75 c 0,34,35
 595 -120 595 -120 694 -130 c 1,36,-1
 694 -263 l 1,0,1
EndSplineSet
EndChar

StartChar: bar
Encoding: 124 124 114
Width: 512
GlyphClass: 2
Flags: W
LayerCount: 2
Fore
SplineSet
177 1687 m 1,0,-1
 334 1687 l 1,1,-1
 334 -329 l 1,2,-1
 177 -329 l 1,3,-1
 177 1687 l 1,0,-1
EndSplineSet
EndChar

StartChar: braceright
Encoding: 125 125 115
Width: 853
GlyphClass: 2
Flags: W
LayerCount: 2
Fore
SplineSet
159 -263 m 1,0,1
 539 -243 539 -243 539 123 c 2,2,-1
 539 329 l 2,3,4
 539 504 539 504 561.5 543 c 128,-1,5
 584 582 584 582 614.5 592.5 c 128,-1,6
 645 603 645 603 694 605 c 1,7,-1
 694 742 l 1,8,9
 645 744 645 744 614.5 754.5 c 128,-1,10
 584 765 584 765 567 794 c 0,11,12
 539 843 539 843 539 1018 c 2,13,-1
 539 1224 l 2,14,15
 539 1500 539 1500 325 1578 c 0,16,17
 251 1605 251 1605 159 1610 c 1,18,-1
 159 1477 l 1,19,20
 391 1453 391 1453 391 1224 c 2,21,-1
 391 1018 l 2,22,23
 391 734 391 734 489 691 c 0,24,25
 517 679 517 679 544 673 c 1,26,27
 517 667 517 667 489.5 655.5 c 128,-1,28
 462 644 462 644 441 609 c 0,29,30
 391 528 391 528 391 329 c 2,31,-1
 391 123 l 2,32,33
 391 -11 391 -11 313 -75 c 0,34,35
 258 -120 258 -120 159 -130 c 1,36,-1
 159 -263 l 1,0,1
EndSplineSet
EndChar

StartChar: asciitilde
Encoding: 126 126 116
Width: 1365
GlyphClass: 2
Flags: W
LayerCount: 2
Fore
SplineSet
101 583 m 1,0,1
 154 729 154 729 201 787 c 0,2,3
 323 941 323 941 517 894 c 0,4,5
 594 875 594 875 643 844 c 2,6,-1
 721 793 l 1,7,8
 870 698 870 698 930 698 c 128,-1,9
 990 698 990 698 1031 749.5 c 128,-1,10
 1072 801 1072 801 1107 914 c 1,11,-1
 1263 870 l 1,12,13
 1204 717 1204 717 1161 662 c 1,14,15
 1011 476 1011 476 770 586 c 0,16,17
 734 603 734 603 702 623 c 2,18,-1
 643 662 l 1,19,20
 497 755 497 755 435.5 755 c 128,-1,21
 374 755 374 755 332.5 703.5 c 128,-1,22
 291 652 291 652 256 539 c 1,23,-1
 101 583 l 1,0,1
EndSplineSet
EndChar

StartChar: exclamdown
Encoding: 161 161 118
Width: 682
GlyphClass: 2
Flags: W
LayerCount: 2
Fore
SplineSet
238 1190 m 1,0,-1
 238 1393 l 1,1,-1
 444 1393 l 1,2,-1
 444 1190 l 1,3,-1
 238 1190 l 1,0,-1
245 -194 m 1,4,-1
 273 1005 l 1,5,-1
 406 1005 l 1,6,-1
 435 -194 l 1,7,-1
 245 -194 l 1,4,-1
EndSplineSet
EndChar

StartChar: cent
Encoding: 162 162 119
Width: 1197
GlyphClass: 2
Flags: W
LayerCount: 2
Fore
SplineSet
983 261 m 1,0,1
 843 206 843 206 670 206 c 2,2,-1
 664 206 l 1,3,-1
 664 -51 l 1,4,-1
 564 -51 l 1,5,-1
 564 212 l 1,6,7
 153 264 153 264 153 776 c 128,-1,8
 153 1288 153 1288 564 1331 c 1,9,-1
 564 1574 l 1,10,-1
 664 1574 l 1,11,-1
 664 1336 l 1,12,-1
 687 1336 l 1,13,14
 805 1331 805 1331 866 1311.5 c 128,-1,15
 927 1292 927 1292 953 1283 c 1,16,-1
 914 1137 l 1,17,18
 802 1187 802 1187 681 1192 c 1,19,-1
 664 1192 l 1,20,-1
 664 349 l 1,21,-1
 670 349 l 2,22,23
 808 349 808 349 960 405 c 1,24,-1
 983 261 l 1,0,1
564 1183 m 1,25,26
 328 1136 328 1136 328 773 c 0,27,28
 328 423 328 423 564 360 c 1,29,-1
 564 1183 l 1,25,26
EndSplineSet
EndChar

StartChar: sterling
Encoding: 163 163 120
Width: 1194
GlyphClass: 2
Flags: W
LayerCount: 2
Fore
SplineSet
961 1367 m 1,0,1
 850 1416 850 1416 747 1416 c 0,2,3
 566 1416 566 1416 514 1076 c 1,4,-1
 503 1002 l 2,5,6
 496 960 496 960 490.5 915.5 c 128,-1,7
 485 871 485 871 478 826 c 1,8,-1
 946 826 l 1,9,-1
 941 689 l 1,10,-1
 457 689 l 1,11,12
 396 308 396 308 299 164 c 1,13,-1
 1069 164 l 1,14,-1
 1065 16 l 1,15,-1
 87 16 l 1,16,-1
 87 174 l 1,17,18
 223 246 223 246 299 689 c 1,19,-1
 84 689 l 1,20,-1
 84 826 l 1,21,-1
 321 826 l 1,22,-1
 341 1016 l 1,23,24
 372 1357 372 1357 508 1488 c 0,25,26
 598 1574 598 1574 739 1574 c 0,27,28
 864 1574 864 1574 1019 1502 c 1,29,-1
 961 1367 l 1,0,1
EndSplineSet
EndChar

StartChar: currency
Encoding: 164 164 121
Width: 1366
GlyphClass: 2
Flags: W
LayerCount: 2
Fore
SplineSet
863 415 m 1,0,1
 791 377 791 377 682 377 c 128,-1,2
 573 377 573 377 497 415 c 1,3,-1
 435 322 l 1,4,5
 400 262 400 262 280 146 c 1,6,-1
 165 263 l 1,7,8
 188 291 188 291 227 327 c 2,9,-1
 291 384 l 2,10,11
 317 407 317 407 338 421 c 2,12,-1
 417 475 l 1,13,14
 342 556 342 556 342 699 c 128,-1,15
 342 842 342 842 417 923 c 1,16,-1
 338 976 l 2,17,18
 317 990 317 990 291 1012 c 1,19,20
 193 1101 193 1101 165 1135 c 1,21,-1
 280 1252 l 1,22,23
 401 1133 401 1133 435 1076 c 1,24,-1
 497 983 l 1,25,26
 577 1020 577 1020 680 1020 c 0,27,28
 787 1020 787 1020 865 981 c 1,29,-1
 930 1076 l 1,30,31
 971 1141 971 1141 1086 1252 c 1,32,-1
 1201 1135 l 1,33,34
 1192 1124 1192 1124 1172 1103 c 1,35,-1
 1126 1058 l 1,36,37
 1066 1002 1066 1002 1025 976 c 2,38,-1
 945 923 l 1,39,40
 1023 841 1023 841 1023 699 c 128,-1,41
 1023 557 1023 557 945 475 c 1,42,-1
 1025 421 l 1,43,44
 1087 382 1087 382 1139.5 328 c 128,-1,45
 1192 274 1192 274 1201 263 c 1,46,-1
 1086 146 l 1,47,48
 971 255 971 255 930 322 c 1,49,-1
 863 415 l 1,0,1
680 490 m 0,50,51
 771 490 771 490 825 543 c 128,-1,52
 879 596 879 596 879 698.5 c 128,-1,53
 879 801 879 801 825 855.5 c 128,-1,54
 771 910 771 910 680 910 c 0,55,56
 542 910 542 910 498 788 c 0,57,58
 483 749 483 749 483 698 c 0,59,60
 483 547 483 547 600 504 c 0,61,62
 636 490 636 490 680 490 c 0,50,51
EndSplineSet
EndChar

StartChar: yen
Encoding: 165 165 122
Width: 1194
GlyphClass: 2
Flags: W
LayerCount: 2
Fore
SplineSet
199 455 m 1,0,-1
 515 455 l 1,1,-1
 515 629 l 1,2,-1
 199 629 l 1,3,-1
 199 748 l 1,4,-1
 515 748 l 1,5,-1
 323 1086 l 1,6,-1
 29 1574 l 1,7,-1
 226 1574 l 1,8,-1
 596 916 l 1,9,-1
 735 1157 l 1,10,-1
 967 1574 l 1,11,-1
 1164 1574 l 1,12,-1
 870 1086 l 1,13,-1
 678 748 l 1,14,-1
 992 748 l 1,15,-1
 992 629 l 1,16,-1
 678 629 l 1,17,-1
 678 455 l 1,18,-1
 992 455 l 1,19,-1
 992 336 l 1,20,-1
 678 336 l 1,21,-1
 678 16 l 1,22,-1
 515 16 l 1,23,-1
 515 336 l 1,24,-1
 199 336 l 1,25,-1
 199 455 l 1,0,-1
EndSplineSet
EndChar

StartChar: brokenbar
Encoding: 166 166 123
Width: 512
GlyphClass: 2
Flags: W
LayerCount: 2
Fore
SplineSet
177 1687 m 1,0,-1
 334 1687 l 1,1,-1
 334 860 l 1,2,-1
 177 860 l 1,3,-1
 177 1687 l 1,0,-1
177 499 m 1,4,-1
 334 499 l 1,5,-1
 334 -328 l 1,6,-1
 177 -328 l 1,7,-1
 177 499 l 1,4,-1
EndSplineSet
EndChar

StartChar: section
Encoding: 167 167 124
Width: 1025
GlyphClass: 2
Flags: W
LayerCount: 2
Fore
SplineSet
732 296 m 1,0,1
 882 179 882 179 882 31 c 0,2,3
 882 -137 882 -137 768 -232 c 1,4,5
 663 -318 663 -318 519 -307 c 1,6,7
 356 -303 356 -303 226 -190 c 1,8,-1
 318 -77 l 1,9,10
 444 -192 444 -192 585 -164 c 0,11,12
 662 -149 662 -149 698 -73 c 0,13,14
 718 -33 718 -33 718 19 c 128,-1,15
 718 71 718 71 700.5 104 c 128,-1,16
 683 137 683 137 651.5 167 c 128,-1,17
 620 197 620 197 576 226 c 2,18,-1
 478 289 l 1,19,20
 316 388 316 388 260 448 c 0,21,22
 142 573 142 573 142 722 c 0,23,24
 142 822 142 822 216 912 c 1,25,26
 245 949 245 949 292 981 c 1,27,28
 142 1098 142 1098 142 1250 c 0,29,30
 142 1403 142 1403 249 1497 c 0,31,32
 349 1585 349 1585 498 1585 c 1,33,34
 665 1589 665 1589 795 1469 c 1,35,-1
 705 1351 l 1,36,37
 639 1417 639 1417 554 1439 c 0,38,39
 528 1446 528 1446 497.5 1446 c 128,-1,40
 467 1446 467 1446 431 1433 c 128,-1,41
 395 1420 395 1420 368 1395 c 0,42,43
 306 1339 306 1339 306 1250 c 0,44,45
 306 1142 306 1142 446 1049 c 0,46,47
 489 1020 489 1020 545.5 986.5 c 128,-1,48
 602 953 602 953 663 912 c 128,-1,49
 724 871 724 871 772 819 c 0,50,51
 882 702 882 702 882 556 c 0,52,53
 882 459 882 459 808 366 c 0,54,55
 779 329 779 329 732 296 c 1,0,1
374 923 m 1,56,57
 304 833 304 833 304 722 c 0,58,59
 304 570 304 570 480 457 c 0,60,61
 530 425 530 425 582 395 c 1,62,-1
 647 356 l 1,63,64
 721 456 721 456 721 556 c 0,65,66
 721 704 721 704 542 820 c 2,67,-1
 443 884 l 1,68,-1
 374 923 l 1,56,57
EndSplineSet
EndChar

StartChar: dieresis
Encoding: 168 168 125
Width: 581
GlyphClass: 2
Flags: W
LayerCount: 2
Fore
SplineSet
395 1585 m 1,0,-1
 574 1585 l 1,1,-1
 574 1363 l 1,2,-1
 395 1363 l 1,3,-1
 395 1585 l 1,0,-1
7 1585 m 1,4,-1
 185 1585 l 1,5,-1
 185 1363 l 1,6,-1
 7 1363 l 1,7,-1
 7 1585 l 1,4,-1
EndSplineSet
EndChar

StartChar: copyright
Encoding: 169 169 126
Width: 1701
GlyphClass: 2
Flags: W
LayerCount: 2
Fore
SplineSet
126 566 m 0,0,1
 99 666 99 666 99 786.5 c 128,-1,2
 99 907 99 907 126.5 1008.5 c 128,-1,3
 154 1110 154 1110 203 1192 c 128,-1,4
 252 1274 252 1274 321 1336 c 128,-1,5
 390 1398 390 1398 473 1440 c 0,6,7
 640 1523 640 1523 823 1523 c 128,-1,8
 1006 1523 1006 1523 1143.5 1478 c 128,-1,9
 1281 1433 1281 1433 1382 1342 c 0,10,11
 1601 1145 1601 1145 1601 786 c 0,12,13
 1601 432 1601 432 1382 238 c 1,14,15
 1181 58 1181 58 847 58 c 0,16,17
 529 58 529 58 321 242 c 0,18,19
 181 366 181 366 126 566 c 0,0,1
229 787 m 0,20,21
 229 632 229 632 278.5 517 c 128,-1,22
 328 402 328 402 412 326 c 0,23,24
 582 174 582 174 847 174 c 0,25,26
 1124 174 1124 174 1290 322 c 0,27,28
 1472 485 1472 485 1472 786 c 0,29,30
 1472 1092 1472 1092 1290 1256 c 1,31,32
 1124 1407 1124 1407 847 1407 c 0,33,34
 581 1407 581 1407 412 1252 c 0,35,36
 229 1084 229 1084 229 787 c 0,20,21
1141 440 m 1,37,38
 988 371 988 371 878 371 c 128,-1,39
 768 371 768 371 693 398.5 c 128,-1,40
 618 426 618 426 566 478 c 0,41,42
 461 583 461 583 461 771 c 2,43,-1
 461 799 l 2,44,45
 461 1210 461 1210 863 1210 c 0,46,47
 982 1210 982 1210 1113 1148 c 1,48,-1
 1073 1044 l 1,49,50
 960 1095 960 1095 863 1095 c 0,51,52
 722 1095 722 1095 656.5 1023 c 128,-1,53
 591 951 591 951 588 799 c 1,54,-1
 588 771 l 2,55,56
 588 640 588 640 660 565 c 128,-1,57
 732 490 732 490 863 488 c 1,58,59
 977 484 977 484 1109 550 c 1,60,-1
 1141 440 l 1,37,38
EndSplineSet
EndChar

StartChar: ordfeminine
Encoding: 170 170 127
Width: 853
GlyphClass: 2
Flags: W
LayerCount: 2
Fore
SplineSet
558 899 m 1,0,1
 479 815 479 815 366 812 c 1,2,3
 250 812 250 812 184 876 c 1,4,5
 123 937 123 937 125 1031 c 1,6,7
 125 1199 125 1199 365 1219 c 0,8,9
 436 1225 436 1225 514 1225 c 2,10,-1
 539 1225 l 1,11,-1
 539 1327 l 2,12,13
 539 1402 539 1402 518 1424 c 0,14,15
 483 1459 483 1459 397.5 1459 c 128,-1,16
 312 1459 312 1459 197 1419 c 1,17,-1
 172 1528 l 1,18,19
 308 1574 308 1574 396.5 1573.5 c 128,-1,20
 485 1573 485 1573 530 1562 c 128,-1,21
 575 1551 575 1551 606 1524 c 0,22,23
 667 1469 667 1469 669 1334 c 1,24,-1
 669 1008 l 2,25,26
 669 959 669 959 675.5 939 c 128,-1,27
 682 919 682 919 703 919 c 128,-1,28
 724 919 724 919 742 922 c 1,29,-1
 750 825 l 1,30,31
 726 818 726 818 678 818 c 128,-1,32
 630 818 630 818 597.5 841 c 128,-1,33
 565 864 565 864 558 899 c 1,0,1
368 918 m 0,34,35
 467 918 467 918 539 980 c 1,36,-1
 539 1137 l 1,37,-1
 495 1137 l 2,38,39
 330 1137 330 1137 279 1090 c 0,40,41
 257 1069 257 1069 257 1024 c 128,-1,42
 257 979 257 979 287 948.5 c 128,-1,43
 317 918 317 918 368 918 c 0,34,35
EndSplineSet
EndChar

StartChar: guillemotleft
Encoding: 171 171 128
Width: 1366
GlyphClass: 2
Flags: W
LayerCount: 2
Fore
SplineSet
673 581 m 1,0,-1
 1050 1060 l 1,1,-1
 1145 976 l 1,2,-1
 871 581 l 1,3,-1
 1148 185 l 1,4,-1
 1050 99 l 1,5,-1
 673 581 l 1,0,-1
536 99 m 1,6,-1
 158 581 l 1,7,-1
 536 1060 l 1,8,-1
 631 976 l 1,9,-1
 355 581 l 1,10,-1
 633 185 l 1,11,-1
 536 99 l 1,6,-1
EndSplineSet
EndChar

StartChar: logicalnot
Encoding: 172 172 129
Width: 1366
GlyphClass: 2
Flags: W
LayerCount: 2
Fore
SplineSet
166 840 m 1,0,-1
 1184 840 l 1,1,-1
 1184 278 l 1,2,-1
 1045 278 l 1,3,-1
 1045 713 l 1,4,-1
 166 713 l 1,5,-1
 166 840 l 1,0,-1
EndSplineSet
EndChar

StartChar: registered
Encoding: 174 174 131
Width: 1024
GlyphClass: 2
Flags: W
LayerCount: 2
Fore
SplineSet
512 857 m 0,0,1
 431 857 431 857 359 882.5 c 128,-1,2
 287 908 287 908 233 958 c 0,3,4
 117 1064 117 1064 117 1250 c 0,5,6
 117 1434 117 1434 233 1538 c 0,7,8
 342 1636 342 1636 513 1636 c 0,9,10
 683 1636 683 1636 790 1538 c 1,11,12
 906 1434 906 1434 906 1250 c 0,13,14
 906 1064 906 1064 790 958 c 1,15,16
 682 857 682 857 512 857 c 0,0,1
512 921 m 0,17,18
 579 921 579 921 637.5 941.5 c 128,-1,19
 696 962 696 962 740 1004 c 0,20,21
 834 1094 834 1094 834 1250 c 0,22,23
 834 1403 834 1403 740 1490 c 0,24,25
 652 1572 652 1572 513 1572 c 0,26,27
 372 1572 372 1572 283 1490 c 0,28,29
 189 1404 189 1404 189 1250 c 0,30,31
 189 1092 189 1092 283 1004 c 1,32,33
 370 921 370 921 512 921 c 0,17,18
659 1018 m 1,34,35
 571 1065 571 1065 520 1199 c 1,36,-1
 427 1199 l 1,37,-1
 427 1020 l 1,38,-1
 360 1020 l 1,39,-1
 360 1475 l 1,40,-1
 531 1475 l 2,41,42
 680 1475 680 1475 684 1338 c 1,43,44
 684 1287 684 1287 655 1252.5 c 128,-1,45
 626 1218 626 1218 584 1206 c 1,46,47
 612 1128 612 1128 670 1082 c 0,48,49
 685 1070 685 1070 694 1069 c 1,50,-1
 659 1018 l 1,34,35
615 1338 m 1,51,52
 611 1414 611 1414 531 1414 c 2,53,-1
 427 1414 l 1,54,-1
 427 1259 l 1,55,-1
 522 1259 l 1,56,57
 566 1261 566 1261 590.5 1277.5 c 128,-1,58
 615 1294 615 1294 615 1338 c 1,51,52
EndSplineSet
EndChar

StartChar: macron
Encoding: 175 175 132
Width: 645
GlyphClass: 2
Flags: W
LayerCount: 2
Fore
SplineSet
7 1509 m 1,0,-1
 638 1509 l 1,1,-1
 638 1372 l 1,2,-1
 7 1372 l 1,3,-1
 7 1509 l 1,0,-1
EndSplineSet
EndChar

StartChar: degree
Encoding: 176 176 133
Width: 853
GlyphClass: 2
Flags: W
LayerCount: 2
Fore
SplineSet
548 1157 m 128,-1,1
 491 1139 491 1139 425 1139 c 128,-1,2
 359 1139 359 1139 303.5 1157.5 c 128,-1,3
 248 1176 248 1176 206 1214 c 0,4,5
 118 1293 118 1293 118 1445 c 0,6,7
 118 1594 118 1594 206 1676 c 0,8,9
 288 1752 288 1752 423 1752 c 0,10,11
 642 1752 642 1752 711 1580 c 0,12,13
 734 1523 734 1523 734 1444.5 c 128,-1,14
 734 1366 734 1366 711 1308 c 128,-1,15
 688 1250 688 1250 646.5 1212.5 c 128,-1,0
 605 1175 605 1175 548 1157 c 128,-1,1
352 1266 m 0,16,17
 385 1255 385 1255 424 1255 c 128,-1,18
 463 1255 463 1255 497 1266 c 128,-1,19
 531 1277 531 1277 556 1300 c 0,20,21
 609 1350 609 1350 609 1445 c 0,22,23
 609 1585 609 1585 497 1625 c 0,24,25
 463 1637 463 1637 424 1637 c 128,-1,26
 385 1637 385 1637 352.5 1625 c 128,-1,27
 320 1613 320 1613 296 1589 c 0,28,29
 244 1537 244 1537 244 1445 c 0,30,31
 244 1305 244 1305 352 1266 c 0,16,17
EndSplineSet
EndChar

StartChar: plusminus
Encoding: 177 177 134
Width: 1196
GlyphClass: 2
Flags: W
LayerCount: 2
Fore
SplineSet
147 338 m 1,0,-1
 534 338 l 1,1,-1
 534 706 l 1,2,-1
 136 706 l 1,3,-1
 136 823 l 1,4,-1
 534 823 l 1,5,-1
 534 1221 l 1,6,-1
 660 1221 l 1,7,-1
 660 823 l 1,8,-1
 1059 823 l 1,9,-1
 1059 706 l 1,10,-1
 660 706 l 1,11,-1
 660 338 l 1,12,-1
 1048 338 l 1,13,-1
 1048 218 l 1,14,-1
 147 218 l 1,15,-1
 147 338 l 1,0,-1
EndSplineSet
EndChar

StartChar: twosuperior
Encoding: 178 178 135
Width: 1196
GlyphClass: 2
Flags: W
LayerCount: 2
Fore
SplineSet
791 1234 m 0,0,1
 791 1434 791 1434 580 1434 c 0,2,3
 482 1434 482 1434 396 1353 c 0,4,5
 369 1327 369 1327 349 1295 c 1,6,-1
 272 1417 l 1,7,8
 367 1571 367 1571 585 1576 c 1,9,10
 845 1579 845 1579 922 1390 c 0,11,12
 948 1325 948 1325 948 1243.5 c 128,-1,13
 948 1162 948 1162 913 1089 c 128,-1,14
 878 1016 878 1016 820 949 c 0,15,16
 705 814 705 814 541 728 c 1,17,-1
 997 728 l 1,18,-1
 988 586 l 1,19,-1
 311 586 l 1,20,-1
 287 697 l 1,21,-1
 405 785 l 1,22,23
 567 898 567 898 641 973.5 c 128,-1,24
 715 1049 715 1049 753 1111 c 128,-1,25
 791 1173 791 1173 791 1234 c 0,0,1
EndSplineSet
EndChar

StartChar: threesuperior
Encoding: 179 179 136
Width: 1196
GlyphClass: 2
Flags: W
LayerCount: 2
Fore
SplineSet
583 1437 m 0,0,1
 445 1437 445 1437 367 1380 c 1,2,-1
 301 1497 l 1,3,4
 416 1574 416 1574 558 1574 c 0,5,6
 809 1574 809 1574 884 1434 c 0,7,8
 912 1380 912 1380 912 1322.5 c 128,-1,9
 912 1265 912 1265 903.5 1233.5 c 128,-1,10
 895 1202 895 1202 878 1172 c 0,11,12
 842 1110 842 1110 776 1075 c 1,13,14
 893 1037 893 1037 933 924 c 0,15,16
 947 884 947 884 947 825 c 128,-1,17
 947 766 947 766 918 710.5 c 128,-1,18
 889 655 889 655 834 616 c 0,19,20
 723 536 723 536 525 536 c 0,21,22
 376 536 376 536 283 597 c 1,23,-1
 331 740 l 1,24,25
 431 671 431 671 542.5 671 c 128,-1,26
 654 671 654 671 722.5 718 c 128,-1,27
 791 765 791 765 791 840 c 0,28,29
 791 920 791 920 716 965 c 0,30,31
 649 1006 649 1006 543 1006 c 2,32,-1
 487 1006 l 1,33,-1
 487 1129 l 1,34,-1
 540 1129 l 2,35,36
 619 1129 619 1129 666 1160 c 0,37,38
 756 1218 756 1218 756 1289 c 0,39,40
 756 1437 756 1437 583 1437 c 0,0,1
EndSplineSet
EndChar

StartChar: acute
Encoding: 180 180 137
Width: 512
GlyphClass: 2
Flags: W
LayerCount: 2
Fore
SplineSet
7 1398 m 1,0,-1
 386 1764 l 1,1,-1
 499 1641 l 1,2,-1
 99 1296 l 1,3,-1
 7 1398 l 1,0,-1
EndSplineSet
EndChar

StartChar: mu
Encoding: 181 181 138
AltUni2: 0003bc.ffffffff.0
Width: 1362
GlyphClass: 2
Flags: W
LayerCount: 2
Fore
SplineSet
414 -502 m 1,0,1
 189 -442 189 -442 189 -71 c 2,2,-1
 189 1157 l 1,3,-1
 361 1171 l 1,4,-1
 361 373 l 2,5,6
 361 186 361 186 470 147 c 0,7,8
 580 108 580 108 750 180 c 1,9,10
 856 226 856 226 937 294 c 1,11,12
 932 396 932 396 932 519 c 2,13,-1
 932 1157 l 1,14,-1
 1104 1171 l 1,15,-1
 1104 259 l 2,16,17
 1104 172 1104 172 1113 149 c 0,18,19
 1128 110 1128 110 1163 110 c 128,-1,20
 1198 110 1198 110 1221 115 c 1,21,-1
 1233 -9 l 1,22,23
 1200 -20 1200 -20 1128 -20 c 128,-1,24
 1056 -20 1056 -20 1005.5 30 c 128,-1,25
 955 80 955 80 946 162 c 1,26,-1
 946 169 l 1,27,28
 944 167 944 167 941.5 164 c 128,-1,29
 939 161 939 161 920 143.5 c 128,-1,30
 901 126 901 126 856.5 94 c 128,-1,31
 812 62 812 62 761 36 c 0,32,33
 648 -20 648 -20 539.5 -20 c 128,-1,34
 431 -20 431 -20 349 58 c 1,35,-1
 349 -84 l 2,36,37
 349 -249 349 -249 416 -330 c 0,38,39
 440 -359 440 -359 476 -371 c 1,40,-1
 414 -502 l 1,0,1
EndSplineSet
EndChar

StartChar: paragraph
Encoding: 182 182 139
Width: 1196
GlyphClass: 2
Flags: W
LayerCount: 2
Fore
SplineSet
688 1559 m 0,0,1
 819 1559 819 1559 1020 1506 c 1,2,-1
 1020 -155 l 1,3,-1
 888 -155 l 1,4,-1
 888 1398 l 1,5,6
 814 1416 814 1416 761 1414 c 1,7,-1
 761 -155 l 1,8,-1
 628 -155 l 1,9,-1
 628 685 l 1,10,11
 396 683 396 683 283 788.5 c 128,-1,12
 170 894 170 894 166 1109 c 1,13,14
 170 1348 170 1348 314 1462 c 0,15,16
 437 1559 437 1559 688 1559 c 0,0,1
EndSplineSet
EndChar

StartChar: periodcentered
Encoding: 183 183 140
Width: 682
GlyphClass: 2
Flags: W
LayerCount: 2
Fore
SplineSet
245 972 m 1,0,-1
 437 972 l 1,1,-1
 437 764 l 1,2,-1
 245 764 l 1,3,-1
 245 972 l 1,0,-1
EndSplineSet
EndChar

StartChar: cedilla
Encoding: 184 184 141
Width: 455
GlyphClass: 2
Flags: W
LayerCount: 2
Fore
SplineSet
28 -391 m 1,0,1
 113 -413 113 -413 160 -413 c 0,2,3
 268 -413 268 -413 287 -322 c 0,4,5
 290 -307 290 -307 290 -283.5 c 128,-1,6
 290 -260 290 -260 275 -240 c 128,-1,7
 260 -220 260 -220 236 -208 c 0,8,9
 199 -191 199 -191 120 -188 c 1,10,-1
 128 -71 l 1,11,12
 356 -61 356 -61 427 -200 c 0,13,14
 451 -247 451 -247 446.5 -307.5 c 128,-1,15
 442 -368 442 -368 417.5 -409 c 128,-1,16
 393 -450 393 -450 355 -477 c 0,17,18
 280 -530 280 -530 179.5 -530 c 128,-1,19
 79 -530 79 -530 7 -493 c 1,20,-1
 7 -490 l 1,21,-1
 28 -391 l 1,0,1
EndSplineSet
EndChar

StartChar: onesuperior
Encoding: 185 185 142
Width: 1026
GlyphClass: 2
Flags: W
LayerCount: 2
Fore
SplineSet
524 1196 m 1,0,-1
 524 1298 l 2,1,2
 524 1335 524 1335 528 1387 c 1,3,-1
 316 1387 l 1,4,-1
 319 1530 l 1,5,-1
 680 1530 l 1,6,-1
 683 510 l 1,7,-1
 527 510 l 1,8,-1
 524 1196 l 1,0,-1
EndSplineSet
EndChar

StartChar: ordmasculine
Encoding: 186 186 143
Width: 853
GlyphClass: 2
Flags: W
LayerCount: 2
Fore
SplineSet
424 812 m 0,0,1
 349 812 349 812 286.5 838 c 128,-1,2
 224 864 224 864 179 913 c 0,3,4
 84 1016 84 1016 84 1190 c 0,5,6
 84 1367 84 1367 179 1472 c 0,7,8
 272 1574 272 1574 424 1574 c 0,9,10
 578 1574 578 1574 672 1472 c 0,11,12
 769 1367 769 1367 769 1190 c 0,13,14
 769 1017 769 1017 672 913 c 0,15,16
 579 812 579 812 424 812 c 0,0,1
424 922 m 0,17,18
 473 922 473 922 512 941 c 128,-1,19
 551 960 551 960 578 996 c 0,20,21
 634 1069 634 1069 634 1190 c 0,22,23
 634 1384 634 1384 512 1444 c 0,24,25
 473 1464 473 1464 424.5 1464 c 128,-1,26
 376 1464 376 1464 337.5 1444.5 c 128,-1,27
 299 1425 299 1425 272 1389 c 0,28,29
 217 1314 217 1314 217 1190 c 0,30,31
 217 1070 217 1070 272 996 c 256,32,33
 327 922 327 922 424 922 c 0,17,18
EndSplineSet
EndChar

StartChar: guillemotright
Encoding: 187 187 144
Width: 1366
GlyphClass: 2
Flags: W
LayerCount: 2
Fore
SplineSet
693 581 m 1,0,-1
 316 1060 l 1,1,-1
 221 976 l 1,2,-1
 495 581 l 1,3,-1
 218 185 l 1,4,-1
 316 99 l 1,5,-1
 693 581 l 1,0,-1
830 99 m 1,6,-1
 1208 581 l 1,7,-1
 830 1060 l 1,8,-1
 735 976 l 1,9,-1
 1011 581 l 1,10,-1
 733 185 l 1,11,-1
 830 99 l 1,6,-1
EndSplineSet
EndChar

StartChar: onequarter
Encoding: 188 188 145
Width: 1880
GlyphClass: 2
Flags: W
LayerCount: 2
Fore
SplineSet
1330 1644 m 1,0,-1
 1460 1569 l 1,1,-1
 480 -56 l 1,2,-1
 350 0 l 1,3,-1
 1330 1644 l 1,0,-1
969 259 m 1,4,-1
 1378 850 l 1,5,-1
 1591 850 l 1,6,-1
 1591 241 l 1,7,-1
 1775 241 l 1,8,-1
 1751 102 l 1,9,-1
 1591 102 l 1,10,-1
 1591 -170 l 1,11,-1
 1440 -170 l 1,12,-1
 1440 102 l 1,13,-1
 986 102 l 1,14,-1
 969 259 l 1,4,-1
1440 241 m 1,15,-1
 1440 684 l 1,16,-1
 1145 241 l 1,17,-1
 1440 241 l 1,15,-1
351 1366 m 1,18,-1
 351 1468 l 2,19,20
 351 1505 351 1505 355 1557 c 1,21,-1
 143 1557 l 1,22,-1
 146 1700 l 1,23,-1
 507 1700 l 1,24,-1
 510 680 l 1,25,-1
 354 680 l 1,26,-1
 351 1366 l 1,18,-1
EndSplineSet
EndChar

StartChar: onehalf
Encoding: 189 189 146
Width: 1880
GlyphClass: 2
Flags: W
LayerCount: 2
Fore
SplineSet
1330 1644 m 1,0,-1
 1460 1569 l 1,1,-1
 480 -56 l 1,2,-1
 350 0 l 1,3,-1
 1330 1644 l 1,0,-1
1620 480 m 0,4,5
 1620 680 1620 680 1409 680 c 0,6,7
 1311 680 1311 680 1226 599 c 0,8,9
 1198 573 1198 573 1178 541 c 1,10,-1
 1101 663 l 1,11,12
 1196 817 1196 817 1414 822 c 1,13,14
 1674 825 1674 825 1750 636 c 0,15,16
 1777 571 1777 571 1777 489.5 c 128,-1,17
 1777 408 1777 408 1742 335 c 128,-1,18
 1707 262 1707 262 1650 195 c 0,19,20
 1534 60 1534 60 1370 -26 c 1,21,-1
 1826 -26 l 1,22,-1
 1817 -168 l 1,23,-1
 1140 -168 l 1,24,-1
 1116 -57 l 1,25,-1
 1234 31 l 1,26,27
 1396 144 1396 144 1470 219.5 c 128,-1,28
 1544 295 1544 295 1582 357 c 128,-1,29
 1620 419 1620 419 1620 480 c 0,4,5
351 1366 m 1,30,-1
 351 1468 l 2,31,32
 351 1505 351 1505 355 1557 c 1,33,-1
 143 1557 l 1,34,-1
 146 1700 l 1,35,-1
 507 1700 l 1,36,-1
 510 680 l 1,37,-1
 354 680 l 1,38,-1
 351 1366 l 1,30,-1
EndSplineSet
EndChar

StartChar: threequarters
Encoding: 190 190 147
Width: 1880
GlyphClass: 2
Flags: W
LayerCount: 2
Fore
SplineSet
1330 1644 m 1,0,-1
 1460 1569 l 1,1,-1
 480 -56 l 1,2,-1
 350 0 l 1,3,-1
 1330 1644 l 1,0,-1
969 259 m 1,4,-1
 1378 850 l 1,5,-1
 1591 850 l 1,6,-1
 1591 241 l 1,7,-1
 1775 241 l 1,8,-1
 1751 102 l 1,9,-1
 1591 102 l 1,10,-1
 1591 -170 l 1,11,-1
 1440 -170 l 1,12,-1
 1440 102 l 1,13,-1
 986 102 l 1,14,-1
 969 259 l 1,4,-1
1440 241 m 1,15,-1
 1440 684 l 1,16,-1
 1145 241 l 1,17,-1
 1440 241 l 1,15,-1
343 1576 m 0,18,19
 205 1576 205 1576 127 1519 c 1,20,-1
 61 1636 l 1,21,22
 176 1713 176 1713 318 1713 c 0,23,24
 569 1713 569 1713 644 1572 c 0,25,26
 672 1519 672 1519 672 1461.5 c 128,-1,27
 672 1404 672 1404 663.5 1372.5 c 128,-1,28
 655 1341 655 1341 638 1312 c 0,29,30
 602 1249 602 1249 536 1214 c 1,31,32
 653 1176 653 1176 693 1062 c 0,33,34
 707 1023 707 1023 707 964 c 128,-1,35
 707 905 707 905 678 849.5 c 128,-1,36
 649 794 649 794 594 755 c 0,37,38
 483 675 483 675 285 675 c 0,39,40
 136 675 136 675 43 736 c 1,41,-1
 91 879 l 1,42,43
 191 810 191 810 302.5 810 c 128,-1,44
 414 810 414 810 482.5 857 c 128,-1,45
 551 904 551 904 551 979 c 0,46,47
 551 1059 551 1059 476 1104 c 0,48,49
 409 1145 409 1145 303 1145 c 2,50,-1
 247 1145 l 1,51,-1
 247 1268 l 1,52,-1
 300 1268 l 2,53,54
 379 1268 379 1268 426 1299 c 0,55,56
 516 1357 516 1357 516 1428 c 0,57,58
 516 1576 516 1576 343 1576 c 0,18,19
EndSplineSet
EndChar

StartChar: questiondown
Encoding: 191 191 148
Width: 1196
GlyphClass: 2
Flags: W
LayerCount: 2
Fore
SplineSet
575 1393 m 1,0,-1
 781 1393 l 1,1,-1
 781 1189 l 1,2,-1
 575 1189 l 1,3,-1
 575 1393 l 1,0,-1
966 57 m 1,4,-1
 1024 -95 l 1,5,6
 749 -239 749 -239 460 -178 c 0,7,8
 284 -141 284 -141 210 -14 c 0,9,10
 173 50 173 50 172 129.5 c 128,-1,11
 171 209 171 209 185.5 261 c 128,-1,12
 200 313 200 313 225 358.5 c 128,-1,13
 250 404 250 404 284 448 c 1,14,-1
 436 636 l 2,15,16
 582 818 582 818 589 1004 c 1,17,-1
 772 1004 l 1,18,19
 747 742 747 742 533 495 c 2,20,21
 533 495 533 495 466 418 c 1,22,23
 350 282 350 282 350 164 c 0,24,25
 350 63 350 63 434 10 c 1,26,27
 511 -37 511 -37 651 -37 c 128,-1,28
 791 -37 791 -37 966 57 c 1,4,-1
EndSplineSet
EndChar

StartChar: Agrave
Encoding: 192 192 149
Width: 1537
GlyphClass: 2
Flags: W
LayerCount: 2
Fore
SplineSet
657 1554 m 1,0,-1
 879 1554 l 1,1,-1
 1492 0 l 1,2,-1
 1294 0 l 1,3,-1
 1133 431 l 1,4,-1
 402 431 l 1,5,-1
 243 0 l 1,6,-1
 44 0 l 1,7,-1
 657 1554 l 1,0,-1
1075 574 m 1,8,-1
 916 992 l 2,9,10
 882 1083 882 1083 859 1150 c 2,11,-1
 815 1284 l 2,12,13
 794 1351 794 1351 768 1426 c 1,14,15
 745 1360 745 1360 724 1293 c 2,16,17
 724 1293 724 1293 678 1151 c 1,18,19
 678 1151 678 1151 461 574 c 1,20,-1
 1075 574 l 1,8,-1
788 1615 m 1,21,-1
 448 1897 l 1,22,-1
 561 2020 l 1,23,-1
 881 1717 l 1,24,-1
 788 1615 l 1,21,-1
EndSplineSet
EndChar

StartChar: Aacute
Encoding: 193 193 150
Width: 1537
GlyphClass: 2
Flags: W
LayerCount: 2
Fore
SplineSet
657 1554 m 1,0,-1
 879 1554 l 1,1,-1
 1492 0 l 1,2,-1
 1294 0 l 1,3,-1
 1133 431 l 1,4,-1
 402 431 l 1,5,-1
 243 0 l 1,6,-1
 44 0 l 1,7,-1
 657 1554 l 1,0,-1
1075 574 m 1,8,-1
 916 992 l 2,9,10
 882 1083 882 1083 859 1150 c 2,11,-1
 815 1284 l 2,12,13
 794 1351 794 1351 768 1426 c 1,14,15
 745 1360 745 1360 724 1293 c 2,16,17
 724 1293 724 1293 678 1151 c 1,18,19
 678 1151 678 1151 461 574 c 1,20,-1
 1075 574 l 1,8,-1
788 1615 m 1,21,-1
 695 1717 l 1,22,-1
 1015 2020 l 1,23,-1
 1128 1897 l 1,24,-1
 788 1615 l 1,21,-1
EndSplineSet
EndChar

StartChar: Acircumflex
Encoding: 194 194 151
Width: 1537
GlyphClass: 2
Flags: W
LayerCount: 2
Fore
SplineSet
657 1554 m 1,0,-1
 879 1554 l 1,1,-1
 1492 0 l 1,2,-1
 1294 0 l 1,3,-1
 1133 431 l 1,4,-1
 402 431 l 1,5,-1
 243 0 l 1,6,-1
 44 0 l 1,7,-1
 657 1554 l 1,0,-1
1075 574 m 1,8,-1
 916 992 l 2,9,10
 882 1083 882 1083 859 1150 c 2,11,-1
 815 1284 l 2,12,13
 794 1351 794 1351 768 1426 c 1,14,15
 745 1360 745 1360 724 1293 c 2,16,17
 724 1293 724 1293 678 1151 c 1,18,19
 678 1151 678 1151 461 574 c 1,20,-1
 1075 574 l 1,8,-1
464 1615 m 1,21,-1
 407 1728 l 1,22,-1
 770 1940 l 1,23,-1
 1133 1728 l 1,24,-1
 1076 1615 l 1,25,-1
 770 1776 l 1,26,-1
 464 1615 l 1,21,-1
EndSplineSet
EndChar

StartChar: Atilde
Encoding: 195 195 152
Width: 1537
GlyphClass: 2
Flags: W
LayerCount: 2
Fore
SplineSet
657 1554 m 1,0,-1
 879 1554 l 1,1,-1
 1492 0 l 1,2,-1
 1294 0 l 1,3,-1
 1133 431 l 1,4,-1
 402 431 l 1,5,-1
 243 0 l 1,6,-1
 44 0 l 1,7,-1
 657 1554 l 1,0,-1
1075 574 m 1,8,-1
 916 992 l 2,9,10
 882 1083 882 1083 859 1150 c 2,11,-1
 815 1284 l 2,12,13
 794 1351 794 1351 768 1426 c 1,14,15
 745 1360 745 1360 724 1293 c 2,16,17
 724 1293 724 1293 678 1151 c 1,18,19
 678 1151 678 1151 461 574 c 1,20,-1
 1075 574 l 1,8,-1
408 1769 m 1,21,22
 443 1849 443 1849 500 1898 c 128,-1,23
 557 1947 557 1947 610.5 1952.5 c 128,-1,24
 664 1958 664 1958 702 1942 c 128,-1,25
 740 1926 740 1926 775 1904 c 1,26,27
 775 1904 775 1904 843 1864 c 0,28,29
 956 1796 956 1796 1026 1939 c 1,30,-1
 1130 1878 l 1,31,32
 1095 1797 1095 1797 1038 1750 c 0,33,34
 921 1652 921 1652 762 1755 c 0,35,36
 673 1813 673 1813 637 1813 c 0,37,38
 563 1813 563 1813 512 1709 c 1,39,-1
 408 1769 l 1,21,22
EndSplineSet
EndChar

StartChar: Adieresis
Encoding: 196 196 153
Width: 1537
GlyphClass: 2
Flags: W
LayerCount: 2
Fore
SplineSet
657 1554 m 1,0,-1
 879 1554 l 1,1,-1
 1492 0 l 1,2,-1
 1294 0 l 1,3,-1
 1133 431 l 1,4,-1
 402 431 l 1,5,-1
 243 0 l 1,6,-1
 44 0 l 1,7,-1
 657 1554 l 1,0,-1
1075 574 m 1,8,-1
 916 992 l 2,9,10
 882 1083 882 1083 859 1150 c 2,11,-1
 815 1284 l 2,12,13
 794 1351 794 1351 768 1426 c 1,14,15
 745 1360 745 1360 724 1293 c 2,16,17
 724 1293 724 1293 678 1151 c 1,18,19
 678 1151 678 1151 461 574 c 1,20,-1
 1075 574 l 1,8,-1
874 1926 m 1,21,-1
 1051 1926 l 1,22,-1
 1051 1698 l 1,23,-1
 874 1698 l 1,24,-1
 874 1926 l 1,21,-1
487 1926 m 1,25,-1
 663 1926 l 1,26,-1
 663 1698 l 1,27,-1
 487 1698 l 1,28,-1
 487 1926 l 1,25,-1
EndSplineSet
EndChar

StartChar: Aring
Encoding: 197 197 154
Width: 1537
GlyphClass: 2
Flags: W
LayerCount: 2
Fore
SplineSet
657 1554 m 1,0,-1
 879 1554 l 1,1,-1
 1492 0 l 1,2,-1
 1294 0 l 1,3,-1
 1133 431 l 1,4,-1
 402 431 l 1,5,-1
 243 0 l 1,6,-1
 44 0 l 1,7,-1
 657 1554 l 1,0,-1
1075 574 m 1,8,-1
 916 992 l 2,9,10
 882 1083 882 1083 859 1150 c 2,11,-1
 815 1284 l 2,12,13
 794 1351 794 1351 768 1426 c 1,14,15
 745 1360 745 1360 724 1293 c 2,16,17
 724 1293 724 1293 678 1151 c 1,18,19
 678 1151 678 1151 461 574 c 1,20,-1
 1075 574 l 1,8,-1
767 1589 m 256,21,22
 665 1589 665 1589 598 1644 c 0,23,24
 526 1703 526 1703 526 1801 c 0,25,26
 526 1901 526 1901 598 1962 c 0,27,28
 666 2020 666 2020 767 2020 c 256,29,30
 868 2020 868 2020 936 1962 c 0,31,32
 1008 1901 1008 1901 1008 1801 c 0,33,34
 1008 1703 1008 1703 936 1644 c 0,35,36
 869 1589 869 1589 767 1589 c 256,21,22
767 1682 m 256,37,38
 818 1682 818 1682 852 1710.5 c 128,-1,39
 886 1739 886 1739 886 1801 c 256,40,41
 886 1863 886 1863 852 1895 c 128,-1,42
 818 1927 818 1927 767 1927 c 256,43,44
 716 1927 716 1927 683 1895 c 128,-1,45
 650 1863 650 1863 650 1801 c 256,46,47
 650 1739 650 1739 683 1710.5 c 128,-1,48
 716 1682 716 1682 767 1682 c 256,37,38
EndSplineSet
EndChar

StartChar: AE
Encoding: 198 198 155
Width: 2048
GlyphClass: 2
Flags: W
LayerCount: 2
Fore
SplineSet
677 1554 m 1,0,-1
 1965 1554 l 1,1,-1
 1956 1394 l 1,2,-1
 961 1394 l 1,3,-1
 1165 874 l 1,4,-1
 1870 874 l 1,5,-1
 1870 716 l 1,6,-1
 1225 716 l 1,7,-1
 1452 159 l 1,8,-1
 1975 159 l 1,9,-1
 1984 0 l 1,10,-1
 1313 0 l 1,11,-1
 1154 431 l 1,12,-1
 421 431 l 1,13,-1
 262 0 l 1,14,-1
 63 0 l 1,15,-1
 677 1554 l 1,0,-1
1092 574 m 1,16,-1
 934 992 l 2,17,18
 899 1083 899 1083 876 1150 c 2,19,-1
 832 1284 l 2,20,21
 811 1351 811 1351 785 1426 c 1,22,23
 762 1360 762 1360 741 1293 c 2,24,25
 741 1293 741 1293 695 1151 c 1,26,27
 695 1151 695 1151 478 574 c 1,28,-1
 1092 574 l 1,16,-1
EndSplineSet
EndChar

StartChar: Ccedilla
Encoding: 199 199 156
Width: 1366
GlyphClass: 2
Flags: W
LayerCount: 2
Fore
SplineSet
854 -20 m 0,0,1
 115 -20 115 -20 115 774 c 0,2,3
 115 1419 115 1419 611 1542 c 0,4,5
 718 1568 718 1568 838 1568 c 0,6,7
 1069 1568 1069 1568 1294 1477 c 1,8,-1
 1241 1329 l 1,9,10
 1033 1411 1033 1411 875 1411 c 128,-1,11
 717 1411 717 1411 614.5 1379.5 c 128,-1,12
 512 1348 512 1348 439 1269 c 0,13,14
 300 1119 300 1119 294 774 c 1,15,16
 300 456 300 456 428 302 c 1,17,18
 566 139 566 139 857 139 c 0,19,20
 1057 139 1057 139 1280 232 c 1,21,-1
 1333 81 l 1,22,23
 1097 -20 1097 -20 854 -20 c 0,0,1
525 -391 m 1,24,25
 610 -413 610 -413 657 -413 c 0,26,27
 765 -413 765 -413 784 -322 c 0,28,29
 787 -307 787 -307 787 -283.5 c 128,-1,30
 787 -260 787 -260 772 -240 c 128,-1,31
 757 -220 757 -220 733 -208 c 0,32,33
 696 -191 696 -191 617 -188 c 1,34,-1
 625 -71 l 1,35,36
 853 -61 853 -61 924 -200 c 0,37,38
 948 -247 948 -247 943.5 -307.5 c 128,-1,39
 939 -368 939 -368 914.5 -409 c 128,-1,40
 890 -450 890 -450 852 -477 c 0,41,42
 777 -530 777 -530 676.5 -530 c 128,-1,43
 576 -530 576 -530 504 -493 c 1,44,-1
 504 -490 l 1,45,-1
 525 -391 l 1,24,25
EndSplineSet
EndChar

StartChar: Egrave
Encoding: 200 200 157
Width: 1196
GlyphClass: 2
Flags: W
LayerCount: 2
Fore
SplineSet
220 1554 m 1,0,-1
 1107 1554 l 1,1,-1
 1098 1394 l 1,2,-1
 393 1394 l 1,3,-1
 393 874 l 1,4,-1
 1024 874 l 1,5,-1
 1024 716 l 1,6,-1
 393 716 l 1,7,-1
 393 159 l 1,8,-1
 1117 159 l 1,9,-1
 1126 0 l 1,10,-1
 220 0 l 1,11,-1
 220 1554 l 1,0,-1
703 1615 m 1,12,-1
 363 1897 l 1,13,-1
 476 2020 l 1,14,-1
 796 1717 l 1,15,-1
 703 1615 l 1,12,-1
EndSplineSet
EndChar

StartChar: Eacute
Encoding: 201 201 158
Width: 1196
GlyphClass: 2
Flags: W
LayerCount: 2
Fore
SplineSet
220 1554 m 1,0,-1
 1107 1554 l 1,1,-1
 1098 1394 l 1,2,-1
 393 1394 l 1,3,-1
 393 874 l 1,4,-1
 1024 874 l 1,5,-1
 1024 716 l 1,6,-1
 393 716 l 1,7,-1
 393 159 l 1,8,-1
 1117 159 l 1,9,-1
 1126 0 l 1,10,-1
 220 0 l 1,11,-1
 220 1554 l 1,0,-1
703 1615 m 1,12,-1
 610 1717 l 1,13,-1
 930 2020 l 1,14,-1
 1043 1897 l 1,15,-1
 703 1615 l 1,12,-1
EndSplineSet
EndChar

StartChar: Ecircumflex
Encoding: 202 202 159
Width: 1196
GlyphClass: 2
Flags: W
LayerCount: 2
Fore
SplineSet
220 1554 m 1,0,-1
 1107 1554 l 1,1,-1
 1098 1394 l 1,2,-1
 393 1394 l 1,3,-1
 393 874 l 1,4,-1
 1024 874 l 1,5,-1
 1024 716 l 1,6,-1
 393 716 l 1,7,-1
 393 159 l 1,8,-1
 1117 159 l 1,9,-1
 1126 0 l 1,10,-1
 220 0 l 1,11,-1
 220 1554 l 1,0,-1
379 1615 m 1,12,-1
 322 1728 l 1,13,-1
 685 1940 l 1,14,-1
 1048 1728 l 1,15,-1
 991 1615 l 1,16,-1
 685 1776 l 1,17,-1
 379 1615 l 1,12,-1
EndSplineSet
EndChar

StartChar: Edieresis
Encoding: 203 203 160
Width: 1196
GlyphClass: 2
Flags: W
LayerCount: 2
Fore
SplineSet
220 1554 m 1,0,-1
 1107 1554 l 1,1,-1
 1098 1394 l 1,2,-1
 393 1394 l 1,3,-1
 393 874 l 1,4,-1
 1024 874 l 1,5,-1
 1024 716 l 1,6,-1
 393 716 l 1,7,-1
 393 159 l 1,8,-1
 1117 159 l 1,9,-1
 1126 0 l 1,10,-1
 220 0 l 1,11,-1
 220 1554 l 1,0,-1
789 1926 m 1,12,-1
 966 1926 l 1,13,-1
 966 1698 l 1,14,-1
 789 1698 l 1,15,-1
 789 1926 l 1,12,-1
402 1926 m 1,16,-1
 578 1926 l 1,17,-1
 578 1698 l 1,18,-1
 402 1698 l 1,19,-1
 402 1926 l 1,16,-1
EndSplineSet
EndChar

StartChar: Igrave
Encoding: 204 204 161
Width: 513
GlyphClass: 2
Flags: W
LayerCount: 2
Fore
SplineSet
170 1554 m 1,0,-1
 343 1554 l 1,1,-1
 343 0 l 1,2,-1
 170 0 l 1,3,-1
 170 1554 l 1,0,-1
276 1615 m 1,4,-1
 -64 1897 l 1,5,-1
 49 2020 l 1,6,-1
 369 1717 l 1,7,-1
 276 1615 l 1,4,-1
EndSplineSet
EndChar

StartChar: Iacute
Encoding: 205 205 162
Width: 513
GlyphClass: 2
Flags: W
LayerCount: 2
Fore
SplineSet
170 1554 m 1,0,-1
 343 1554 l 1,1,-1
 343 0 l 1,2,-1
 170 0 l 1,3,-1
 170 1554 l 1,0,-1
276 1615 m 1,4,-1
 183 1717 l 1,5,-1
 503 2020 l 1,6,-1
 616 1897 l 1,7,-1
 276 1615 l 1,4,-1
EndSplineSet
EndChar

StartChar: Icircumflex
Encoding: 206 206 163
Width: 513
GlyphClass: 2
Flags: W
LayerCount: 2
Fore
SplineSet
170 1554 m 1,0,-1
 343 1554 l 1,1,-1
 343 0 l 1,2,-1
 170 0 l 1,3,-1
 170 1554 l 1,0,-1
-48 1615 m 1,4,-1
 -105 1728 l 1,5,-1
 258 1940 l 1,6,-1
 621 1728 l 1,7,-1
 564 1615 l 1,8,-1
 258 1776 l 1,9,-1
 -48 1615 l 1,4,-1
EndSplineSet
EndChar

StartChar: Idieresis
Encoding: 207 207 164
Width: 513
GlyphClass: 2
Flags: W
LayerCount: 2
Fore
SplineSet
170 1554 m 1,0,-1
 343 1554 l 1,1,-1
 343 0 l 1,2,-1
 170 0 l 1,3,-1
 170 1554 l 1,0,-1
363 1926 m 1,4,-1
 540 1926 l 1,5,-1
 540 1698 l 1,6,-1
 363 1698 l 1,7,-1
 363 1926 l 1,4,-1
-24 1926 m 1,8,-1
 152 1926 l 1,9,-1
 152 1698 l 1,10,-1
 -24 1698 l 1,11,-1
 -24 1926 l 1,8,-1
EndSplineSet
EndChar

StartChar: Eth
Encoding: 208 208 165
Width: 1541
GlyphClass: 2
Flags: W
LayerCount: 2
Fore
SplineSet
220 0 m 1,0,-1
 220 733 l 1,1,-1
 26 733 l 1,2,-1
 26 886 l 1,3,-1
 220 886 l 1,4,-1
 220 1554 l 1,5,-1
 702 1554 l 2,6,7
 1275 1554 1275 1554 1394 1099 c 0,8,9
 1431 955 1431 955 1431 776 c 2,10,-1
 1431 735 l 2,11,12
 1431 384 1431 384 1240 193 c 0,13,14
 1047 0 1047 0 694 0 c 2,15,-1
 220 0 l 1,0,-1
393 157 m 1,16,-1
 694 157 l 2,17,18
 965 157 965 157 1111 316 c 0,19,20
 1252 469 1252 469 1252 735 c 2,21,-1
 1252 776 l 1,22,23
 1246 1095 1246 1095 1120 1242 c 0,24,25
 988 1396 988 1396 698 1396 c 2,26,-1
 393 1396 l 1,27,-1
 393 886 l 1,28,-1
 801 886 l 1,29,-1
 801 733 l 1,30,-1
 393 733 l 1,31,-1
 393 157 l 1,16,-1
EndSplineSet
EndChar

StartChar: Ntilde
Encoding: 209 209 166
Width: 1536
GlyphClass: 2
Flags: W
LayerCount: 2
Fore
SplineSet
165 1554 m 1,0,-1
 422 1554 l 1,1,-1
 1075 407 l 1,2,-1
 1197 163 l 1,3,-1
 1197 1554 l 1,4,-1
 1370 1554 l 1,5,-1
 1370 0 l 1,6,-1
 1116 0 l 1,7,-1
 458 1153 l 1,8,-1
 338 1390 l 1,9,-1
 338 0 l 1,10,-1
 165 0 l 1,11,-1
 165 1554 l 1,0,-1
407 1769 m 1,12,13
 442 1849 442 1849 499 1898 c 128,-1,14
 556 1947 556 1947 609.5 1952.5 c 128,-1,15
 663 1958 663 1958 701 1942 c 128,-1,16
 739 1926 739 1926 774 1904 c 1,17,18
 774 1904 774 1904 842 1864 c 0,19,20
 955 1796 955 1796 1025 1939 c 1,21,-1
 1129 1878 l 1,22,23
 1094 1797 1094 1797 1037 1750 c 0,24,25
 920 1652 920 1652 761 1755 c 0,26,27
 672 1813 672 1813 636 1813 c 0,28,29
 562 1813 562 1813 511 1709 c 1,30,-1
 407 1769 l 1,12,13
EndSplineSet
EndChar

StartChar: Ograve
Encoding: 210 210 167
Width: 1708
GlyphClass: 2
Flags: W
LayerCount: 2
Fore
SplineSet
134 770 m 0,0,1
 134 959 134 959 187.5 1107 c 128,-1,2
 241 1255 241 1255 338 1358 c 0,3,4
 537 1568 537 1568 864 1568 c 0,5,6
 1209 1568 1209 1568 1392 1358 c 0,7,8
 1573 1151 1573 1151 1573 770 c 0,9,10
 1573 399 1573 399 1369 187 c 0,11,12
 1170 -20 1170 -20 842 -20 c 0,13,14
 513 -20 513 -20 324 187 c 0,15,16
 134 396 134 396 134 770 c 0,0,1
312 768 m 0,17,18
 311 613 311 613 348 493.5 c 128,-1,19
 385 374 385 374 456 294 c 0,20,21
 599 133 599 133 856 137 c 1,22,23
 1109 139 1109 139 1252 302 c 0,24,25
 1400 471 1400 471 1396 781 c 0,26,27
 1388 1411 1388 1411 842 1411 c 0,28,29
 593 1411 593 1411 454 1243 c 0,30,31
 314 1074 314 1074 312 768 c 0,17,18
874 1615 m 1,32,-1
 534 1897 l 1,33,-1
 647 2020 l 1,34,-1
 967 1717 l 1,35,-1
 874 1615 l 1,32,-1
EndSplineSet
EndChar

StartChar: Oacute
Encoding: 211 211 168
Width: 1708
GlyphClass: 2
Flags: W
LayerCount: 2
Fore
SplineSet
134 770 m 0,0,1
 134 959 134 959 187.5 1107 c 128,-1,2
 241 1255 241 1255 338 1358 c 0,3,4
 537 1568 537 1568 864 1568 c 0,5,6
 1209 1568 1209 1568 1392 1358 c 0,7,8
 1573 1151 1573 1151 1573 770 c 0,9,10
 1573 399 1573 399 1369 187 c 0,11,12
 1170 -20 1170 -20 842 -20 c 0,13,14
 513 -20 513 -20 324 187 c 0,15,16
 134 396 134 396 134 770 c 0,0,1
312 768 m 0,17,18
 311 613 311 613 348 493.5 c 128,-1,19
 385 374 385 374 456 294 c 0,20,21
 599 133 599 133 856 137 c 1,22,23
 1109 139 1109 139 1252 302 c 0,24,25
 1400 471 1400 471 1396 781 c 0,26,27
 1388 1411 1388 1411 842 1411 c 0,28,29
 593 1411 593 1411 454 1243 c 0,30,31
 314 1074 314 1074 312 768 c 0,17,18
874 1615 m 1,32,-1
 781 1717 l 1,33,-1
 1101 2020 l 1,34,-1
 1214 1897 l 1,35,-1
 874 1615 l 1,32,-1
EndSplineSet
EndChar

StartChar: Ocircumflex
Encoding: 212 212 169
Width: 1708
GlyphClass: 2
Flags: W
LayerCount: 2
Fore
SplineSet
134 770 m 0,0,1
 134 959 134 959 187.5 1107 c 128,-1,2
 241 1255 241 1255 338 1358 c 0,3,4
 537 1568 537 1568 864 1568 c 0,5,6
 1209 1568 1209 1568 1392 1358 c 0,7,8
 1573 1151 1573 1151 1573 770 c 0,9,10
 1573 399 1573 399 1369 187 c 0,11,12
 1170 -20 1170 -20 842 -20 c 0,13,14
 513 -20 513 -20 324 187 c 0,15,16
 134 396 134 396 134 770 c 0,0,1
312 768 m 0,17,18
 311 613 311 613 348 493.5 c 128,-1,19
 385 374 385 374 456 294 c 0,20,21
 599 133 599 133 856 137 c 1,22,23
 1109 139 1109 139 1252 302 c 0,24,25
 1400 471 1400 471 1396 781 c 0,26,27
 1388 1411 1388 1411 842 1411 c 0,28,29
 593 1411 593 1411 454 1243 c 0,30,31
 314 1074 314 1074 312 768 c 0,17,18
550 1615 m 1,32,-1
 493 1728 l 1,33,-1
 856 1940 l 1,34,-1
 1219 1728 l 1,35,-1
 1162 1615 l 1,36,-1
 856 1776 l 1,37,-1
 550 1615 l 1,32,-1
EndSplineSet
EndChar

StartChar: Otilde
Encoding: 213 213 170
Width: 1708
GlyphClass: 2
Flags: W
LayerCount: 2
Fore
SplineSet
134 770 m 0,0,1
 134 959 134 959 187.5 1107 c 128,-1,2
 241 1255 241 1255 338 1358 c 0,3,4
 537 1568 537 1568 864 1568 c 0,5,6
 1209 1568 1209 1568 1392 1358 c 0,7,8
 1573 1151 1573 1151 1573 770 c 0,9,10
 1573 399 1573 399 1369 187 c 0,11,12
 1170 -20 1170 -20 842 -20 c 0,13,14
 513 -20 513 -20 324 187 c 0,15,16
 134 396 134 396 134 770 c 0,0,1
312 768 m 0,17,18
 311 613 311 613 348 493.5 c 128,-1,19
 385 374 385 374 456 294 c 0,20,21
 599 133 599 133 856 137 c 1,22,23
 1109 139 1109 139 1252 302 c 0,24,25
 1400 471 1400 471 1396 781 c 0,26,27
 1388 1411 1388 1411 842 1411 c 0,28,29
 593 1411 593 1411 454 1243 c 0,30,31
 314 1074 314 1074 312 768 c 0,17,18
494 1769 m 1,32,33
 529 1849 529 1849 586 1898 c 128,-1,34
 643 1947 643 1947 696.5 1952.5 c 128,-1,35
 750 1958 750 1958 788 1942 c 128,-1,36
 826 1926 826 1926 861 1904 c 1,37,38
 861 1904 861 1904 929 1864 c 0,39,40
 1042 1796 1042 1796 1112 1939 c 1,41,-1
 1216 1878 l 1,42,43
 1181 1797 1181 1797 1124 1750 c 0,44,45
 1007 1652 1007 1652 848 1755 c 0,46,47
 759 1813 759 1813 723 1813 c 0,48,49
 649 1813 649 1813 598 1709 c 1,50,-1
 494 1769 l 1,32,33
EndSplineSet
EndChar

StartChar: Odieresis
Encoding: 214 214 171
Width: 1708
GlyphClass: 2
Flags: W
LayerCount: 2
Fore
SplineSet
134 770 m 0,0,1
 134 959 134 959 187.5 1107 c 128,-1,2
 241 1255 241 1255 338 1358 c 0,3,4
 537 1568 537 1568 864 1568 c 0,5,6
 1209 1568 1209 1568 1392 1358 c 0,7,8
 1573 1151 1573 1151 1573 770 c 0,9,10
 1573 399 1573 399 1369 187 c 0,11,12
 1170 -20 1170 -20 842 -20 c 0,13,14
 513 -20 513 -20 324 187 c 0,15,16
 134 396 134 396 134 770 c 0,0,1
312 768 m 0,17,18
 311 613 311 613 348 493.5 c 128,-1,19
 385 374 385 374 456 294 c 0,20,21
 599 133 599 133 856 137 c 1,22,23
 1109 139 1109 139 1252 302 c 0,24,25
 1400 471 1400 471 1396 781 c 0,26,27
 1388 1411 1388 1411 842 1411 c 0,28,29
 593 1411 593 1411 454 1243 c 0,30,31
 314 1074 314 1074 312 768 c 0,17,18
960 1926 m 1,32,-1
 1137 1926 l 1,33,-1
 1137 1698 l 1,34,-1
 960 1698 l 1,35,-1
 960 1926 l 1,32,-1
573 1926 m 1,36,-1
 749 1926 l 1,37,-1
 749 1698 l 1,38,-1
 573 1698 l 1,39,-1
 573 1926 l 1,36,-1
EndSplineSet
EndChar

StartChar: multiply
Encoding: 215 215 172
Width: 1196
GlyphClass: 2
Flags: W
LayerCount: 2
Fore
SplineSet
203 354 m 1,0,1
 203 354 203 354 563 745 c 1,2,-1
 203 1137 l 1,3,-1
 307 1234 l 1,4,-1
 647 842 l 1,5,-1
 988 1234 l 1,6,-1
 1093 1137 l 1,7,-1
 733 745 l 1,8,9
 1048 406 1048 406 1093 354 c 1,10,-1
 988 257 l 1,11,-1
 647 650 l 1,12,-1
 307 257 l 1,13,-1
 203 354 l 1,0,1
EndSplineSet
EndChar

StartChar: Oslash
Encoding: 216 216 173
Width: 1708
GlyphClass: 2
Flags: W
LayerCount: 2
Fore
SplineSet
1207 1497 m 1,0,1
 1573 1322 1573 1322 1573 770 c 0,2,3
 1573 399 1573 399 1369 187 c 0,4,5
 1170 -20 1170 -20 842 -20 c 0,6,7
 721 -20 721 -20 616 9 c 1,8,-1
 568 -113 l 1,9,-1
 428 -57 l 1,10,-1
 477 66 l 1,11,12
 312 157 312 157 223 335 c 128,-1,13
 134 513 134 513 134 770 c 0,14,15
 134 1142 134 1142 338 1358 c 0,16,17
 537 1568 537 1568 864 1568 c 0,18,19
 972 1568 972 1568 1064 1547 c 1,20,-1
 1139 1734 l 1,21,-1
 1279 1678 l 1,22,-1
 1207 1497 l 1,0,1
1004 1394 m 1,23,24
 928 1411 928 1411 823 1411 c 128,-1,25
 718 1411 718 1411 620 1368 c 128,-1,26
 522 1325 522 1325 454 1243 c 0,27,28
 314 1074 314 1074 312 770 c 1,29,30
 308 378 308 378 538 221 c 1,31,-1
 1004 1394 l 1,23,24
675 158 m 1,32,33
 758 135 758 135 869.5 136.5 c 128,-1,34
 981 138 981 138 1081.5 180 c 128,-1,35
 1182 222 1182 222 1252 302 c 0,36,37
 1400 471 1400 471 1396 770 c 0,38,39
 1390 1201 1390 1201 1145 1341 c 1,40,-1
 675 158 l 1,32,33
EndSplineSet
EndChar

StartChar: Ugrave
Encoding: 217 217 174
Width: 1537
GlyphClass: 2
Flags: W
LayerCount: 2
Fore
SplineSet
196 1554 m 1,0,-1
 369 1554 l 1,1,-1
 369 696 l 2,2,3
 369 532 369 532 383 456.5 c 128,-1,4
 397 381 397 381 421.5 325.5 c 128,-1,5
 446 270 446 270 490 228 c 0,6,7
 586 139 586 139 768 139 c 0,8,9
 1031 139 1031 139 1114 326 c 0,10,11
 1159 429 1159 429 1163 532 c 128,-1,12
 1167 635 1167 635 1167 696 c 2,13,-1
 1167 1554 l 1,14,-1
 1341 1554 l 1,15,-1
 1341 696 l 2,16,17
 1341 481 1341 481 1319 384 c 128,-1,18
 1297 287 1297 287 1261 216.5 c 128,-1,19
 1225 146 1225 146 1161 94 c 0,20,21
 1023 -20 1023 -20 768 -20 c 0,22,23
 394 -20 394 -20 274 216 c 1,24,25
 209 347 209 347 200 530 c 0,26,27
 196 615 196 615 196 696 c 2,28,-1
 196 1554 l 1,0,-1
788 1615 m 1,29,-1
 448 1897 l 1,30,-1
 561 2020 l 1,31,-1
 881 1717 l 1,32,-1
 788 1615 l 1,29,-1
EndSplineSet
EndChar

StartChar: Uacute
Encoding: 218 218 175
Width: 1537
GlyphClass: 2
Flags: W
LayerCount: 2
Fore
SplineSet
196 1554 m 1,0,-1
 369 1554 l 1,1,-1
 369 696 l 2,2,3
 369 532 369 532 383 456.5 c 128,-1,4
 397 381 397 381 421.5 325.5 c 128,-1,5
 446 270 446 270 490 228 c 0,6,7
 586 139 586 139 768 139 c 0,8,9
 1031 139 1031 139 1114 326 c 0,10,11
 1159 429 1159 429 1163 532 c 128,-1,12
 1167 635 1167 635 1167 696 c 2,13,-1
 1167 1554 l 1,14,-1
 1341 1554 l 1,15,-1
 1341 696 l 2,16,17
 1341 481 1341 481 1319 384 c 128,-1,18
 1297 287 1297 287 1261 216.5 c 128,-1,19
 1225 146 1225 146 1161 94 c 0,20,21
 1023 -20 1023 -20 768 -20 c 0,22,23
 394 -20 394 -20 274 216 c 1,24,25
 209 347 209 347 200 530 c 0,26,27
 196 615 196 615 196 696 c 2,28,-1
 196 1554 l 1,0,-1
788 1615 m 1,29,-1
 695 1717 l 1,30,-1
 1015 2020 l 1,31,-1
 1128 1897 l 1,32,-1
 788 1615 l 1,29,-1
EndSplineSet
EndChar

StartChar: Ucircumflex
Encoding: 219 219 176
Width: 1537
GlyphClass: 2
Flags: W
LayerCount: 2
Fore
SplineSet
196 1554 m 1,0,-1
 369 1554 l 1,1,-1
 369 696 l 2,2,3
 369 532 369 532 383 456.5 c 128,-1,4
 397 381 397 381 421.5 325.5 c 128,-1,5
 446 270 446 270 490 228 c 0,6,7
 586 139 586 139 768 139 c 0,8,9
 1031 139 1031 139 1114 326 c 0,10,11
 1159 429 1159 429 1163 532 c 128,-1,12
 1167 635 1167 635 1167 696 c 2,13,-1
 1167 1554 l 1,14,-1
 1341 1554 l 1,15,-1
 1341 696 l 2,16,17
 1341 481 1341 481 1319 384 c 128,-1,18
 1297 287 1297 287 1261 216.5 c 128,-1,19
 1225 146 1225 146 1161 94 c 0,20,21
 1023 -20 1023 -20 768 -20 c 0,22,23
 394 -20 394 -20 274 216 c 1,24,25
 209 347 209 347 200 530 c 0,26,27
 196 615 196 615 196 696 c 2,28,-1
 196 1554 l 1,0,-1
464 1615 m 1,29,-1
 407 1728 l 1,30,-1
 770 1940 l 1,31,-1
 1133 1728 l 1,32,-1
 1076 1615 l 1,33,-1
 770 1776 l 1,34,-1
 464 1615 l 1,29,-1
EndSplineSet
EndChar

StartChar: Udieresis
Encoding: 220 220 177
Width: 1537
GlyphClass: 2
Flags: W
LayerCount: 2
Fore
SplineSet
196 1554 m 1,0,-1
 369 1554 l 1,1,-1
 369 696 l 2,2,3
 369 532 369 532 383 456.5 c 128,-1,4
 397 381 397 381 421.5 325.5 c 128,-1,5
 446 270 446 270 490 228 c 0,6,7
 586 139 586 139 768 139 c 0,8,9
 1031 139 1031 139 1114 326 c 0,10,11
 1159 429 1159 429 1163 532 c 128,-1,12
 1167 635 1167 635 1167 696 c 2,13,-1
 1167 1554 l 1,14,-1
 1341 1554 l 1,15,-1
 1341 696 l 2,16,17
 1341 481 1341 481 1319 384 c 128,-1,18
 1297 287 1297 287 1261 216.5 c 128,-1,19
 1225 146 1225 146 1161 94 c 0,20,21
 1023 -20 1023 -20 768 -20 c 0,22,23
 394 -20 394 -20 274 216 c 1,24,25
 209 347 209 347 200 530 c 0,26,27
 196 615 196 615 196 696 c 2,28,-1
 196 1554 l 1,0,-1
874 1926 m 1,29,-1
 1051 1926 l 1,30,-1
 1051 1698 l 1,31,-1
 874 1698 l 1,32,-1
 874 1926 l 1,29,-1
487 1926 m 1,33,-1
 663 1926 l 1,34,-1
 663 1698 l 1,35,-1
 487 1698 l 1,36,-1
 487 1926 l 1,33,-1
EndSplineSet
EndChar

StartChar: Yacute
Encoding: 221 221 178
Width: 1196
GlyphClass: 2
Flags: W
LayerCount: 2
Fore
SplineSet
510 567 m 1,0,1
 442 682 442 682 376 808 c 0,2,3
 51 1432 51 1432 -20 1554 c 1,4,-1
 184 1554 l 1,5,-1
 598 731 l 1,6,-1
 1012 1554 l 1,7,-1
 1216 1554 l 1,8,-1
 684 567 l 1,9,-1
 684 0 l 1,10,-1
 510 0 l 1,11,-1
 510 567 l 1,0,1
618 1615 m 1,12,-1
 525 1717 l 1,13,-1
 845 2020 l 1,14,-1
 958 1897 l 1,15,-1
 618 1615 l 1,12,-1
EndSplineSet
EndChar

StartChar: Thorn
Encoding: 222 222 179
Width: 1363
GlyphClass: 2
Flags: W
LayerCount: 2
Fore
SplineSet
672 424 m 1,0,1
 1066 420 1066 420 1074 773 c 1,2,3
 1072 958 1072 958 978 1046 c 0,4,5
 877 1141 877 1141 661 1139 c 1,6,-1
 381 1139 l 1,7,-1
 381 0 l 1,8,-1
 208 0 l 1,9,-1
 208 1554 l 1,10,-1
 381 1554 l 1,11,-1
 381 1292 l 1,12,-1
 661 1292 l 1,13,14
 1126 1295 1126 1295 1220 991 c 0,15,16
 1250 894 1250 894 1251 773 c 1,17,18
 1238 266 1238 266 672 273 c 1,19,-1
 491 273 l 1,20,-1
 491 424 l 1,21,-1
 672 424 l 1,0,1
EndSplineSet
EndChar

StartChar: germandbls
Encoding: 223 223 180
Width: 1196
GlyphClass: 2
Flags: W
LayerCount: 2
Fore
SplineSet
369 1325 m 128,-1,1
 364 1273 364 1273 364 691.5 c 128,-1,2
 364 110 364 110 375 0 c 1,3,-1
 197 0 l 1,4,5
 195 36 195 36 194 177 c 2,6,-1
 192 831 l 1,7,-1
 192 1212 l 2,8,9
 192 1348 192 1348 205 1403.5 c 128,-1,10
 218 1459 218 1459 240 1499.5 c 128,-1,11
 262 1540 262 1540 300 1570 c 0,12,13
 383 1634 383 1634 538 1634 c 0,14,15
 678 1634 678 1634 768 1542 c 0,16,17
 857 1451 857 1451 857 1319 c 0,18,19
 857 1231 857 1231 818 1158 c 1,20,-1
 787 1098 l 2,21,22
 748 1023 748 1023 748 981 c 128,-1,23
 748 939 748 939 760 914 c 128,-1,24
 772 889 772 889 792 866.5 c 128,-1,25
 812 844 812 844 838 822 c 2,26,-1
 890 777 l 2,27,28
 921 750 921 750 953 726 c 128,-1,29
 985 702 985 702 1015 676.5 c 128,-1,30
 1045 651 1045 651 1071 622.5 c 128,-1,31
 1097 594 1097 594 1116 558 c 0,32,33
 1159 481 1159 481 1159 380 c 128,-1,34
 1159 279 1159 279 1127.5 204.5 c 128,-1,35
 1096 130 1096 130 1041 80 c 0,36,37
 931 -20 931 -20 748 -20 c 0,38,39
 645 -20 645 -20 495 7 c 1,40,-1
 507 155 l 1,41,42
 670 122 670 122 738.5 124 c 128,-1,43
 807 126 807 126 847.5 143 c 128,-1,44
 888 160 888 160 918 192 c 0,45,46
 981 262 981 262 981 377 c 0,47,48
 981 481 981 481 914 554 c 0,49,50
 884 586 884 586 846.5 614.5 c 128,-1,51
 809 643 809 643 770 677 c 2,52,-1
 698 742 l 1,53,54
 587 845 587 845 587 960 c 0,55,56
 587 999 587 999 597.5 1039 c 128,-1,57
 608 1079 608 1079 622 1108 c 2,58,-1
 648 1166 l 2,59,60
 690 1258 690 1258 690 1320 c 128,-1,61
 690 1382 690 1382 674.5 1412 c 128,-1,62
 659 1442 659 1442 636 1459 c 0,63,64
 597 1488 597 1488 538 1488 c 128,-1,65
 479 1488 479 1488 444.5 1468.5 c 128,-1,66
 410 1449 410 1449 392 1413 c 128,-1,0
 374 1377 374 1377 369 1325 c 128,-1,1
EndSplineSet
EndChar

StartChar: agrave
Encoding: 224 224 181
Width: 1196
GlyphClass: 2
Flags: W
LayerCount: 2
Fore
SplineSet
1061 -9 m 1,0,1
 1028 -20 1028 -20 979 -20 c 128,-1,2
 930 -20 930 -20 898.5 -9 c 128,-1,3
 867 2 867 2 844 22 c 0,4,5
 799 60 799 60 786 123 c 1,6,7
 732 40 732 40 592 -3 c 0,8,9
 466 -42 466 -42 338 2 c 1,10,11
 200 48 200 48 139 171 c 0,12,13
 108 233 108 233 108 307.5 c 128,-1,14
 108 382 108 382 137 433.5 c 128,-1,15
 166 485 166 485 214 518 c 0,16,17
 304 581 304 581 455 594 c 1,18,19
 576 606 576 606 768 611 c 1,20,-1
 768 791 l 2,21,22
 768 918 768 918 753.5 950 c 128,-1,23
 739 982 739 982 719 998 c 0,24,25
 685 1024 685 1024 581 1024 c 1,26,-1
 543 1023 l 1,27,28
 387 1015 387 1015 240 972 c 1,29,-1
 212 1120 l 1,30,31
 387 1171 387 1171 556 1171 c 0,32,33
 797 1171 797 1171 872 1080 c 0,34,35
 917 1025 917 1025 926 945 c 128,-1,36
 935 865 935 865 936 797 c 1,37,-1
 936 226 l 2,38,39
 936 141 936 141 951.5 124.5 c 128,-1,40
 967 108 967 108 987.5 108 c 128,-1,41
 1008 108 1008 108 1050 115 c 1,42,-1
 1061 -9 l 1,0,1
768 366 m 2,43,44
 768 437 768 437 772 497 c 1,45,46
 421 497 421 497 330 430 c 1,47,48
 279 394 279 394 279 318 c 0,49,50
 279 231 279 231 338 176 c 0,51,52
 395 123 395 123 487 123 c 1,53,54
 664 118 664 118 768 234 c 1,55,-1
 768 366 l 2,43,44
707 1296 m 1,56,-1
 307 1641 l 1,57,-1
 420 1764 l 1,58,-1
 799 1398 l 1,59,-1
 707 1296 l 1,56,-1
EndSplineSet
EndChar

StartChar: aacute
Encoding: 225 225 182
Width: 1196
GlyphClass: 2
Flags: W
LayerCount: 2
Fore
SplineSet
1061 -9 m 1,0,1
 1028 -20 1028 -20 979 -20 c 128,-1,2
 930 -20 930 -20 898.5 -9 c 128,-1,3
 867 2 867 2 844 22 c 0,4,5
 799 60 799 60 786 123 c 1,6,7
 732 40 732 40 592 -3 c 0,8,9
 466 -42 466 -42 338 2 c 1,10,11
 200 48 200 48 139 171 c 0,12,13
 108 233 108 233 108 307.5 c 128,-1,14
 108 382 108 382 137 433.5 c 128,-1,15
 166 485 166 485 214 518 c 0,16,17
 304 581 304 581 455 594 c 1,18,19
 576 606 576 606 768 611 c 1,20,-1
 768 791 l 2,21,22
 768 918 768 918 753.5 950 c 128,-1,23
 739 982 739 982 719 998 c 0,24,25
 685 1024 685 1024 581 1024 c 1,26,-1
 543 1023 l 1,27,28
 387 1015 387 1015 240 972 c 1,29,-1
 212 1120 l 1,30,31
 387 1171 387 1171 556 1171 c 0,32,33
 797 1171 797 1171 872 1080 c 0,34,35
 917 1025 917 1025 926 945 c 128,-1,36
 935 865 935 865 936 797 c 1,37,-1
 936 226 l 2,38,39
 936 141 936 141 951.5 124.5 c 128,-1,40
 967 108 967 108 987.5 108 c 128,-1,41
 1008 108 1008 108 1050 115 c 1,42,-1
 1061 -9 l 1,0,1
768 366 m 2,43,44
 768 437 768 437 772 497 c 1,45,46
 421 497 421 497 330 430 c 1,47,48
 279 394 279 394 279 318 c 0,49,50
 279 231 279 231 338 176 c 0,51,52
 395 123 395 123 487 123 c 1,53,54
 664 118 664 118 768 234 c 1,55,-1
 768 366 l 2,43,44
307 1398 m 1,56,-1
 686 1764 l 1,57,-1
 799 1641 l 1,58,-1
 399 1296 l 1,59,-1
 307 1398 l 1,56,-1
EndSplineSet
EndChar

StartChar: acircumflex
Encoding: 226 226 183
Width: 1196
GlyphClass: 2
Flags: W
LayerCount: 2
Fore
SplineSet
1061 -9 m 1,0,1
 1028 -20 1028 -20 979 -20 c 128,-1,2
 930 -20 930 -20 898.5 -9 c 128,-1,3
 867 2 867 2 844 22 c 0,4,5
 799 60 799 60 786 123 c 1,6,7
 732 40 732 40 592 -3 c 0,8,9
 466 -42 466 -42 338 2 c 1,10,11
 200 48 200 48 139 171 c 0,12,13
 108 233 108 233 108 307.5 c 128,-1,14
 108 382 108 382 137 433.5 c 128,-1,15
 166 485 166 485 214 518 c 0,16,17
 304 581 304 581 455 594 c 1,18,19
 576 606 576 606 768 611 c 1,20,-1
 768 791 l 2,21,22
 768 918 768 918 753.5 950 c 128,-1,23
 739 982 739 982 719 998 c 0,24,25
 685 1024 685 1024 581 1024 c 1,26,-1
 543 1023 l 1,27,28
 387 1015 387 1015 240 972 c 1,29,-1
 212 1120 l 1,30,31
 387 1171 387 1171 556 1171 c 0,32,33
 797 1171 797 1171 872 1080 c 0,34,35
 917 1025 917 1025 926 945 c 128,-1,36
 935 865 935 865 936 797 c 1,37,-1
 936 226 l 2,38,39
 936 141 936 141 951.5 124.5 c 128,-1,40
 967 108 967 108 987.5 108 c 128,-1,41
 1008 108 1008 108 1050 115 c 1,42,-1
 1061 -9 l 1,0,1
768 366 m 2,43,44
 768 437 768 437 772 497 c 1,45,46
 421 497 421 497 330 430 c 1,47,48
 279 394 279 394 279 318 c 0,49,50
 279 231 279 231 338 176 c 0,51,52
 395 123 395 123 487 123 c 1,53,54
 664 118 664 118 768 234 c 1,55,-1
 768 366 l 2,43,44
247 1296 m 1,56,-1
 161 1405 l 1,57,-1
 554 1718 l 1,58,-1
 945 1405 l 1,59,-1
 863 1298 l 1,60,-1
 554 1535 l 1,61,-1
 247 1296 l 1,56,-1
EndSplineSet
EndChar

StartChar: atilde
Encoding: 227 227 184
Width: 1196
GlyphClass: 2
Flags: W
LayerCount: 2
Fore
SplineSet
1061 -9 m 1,0,1
 1028 -20 1028 -20 979 -20 c 128,-1,2
 930 -20 930 -20 898.5 -9 c 128,-1,3
 867 2 867 2 844 22 c 0,4,5
 799 60 799 60 786 123 c 1,6,7
 732 40 732 40 592 -3 c 0,8,9
 466 -42 466 -42 338 2 c 1,10,11
 200 48 200 48 139 171 c 0,12,13
 108 233 108 233 108 307.5 c 128,-1,14
 108 382 108 382 137 433.5 c 128,-1,15
 166 485 166 485 214 518 c 0,16,17
 304 581 304 581 455 594 c 1,18,19
 576 606 576 606 768 611 c 1,20,-1
 768 791 l 2,21,22
 768 918 768 918 753.5 950 c 128,-1,23
 739 982 739 982 719 998 c 0,24,25
 685 1024 685 1024 581 1024 c 1,26,-1
 543 1023 l 1,27,28
 387 1015 387 1015 240 972 c 1,29,-1
 212 1120 l 1,30,31
 387 1171 387 1171 556 1171 c 0,32,33
 797 1171 797 1171 872 1080 c 0,34,35
 917 1025 917 1025 926 945 c 128,-1,36
 935 865 935 865 936 797 c 1,37,-1
 936 226 l 2,38,39
 936 141 936 141 951.5 124.5 c 128,-1,40
 967 108 967 108 987.5 108 c 128,-1,41
 1008 108 1008 108 1050 115 c 1,42,-1
 1061 -9 l 1,0,1
768 366 m 2,43,44
 768 437 768 437 772 497 c 1,45,46
 421 497 421 497 330 430 c 1,47,48
 279 394 279 394 279 318 c 0,49,50
 279 231 279 231 338 176 c 0,51,52
 395 123 395 123 487 123 c 1,53,54
 664 118 664 118 768 234 c 1,55,-1
 768 366 l 2,43,44
193 1400 m 1,56,57
 228 1480 228 1480 284.5 1529 c 128,-1,58
 341 1578 341 1578 395 1583.5 c 128,-1,59
 449 1589 449 1589 487 1573 c 128,-1,60
 525 1557 525 1557 560 1536 c 2,61,62
 560 1536 560 1536 628 1494 c 1,63,64
 741 1427 741 1427 811 1570 c 1,65,-1
 915 1509 l 1,66,67
 880 1428 880 1428 823 1380 c 0,68,69
 706 1283 706 1283 547 1386 c 0,70,71
 458 1444 458 1444 422 1444 c 0,72,73
 348 1444 348 1444 297 1340 c 1,74,-1
 193 1400 l 1,56,57
EndSplineSet
EndChar

StartChar: adieresis
Encoding: 228 228 185
Width: 1196
GlyphClass: 2
Flags: W
LayerCount: 2
Fore
SplineSet
1061 -9 m 1,0,1
 1028 -20 1028 -20 979 -20 c 128,-1,2
 930 -20 930 -20 898.5 -9 c 128,-1,3
 867 2 867 2 844 22 c 0,4,5
 799 60 799 60 786 123 c 1,6,7
 732 40 732 40 592 -3 c 0,8,9
 466 -42 466 -42 338 2 c 1,10,11
 200 48 200 48 139 171 c 0,12,13
 108 233 108 233 108 307.5 c 128,-1,14
 108 382 108 382 137 433.5 c 128,-1,15
 166 485 166 485 214 518 c 0,16,17
 304 581 304 581 455 594 c 1,18,19
 576 606 576 606 768 611 c 1,20,-1
 768 791 l 2,21,22
 768 918 768 918 753.5 950 c 128,-1,23
 739 982 739 982 719 998 c 0,24,25
 685 1024 685 1024 581 1024 c 1,26,-1
 543 1023 l 1,27,28
 387 1015 387 1015 240 972 c 1,29,-1
 212 1120 l 1,30,31
 387 1171 387 1171 556 1171 c 0,32,33
 797 1171 797 1171 872 1080 c 0,34,35
 917 1025 917 1025 926 945 c 128,-1,36
 935 865 935 865 936 797 c 1,37,-1
 936 226 l 2,38,39
 936 141 936 141 951.5 124.5 c 128,-1,40
 967 108 967 108 987.5 108 c 128,-1,41
 1008 108 1008 108 1050 115 c 1,42,-1
 1061 -9 l 1,0,1
768 366 m 2,43,44
 768 437 768 437 772 497 c 1,45,46
 421 497 421 497 330 430 c 1,47,48
 279 394 279 394 279 318 c 0,49,50
 279 231 279 231 338 176 c 0,51,52
 395 123 395 123 487 123 c 1,53,54
 664 118 664 118 768 234 c 1,55,-1
 768 366 l 2,43,44
658 1585 m 1,56,-1
 837 1585 l 1,57,-1
 837 1363 l 1,58,-1
 658 1363 l 1,59,-1
 658 1585 l 1,56,-1
270 1585 m 1,60,-1
 448 1585 l 1,61,-1
 448 1363 l 1,62,-1
 270 1363 l 1,63,-1
 270 1585 l 1,60,-1
EndSplineSet
EndChar

StartChar: aring
Encoding: 229 229 186
Width: 1196
GlyphClass: 2
Flags: W
LayerCount: 2
Fore
SplineSet
1061 -9 m 1,0,1
 1028 -20 1028 -20 979 -20 c 128,-1,2
 930 -20 930 -20 898.5 -9 c 128,-1,3
 867 2 867 2 844 22 c 0,4,5
 799 60 799 60 786 123 c 1,6,7
 732 40 732 40 592 -3 c 0,8,9
 466 -42 466 -42 338 2 c 1,10,11
 200 48 200 48 139 171 c 0,12,13
 108 233 108 233 108 307.5 c 128,-1,14
 108 382 108 382 137 433.5 c 128,-1,15
 166 485 166 485 214 518 c 0,16,17
 304 581 304 581 455 594 c 1,18,19
 576 606 576 606 768 611 c 1,20,-1
 768 791 l 2,21,22
 768 918 768 918 753.5 950 c 128,-1,23
 739 982 739 982 719 998 c 0,24,25
 685 1024 685 1024 581 1024 c 1,26,-1
 543 1023 l 1,27,28
 387 1015 387 1015 240 972 c 1,29,-1
 212 1120 l 1,30,31
 387 1171 387 1171 556 1171 c 0,32,33
 797 1171 797 1171 872 1080 c 0,34,35
 917 1025 917 1025 926 945 c 128,-1,36
 935 865 935 865 936 797 c 1,37,-1
 936 226 l 2,38,39
 936 141 936 141 951.5 124.5 c 128,-1,40
 967 108 967 108 987.5 108 c 128,-1,41
 1008 108 1008 108 1050 115 c 1,42,-1
 1061 -9 l 1,0,1
768 366 m 2,43,44
 768 437 768 437 772 497 c 1,45,46
 421 497 421 497 330 430 c 1,47,48
 279 394 279 394 279 318 c 0,49,50
 279 231 279 231 338 176 c 0,51,52
 395 123 395 123 487 123 c 1,53,54
 664 118 664 118 768 234 c 1,55,-1
 768 366 l 2,43,44
553 1327 m 256,56,57
 446 1327 446 1327 376 1386 c 0,58,59
 303 1447 303 1447 303 1553 c 0,60,61
 303 1661 303 1661 376 1723 c 0,62,63
 445 1782 445 1782 553 1782 c 256,64,65
 661 1782 661 1782 730 1723 c 0,66,67
 803 1661 803 1661 803 1553 c 0,68,69
 803 1447 803 1447 730 1386 c 0,70,71
 660 1327 660 1327 553 1327 c 256,56,57
553 1420 m 256,72,73
 607 1420 607 1420 642.5 1456 c 128,-1,74
 678 1492 678 1492 678 1553 c 256,75,76
 678 1614 678 1614 642.5 1650.5 c 128,-1,77
 607 1687 607 1687 553 1687 c 256,78,79
 499 1687 499 1687 463.5 1650.5 c 128,-1,80
 428 1614 428 1614 428 1553 c 256,81,82
 428 1492 428 1492 463.5 1456 c 128,-1,83
 499 1420 499 1420 553 1420 c 256,72,73
EndSplineSet
EndChar

StartChar: ae
Encoding: 230 230 187
Width: 1708
GlyphClass: 2
Flags: W
LayerCount: 2
Fore
SplineSet
1551 35 m 1,0,1
 1404 -20 1404 -20 1246 -20 c 0,2,3
 1049 -20 1049 -20 910 85 c 0,4,5
 861 122 861 122 824 176 c 1,6,-1
 732 98 l 1,7,8
 640 24 640 24 567.5 2.5 c 128,-1,9
 495 -19 495 -19 417 -20 c 128,-1,10
 339 -21 339 -21 268.5 5 c 128,-1,11
 198 31 198 31 151 78 c 0,12,13
 56 172 56 172 58 320 c 0,14,15
 60 502 60 502 243 584 c 0,16,17
 392 650 392 650 669 650 c 2,18,-1
 718 650 l 1,19,-1
 718 791 l 2,20,21
 718 909 718 909 668.5 967 c 128,-1,22
 619 1025 619 1025 504 1025 c 0,23,24
 346 1025 346 1025 160 954 c 1,25,-1
 126 1095 l 1,26,27
 316 1171 316 1171 498 1171 c 0,28,29
 648 1171 648 1171 721 1128 c 1,30,31
 812 1076 812 1076 844 937 c 1,32,33
 911 1114 911 1114 1094 1158 c 0,34,35
 1147 1171 1147 1171 1218.5 1171 c 128,-1,36
 1290 1171 1290 1171 1357.5 1148 c 128,-1,37
 1425 1125 1425 1125 1475 1083.5 c 128,-1,38
 1525 1042 1525 1042 1558.5 983.5 c 128,-1,39
 1592 925 1592 925 1612 854 c 1,40,41
 1650 726 1650 726 1650 534 c 1,42,-1
 886 534 l 1,43,44
 904 261 904 261 1089 163 c 0,45,46
 1155 128 1155 128 1263.5 128 c 128,-1,47
 1372 128 1372 128 1518 183 c 1,48,-1
 1551 35 l 1,0,1
1469 669 m 1,49,50
 1452 927 1452 927 1324 998 c 0,51,52
 1275 1026 1275 1026 1205.5 1026.5 c 128,-1,53
 1136 1027 1136 1027 1082.5 999 c 128,-1,54
 1029 971 1029 971 989 922 c 0,55,56
 908 822 908 822 891 669 c 1,57,-1
 1469 669 l 1,49,50
643 523 m 2,58,59
 236 523 236 523 236 318 c 0,60,61
 236 224 236 224 288 174.5 c 128,-1,62
 340 125 340 125 433 125 c 0,63,64
 524 125 524 125 589 157 c 0,65,66
 679 201 679 201 773 273 c 1,67,68
 731 378 731 378 725 523 c 1,69,-1
 643 523 l 2,58,59
EndSplineSet
EndChar

StartChar: ccedilla
Encoding: 231 231 188
Width: 1024
GlyphClass: 2
Flags: W
LayerCount: 2
Fore
SplineSet
960 35 m 1,0,1
 816 -20 816 -20 668.5 -20 c 128,-1,2
 521 -20 521 -20 423.5 14 c 128,-1,3
 326 48 326 48 256 120 c 0,4,5
 110 272 110 272 110 574 c 0,6,7
 110 1172 110 1172 622 1172 c 1,8,-1
 657 1171 l 1,9,10
 788 1166 788 1166 844.5 1146 c 128,-1,11
 901 1126 901 1126 927 1115 c 1,12,-1
 889 967 l 1,13,14
 763 1024 763 1024 634 1024 c 2,15,-1
 617 1024 l 2,16,17
 289 1024 289 1024 289 576 c 0,18,19
 289 339 289 339 397 224 c 0,20,21
 487 128 487 128 640.5 128 c 128,-1,22
 794 128 794 128 934 183 c 1,23,-1
 960 35 l 1,0,1
431 -391 m 1,24,25
 516 -413 516 -413 563 -413 c 0,26,27
 671 -413 671 -413 690 -322 c 0,28,29
 693 -307 693 -307 693 -283.5 c 128,-1,30
 693 -260 693 -260 678 -240 c 128,-1,31
 663 -220 663 -220 639 -208 c 0,32,33
 602 -191 602 -191 523 -188 c 1,34,-1
 531 -71 l 1,35,36
 759 -61 759 -61 830 -200 c 0,37,38
 854 -247 854 -247 849.5 -307.5 c 128,-1,39
 845 -368 845 -368 820.5 -409 c 128,-1,40
 796 -450 796 -450 758 -477 c 0,41,42
 683 -530 683 -530 582.5 -530 c 128,-1,43
 482 -530 482 -530 410 -493 c 1,44,-1
 410 -490 l 1,45,-1
 431 -391 l 1,24,25
EndSplineSet
EndChar

StartChar: egrave
Encoding: 232 232 189
Width: 1196
GlyphClass: 2
Flags: W
LayerCount: 2
Fore
SplineSet
957 35 m 1,0,1
 810 -20 810 -20 663 -20 c 0,2,3
 363 -20 363 -20 230 162 c 1,4,5
 121 309 121 309 121 587 c 128,-1,6
 121 865 121 865 245.5 1017 c 128,-1,7
 370 1169 370 1169 612 1171 c 1,8,9
 838 1171 838 1171 952 1002 c 0,10,11
 1056 849 1056 849 1056 570 c 2,12,-1
 1056 534 l 1,13,-1
 297 534 l 1,14,15
 314 215 314 215 515 148 c 0,16,17
 577 128 577 128 677.5 128 c 128,-1,18
 778 128 778 128 924 183 c 1,19,-1
 957 35 l 1,0,1
876 669 m 1,20,21
 864 842 864 842 814 927 c 1,22,23
 727 1070 727 1070 512 1012 c 1,24,25
 393 981 393 981 334 856 c 0,26,27
 299 782 299 782 297 669 c 1,28,-1
 876 669 l 1,20,21
767 1296 m 1,29,-1
 367 1641 l 1,30,-1
 480 1764 l 1,31,-1
 859 1398 l 1,32,-1
 767 1296 l 1,29,-1
EndSplineSet
EndChar

StartChar: eacute
Encoding: 233 233 190
Width: 1196
GlyphClass: 2
Flags: W
LayerCount: 2
Fore
SplineSet
957 35 m 1,0,1
 810 -20 810 -20 663 -20 c 0,2,3
 363 -20 363 -20 230 162 c 1,4,5
 121 309 121 309 121 587 c 128,-1,6
 121 865 121 865 245.5 1017 c 128,-1,7
 370 1169 370 1169 612 1171 c 1,8,9
 838 1171 838 1171 952 1002 c 0,10,11
 1056 849 1056 849 1056 570 c 2,12,-1
 1056 534 l 1,13,-1
 297 534 l 1,14,15
 314 215 314 215 515 148 c 0,16,17
 577 128 577 128 677.5 128 c 128,-1,18
 778 128 778 128 924 183 c 1,19,-1
 957 35 l 1,0,1
876 669 m 1,20,21
 864 842 864 842 814 927 c 1,22,23
 727 1070 727 1070 512 1012 c 1,24,25
 393 981 393 981 334 856 c 0,26,27
 299 782 299 782 297 669 c 1,28,-1
 876 669 l 1,20,21
367 1398 m 1,29,-1
 746 1764 l 1,30,-1
 859 1641 l 1,31,-1
 459 1296 l 1,32,-1
 367 1398 l 1,29,-1
EndSplineSet
EndChar

StartChar: ecircumflex
Encoding: 234 234 191
Width: 1196
GlyphClass: 2
Flags: W
LayerCount: 2
Fore
SplineSet
957 35 m 1,0,1
 810 -20 810 -20 663 -20 c 0,2,3
 363 -20 363 -20 230 162 c 1,4,5
 121 309 121 309 121 587 c 128,-1,6
 121 865 121 865 245.5 1017 c 128,-1,7
 370 1169 370 1169 612 1171 c 1,8,9
 838 1171 838 1171 952 1002 c 0,10,11
 1056 849 1056 849 1056 570 c 2,12,-1
 1056 534 l 1,13,-1
 297 534 l 1,14,15
 314 215 314 215 515 148 c 0,16,17
 577 128 577 128 677.5 128 c 128,-1,18
 778 128 778 128 924 183 c 1,19,-1
 957 35 l 1,0,1
876 669 m 1,20,21
 864 842 864 842 814 927 c 1,22,23
 727 1070 727 1070 512 1012 c 1,24,25
 393 981 393 981 334 856 c 0,26,27
 299 782 299 782 297 669 c 1,28,-1
 876 669 l 1,20,21
307 1296 m 1,29,-1
 221 1405 l 1,30,-1
 614 1718 l 1,31,-1
 1005 1405 l 1,32,-1
 923 1298 l 1,33,-1
 614 1535 l 1,34,-1
 307 1296 l 1,29,-1
EndSplineSet
EndChar

StartChar: edieresis
Encoding: 235 235 192
Width: 1196
GlyphClass: 2
Flags: W
LayerCount: 2
Fore
SplineSet
957 35 m 1,0,1
 810 -20 810 -20 663 -20 c 0,2,3
 363 -20 363 -20 230 162 c 1,4,5
 121 309 121 309 121 587 c 128,-1,6
 121 865 121 865 245.5 1017 c 128,-1,7
 370 1169 370 1169 612 1171 c 1,8,9
 838 1171 838 1171 952 1002 c 0,10,11
 1056 849 1056 849 1056 570 c 2,12,-1
 1056 534 l 1,13,-1
 297 534 l 1,14,15
 314 215 314 215 515 148 c 0,16,17
 577 128 577 128 677.5 128 c 128,-1,18
 778 128 778 128 924 183 c 1,19,-1
 957 35 l 1,0,1
876 669 m 1,20,21
 864 842 864 842 814 927 c 1,22,23
 727 1070 727 1070 512 1012 c 1,24,25
 393 981 393 981 334 856 c 0,26,27
 299 782 299 782 297 669 c 1,28,-1
 876 669 l 1,20,21
718 1585 m 1,29,-1
 897 1585 l 1,30,-1
 897 1363 l 1,31,-1
 718 1363 l 1,32,-1
 718 1585 l 1,29,-1
330 1585 m 1,33,-1
 508 1585 l 1,34,-1
 508 1363 l 1,35,-1
 330 1363 l 1,36,-1
 330 1585 l 1,33,-1
EndSplineSet
EndChar

StartChar: igrave
Encoding: 236 236 193
Width: 684
GlyphClass: 2
Flags: W
LayerCount: 2
Fore
SplineSet
257 1157 m 1,0,-1
 427 1157 l 1,1,-1
 427 0 l 1,2,-1
 257 0 l 1,3,-1
 257 1157 l 1,0,-1
496 1296 m 1,4,-1
 96 1641 l 1,5,-1
 209 1764 l 1,6,-1
 588 1398 l 1,7,-1
 496 1296 l 1,4,-1
EndSplineSet
EndChar

StartChar: iacute
Encoding: 237 237 194
Width: 684
GlyphClass: 2
Flags: W
LayerCount: 2
Fore
SplineSet
257 1157 m 1,0,-1
 427 1157 l 1,1,-1
 427 0 l 1,2,-1
 257 0 l 1,3,-1
 257 1157 l 1,0,-1
96 1398 m 1,4,-1
 475 1764 l 1,5,-1
 588 1641 l 1,6,-1
 188 1296 l 1,7,-1
 96 1398 l 1,4,-1
EndSplineSet
EndChar

StartChar: icircumflex
Encoding: 238 238 195
Width: 684
GlyphClass: 2
Flags: W
LayerCount: 2
Fore
SplineSet
257 1157 m 1,0,-1
 427 1157 l 1,1,-1
 427 0 l 1,2,-1
 257 0 l 1,3,-1
 257 1157 l 1,0,-1
37 1296 m 1,4,-1
 -49 1405 l 1,5,-1
 344 1718 l 1,6,-1
 735 1405 l 1,7,-1
 653 1298 l 1,8,-1
 344 1535 l 1,9,-1
 37 1296 l 1,4,-1
EndSplineSet
EndChar

StartChar: idieresis
Encoding: 239 239 196
Width: 684
GlyphClass: 2
Flags: W
LayerCount: 2
Fore
SplineSet
257 1157 m 1,0,-1
 427 1157 l 1,1,-1
 427 0 l 1,2,-1
 257 0 l 1,3,-1
 257 1157 l 1,0,-1
447 1585 m 1,4,-1
 626 1585 l 1,5,-1
 626 1363 l 1,6,-1
 447 1363 l 1,7,-1
 447 1585 l 1,4,-1
59 1585 m 1,8,-1
 237 1585 l 1,9,-1
 237 1363 l 1,10,-1
 59 1363 l 1,11,-1
 59 1585 l 1,8,-1
EndSplineSet
EndChar

StartChar: eth
Encoding: 240 240 197
Width: 1196
GlyphClass: 2
Flags: W
LayerCount: 2
Fore
SplineSet
377 1601 m 1,0,1
 582 1557 582 1557 739 1433 c 1,2,-1
 977 1537 l 1,3,-1
 1023 1435 l 1,4,-1
 828 1351 l 1,5,6
 1073 1091 1073 1091 1098 636 c 0,7,8
 1100 610 1100 610 1100 540.5 c 128,-1,9
 1100 471 1100 471 1075 362.5 c 128,-1,10
 1050 254 1050 254 991 169 c 0,11,12
 860 -20 860 -20 587 -20 c 0,13,14
 354 -20 354 -20 223 137 c 0,15,16
 101 283 101 283 99 519 c 256,17,18
 97 755 97 755 212 903 c 0,19,20
 340 1067 340 1067 578 1067 c 0,21,22
 746 1067 746 1067 863 979 c 1,23,24
 796 1162 796 1162 664 1280 c 1,25,-1
 368 1157 l 1,26,-1
 321 1258 l 1,27,-1
 562 1365 l 1,28,29
 465 1425 465 1425 337 1460 c 1,30,-1
 377 1601 l 1,0,1
285.5 671 m 128,-1,32
 271 597 271 597 273 516 c 128,-1,33
 275 435 275 435 295.5 362.5 c 128,-1,34
 316 290 316 290 355 237 c 0,35,36
 438 124 438 124 587 124 c 0,37,38
 771 124 771 124 859 263 c 0,39,40
 933 380 933 380 933 578 c 0,41,42
 933 675 933 675 911 803 c 1,43,44
 838 874 838 874 780 898 c 0,45,46
 684 937 684 937 585 934.5 c 128,-1,47
 486 932 486 932 428 896 c 128,-1,48
 370 860 370 860 335 802.5 c 128,-1,31
 300 745 300 745 285.5 671 c 128,-1,32
EndSplineSet
EndChar

StartChar: ntilde
Encoding: 241 241 198
Width: 1365
GlyphClass: 2
Flags: W
LayerCount: 2
Fore
SplineSet
206 0 m 1,0,-1
 207 339 l 1,1,2
 207 771 207 771 204 890 c 2,3,-1
 200 1048 l 2,4,5
 197 1140 197 1140 194 1157 c 1,6,-1
 366 1166 l 1,7,8
 365 1154 365 1154 364.5 1134.5 c 128,-1,9
 364 1115 364 1115 364 1086 c 2,10,-1
 364 1011 l 1,11,12
 598 1171 598 1171 777.5 1171 c 128,-1,13
 957 1171 957 1171 1049 1083.5 c 128,-1,14
 1141 996 1141 996 1146 806 c 1,15,-1
 1146 0 l 1,16,-1
 974 0 l 1,17,-1
 974 745 l 2,18,19
 974 898 974 898 930 960 c 1,20,21
 886 1020 886 1020 775 1020 c 0,22,23
 626 1020 626 1020 478 945 c 0,24,25
 428 920 428 920 373 888 c 1,26,-1
 375 797 l 2,27,28
 377 721 377 721 377 643 c 2,29,-1
 377 0 l 1,30,-1
 206 0 l 1,0,-1
310 1400 m 1,31,32
 345 1480 345 1480 401.5 1529 c 128,-1,33
 458 1578 458 1578 512 1583.5 c 128,-1,34
 566 1589 566 1589 604 1573 c 128,-1,35
 642 1557 642 1557 677 1536 c 2,36,37
 677 1536 677 1536 745 1494 c 1,38,39
 858 1427 858 1427 928 1570 c 1,40,-1
 1032 1509 l 1,41,42
 997 1428 997 1428 940 1380 c 0,43,44
 823 1283 823 1283 664 1386 c 0,45,46
 575 1444 575 1444 539 1444 c 0,47,48
 465 1444 465 1444 414 1340 c 1,49,-1
 310 1400 l 1,31,32
EndSplineSet
EndChar

StartChar: ograve
Encoding: 242 242 199
Width: 1363
GlyphClass: 2
Flags: W
LayerCount: 2
Fore
SplineSet
164 564 m 0,0,1
 164 708 164 708 203.5 822.5 c 128,-1,2
 243 937 243 937 314 1014 c 0,3,4
 457 1171 457 1171 690 1171 c 0,5,6
 940 1171 940 1171 1071 1016 c 0,7,8
 1199 864 1199 864 1199 574 c 0,9,10
 1199 288 1199 288 1045 127 c 0,11,12
 904 -20 904 -20 676 -20 c 0,13,14
 437 -20 437 -20 302 130 c 1,15,16
 164 281 164 281 164 564 c 0,0,1
678 125 m 0,17,18
 1016 125 1016 125 1016 574 c 1,19,20
 1010 910 1010 910 832 995 c 0,21,22
 769 1025 769 1025 684.5 1025 c 128,-1,23
 600 1025 600 1025 536 994.5 c 128,-1,24
 472 964 472 964 428 906 c 1,25,26
 339 785 339 785 341.5 569 c 128,-1,27
 344 353 344 353 428.5 239 c 128,-1,28
 513 125 513 125 678 125 c 0,17,18
836 1296 m 1,29,-1
 436 1641 l 1,30,-1
 549 1764 l 1,31,-1
 928 1398 l 1,32,-1
 836 1296 l 1,29,-1
EndSplineSet
EndChar

StartChar: oacute
Encoding: 243 243 200
Width: 1363
GlyphClass: 2
Flags: W
LayerCount: 2
Fore
SplineSet
164 564 m 0,0,1
 164 708 164 708 203.5 822.5 c 128,-1,2
 243 937 243 937 314 1014 c 0,3,4
 457 1171 457 1171 690 1171 c 0,5,6
 940 1171 940 1171 1071 1016 c 0,7,8
 1199 864 1199 864 1199 574 c 0,9,10
 1199 288 1199 288 1045 127 c 0,11,12
 904 -20 904 -20 676 -20 c 0,13,14
 437 -20 437 -20 302 130 c 1,15,16
 164 281 164 281 164 564 c 0,0,1
678 125 m 0,17,18
 1016 125 1016 125 1016 574 c 1,19,20
 1010 910 1010 910 832 995 c 0,21,22
 769 1025 769 1025 684.5 1025 c 128,-1,23
 600 1025 600 1025 536 994.5 c 128,-1,24
 472 964 472 964 428 906 c 1,25,26
 339 785 339 785 341.5 569 c 128,-1,27
 344 353 344 353 428.5 239 c 128,-1,28
 513 125 513 125 678 125 c 0,17,18
436 1398 m 1,29,-1
 815 1764 l 1,30,-1
 928 1641 l 1,31,-1
 528 1296 l 1,32,-1
 436 1398 l 1,29,-1
EndSplineSet
EndChar

StartChar: ocircumflex
Encoding: 244 244 201
Width: 1363
GlyphClass: 2
Flags: W
LayerCount: 2
Fore
SplineSet
164 564 m 0,0,1
 164 708 164 708 203.5 822.5 c 128,-1,2
 243 937 243 937 314 1014 c 0,3,4
 457 1171 457 1171 690 1171 c 0,5,6
 940 1171 940 1171 1071 1016 c 0,7,8
 1199 864 1199 864 1199 574 c 0,9,10
 1199 288 1199 288 1045 127 c 0,11,12
 904 -20 904 -20 676 -20 c 0,13,14
 437 -20 437 -20 302 130 c 1,15,16
 164 281 164 281 164 564 c 0,0,1
678 125 m 0,17,18
 1016 125 1016 125 1016 574 c 1,19,20
 1010 910 1010 910 832 995 c 0,21,22
 769 1025 769 1025 684.5 1025 c 128,-1,23
 600 1025 600 1025 536 994.5 c 128,-1,24
 472 964 472 964 428 906 c 1,25,26
 339 785 339 785 341.5 569 c 128,-1,27
 344 353 344 353 428.5 239 c 128,-1,28
 513 125 513 125 678 125 c 0,17,18
376 1296 m 1,29,-1
 290 1405 l 1,30,-1
 683 1718 l 1,31,-1
 1074 1405 l 1,32,-1
 992 1298 l 1,33,-1
 683 1535 l 1,34,-1
 376 1296 l 1,29,-1
EndSplineSet
EndChar

StartChar: otilde
Encoding: 245 245 202
Width: 1363
GlyphClass: 2
Flags: W
LayerCount: 2
Fore
SplineSet
164 564 m 0,0,1
 164 708 164 708 203.5 822.5 c 128,-1,2
 243 937 243 937 314 1014 c 0,3,4
 457 1171 457 1171 690 1171 c 0,5,6
 940 1171 940 1171 1071 1016 c 0,7,8
 1199 864 1199 864 1199 574 c 0,9,10
 1199 288 1199 288 1045 127 c 0,11,12
 904 -20 904 -20 676 -20 c 0,13,14
 437 -20 437 -20 302 130 c 1,15,16
 164 281 164 281 164 564 c 0,0,1
678 125 m 0,17,18
 1016 125 1016 125 1016 574 c 1,19,20
 1010 910 1010 910 832 995 c 0,21,22
 769 1025 769 1025 684.5 1025 c 128,-1,23
 600 1025 600 1025 536 994.5 c 128,-1,24
 472 964 472 964 428 906 c 1,25,26
 339 785 339 785 341.5 569 c 128,-1,27
 344 353 344 353 428.5 239 c 128,-1,28
 513 125 513 125 678 125 c 0,17,18
322 1400 m 1,29,30
 357 1480 357 1480 413.5 1529 c 128,-1,31
 470 1578 470 1578 524 1583.5 c 128,-1,32
 578 1589 578 1589 616 1573 c 128,-1,33
 654 1557 654 1557 689 1536 c 2,34,35
 689 1536 689 1536 757 1494 c 1,36,37
 870 1427 870 1427 940 1570 c 1,38,-1
 1044 1509 l 1,39,40
 1009 1428 1009 1428 952 1380 c 0,41,42
 835 1283 835 1283 676 1386 c 0,43,44
 587 1444 587 1444 551 1444 c 0,45,46
 477 1444 477 1444 426 1340 c 1,47,-1
 322 1400 l 1,29,30
EndSplineSet
EndChar

StartChar: odieresis
Encoding: 246 246 203
Width: 1363
GlyphClass: 2
Flags: W
LayerCount: 2
Fore
SplineSet
164 564 m 0,0,1
 164 708 164 708 203.5 822.5 c 128,-1,2
 243 937 243 937 314 1014 c 0,3,4
 457 1171 457 1171 690 1171 c 0,5,6
 940 1171 940 1171 1071 1016 c 0,7,8
 1199 864 1199 864 1199 574 c 0,9,10
 1199 288 1199 288 1045 127 c 0,11,12
 904 -20 904 -20 676 -20 c 0,13,14
 437 -20 437 -20 302 130 c 1,15,16
 164 281 164 281 164 564 c 0,0,1
678 125 m 0,17,18
 1016 125 1016 125 1016 574 c 1,19,20
 1010 910 1010 910 832 995 c 0,21,22
 769 1025 769 1025 684.5 1025 c 128,-1,23
 600 1025 600 1025 536 994.5 c 128,-1,24
 472 964 472 964 428 906 c 1,25,26
 339 785 339 785 341.5 569 c 128,-1,27
 344 353 344 353 428.5 239 c 128,-1,28
 513 125 513 125 678 125 c 0,17,18
787 1585 m 1,29,-1
 966 1585 l 1,30,-1
 966 1363 l 1,31,-1
 787 1363 l 1,32,-1
 787 1585 l 1,29,-1
399 1585 m 1,33,-1
 577 1585 l 1,34,-1
 577 1363 l 1,35,-1
 399 1363 l 1,36,-1
 399 1585 l 1,33,-1
EndSplineSet
EndChar

StartChar: divide
Encoding: 247 247 204
Width: 1196
GlyphClass: 2
Flags: W
LayerCount: 2
Fore
SplineSet
506 1040 m 1,0,-1
 694 1040 l 1,1,-1
 694 857 l 1,2,-1
 506 857 l 1,3,-1
 506 1040 l 1,0,-1
162 653 m 1,4,-1
 1034 653 l 1,5,-1
 1034 534 l 1,6,-1
 162 534 l 1,7,-1
 162 653 l 1,4,-1
506 331 m 1,8,-1
 694 331 l 1,9,-1
 694 148 l 1,10,-1
 506 148 l 1,11,-1
 506 331 l 1,8,-1
EndSplineSet
EndChar

StartChar: oslash
Encoding: 248 248 205
Width: 1363
GlyphClass: 2
Flags: W
LayerCount: 2
Fore
SplineSet
690 1171 m 0,0,1
 882 1171 882 1171 1005 1078 c 1,2,-1
 1132 1241 l 1,3,-1
 1229 1166 l 1,4,-1
 1091 989 l 1,5,6
 1199 839 1199 839 1199 574 c 0,7,8
 1199 288 1199 288 1045 127 c 0,9,10
 904 -20 904 -20 676 -20 c 0,11,12
 492 -20 492 -20 371 67 c 1,13,-1
 234 -108 l 1,14,-1
 137 -35 l 1,15,-1
 283 152 l 1,16,17
 164 302 164 302 164 560 c 0,18,19
 164 851 164 851 314 1014 c 1,20,21
 457 1171 457 1171 690 1171 c 0,0,1
903 947 m 1,22,23
 822 1025 822 1025 685 1025 c 0,24,25
 525 1025 525 1025 434 906 c 1,26,27
 343 785 343 785 343 565 c 0,28,29
 343 400 343 400 394 295 c 1,30,-1
 903 947 l 1,22,23
470 194 m 1,31,32
 551 125 551 125 676 125 c 0,33,34
 921 125 921 125 991 372 c 0,35,36
 1015 457 1015 457 1015.5 595.5 c 128,-1,37
 1016 734 1016 734 974 839 c 1,38,-1
 470 194 l 1,31,32
EndSplineSet
EndChar

StartChar: ugrave
Encoding: 249 249 206
Width: 1363
GlyphClass: 2
Flags: W
LayerCount: 2
Fore
SplineSet
1124 967 m 2,0,-1
 1124 467 l 2,1,2
 1124 62 1124 62 1137 0 c 1,3,-1
 981 0 l 1,4,-1
 961 162 l 1,5,6
 840 35 840 35 680 -6 c 0,7,8
 624 -20 624 -20 549.5 -19 c 128,-1,9
 475 -18 475 -18 404 8 c 128,-1,10
 333 34 333 34 284 83 c 0,11,12
 182 185 182 185 186 368 c 1,13,-1
 186 1157 l 1,14,-1
 356 1171 l 1,15,-1
 356 428 l 2,16,17
 356 270 356 270 402 202 c 0,18,19
 450 132 450 132 562 131 c 128,-1,20
 674 130 674 130 768 172.5 c 128,-1,21
 862 215 862 215 961 298 c 1,22,-1
 957 371 l 2,23,24
 954 419 954 419 954 507 c 2,25,-1
 954 1157 l 1,26,-1
 1125 1171 l 1,27,28
 1124 1062 1124 1062 1124 967 c 2,0,-1
816 1296 m 1,29,-1
 416 1641 l 1,30,-1
 529 1764 l 1,31,-1
 908 1398 l 1,32,-1
 816 1296 l 1,29,-1
EndSplineSet
EndChar

StartChar: uacute
Encoding: 250 250 207
Width: 1363
GlyphClass: 2
Flags: W
LayerCount: 2
Fore
SplineSet
1124 967 m 2,0,-1
 1124 467 l 2,1,2
 1124 62 1124 62 1137 0 c 1,3,-1
 981 0 l 1,4,-1
 961 162 l 1,5,6
 840 35 840 35 680 -6 c 0,7,8
 624 -20 624 -20 549.5 -19 c 128,-1,9
 475 -18 475 -18 404 8 c 128,-1,10
 333 34 333 34 284 83 c 0,11,12
 182 185 182 185 186 368 c 1,13,-1
 186 1157 l 1,14,-1
 356 1171 l 1,15,-1
 356 428 l 2,16,17
 356 270 356 270 402 202 c 0,18,19
 450 132 450 132 562 131 c 128,-1,20
 674 130 674 130 768 172.5 c 128,-1,21
 862 215 862 215 961 298 c 1,22,-1
 957 371 l 2,23,24
 954 419 954 419 954 507 c 2,25,-1
 954 1157 l 1,26,-1
 1125 1171 l 1,27,28
 1124 1062 1124 1062 1124 967 c 2,0,-1
416 1398 m 1,29,-1
 795 1764 l 1,30,-1
 908 1641 l 1,31,-1
 508 1296 l 1,32,-1
 416 1398 l 1,29,-1
EndSplineSet
EndChar

StartChar: ucircumflex
Encoding: 251 251 208
Width: 1363
GlyphClass: 2
Flags: W
LayerCount: 2
Fore
SplineSet
1124 967 m 2,0,-1
 1124 467 l 2,1,2
 1124 62 1124 62 1137 0 c 1,3,-1
 981 0 l 1,4,-1
 961 162 l 1,5,6
 840 35 840 35 680 -6 c 0,7,8
 624 -20 624 -20 549.5 -19 c 128,-1,9
 475 -18 475 -18 404 8 c 128,-1,10
 333 34 333 34 284 83 c 0,11,12
 182 185 182 185 186 368 c 1,13,-1
 186 1157 l 1,14,-1
 356 1171 l 1,15,-1
 356 428 l 2,16,17
 356 270 356 270 402 202 c 0,18,19
 450 132 450 132 562 131 c 128,-1,20
 674 130 674 130 768 172.5 c 128,-1,21
 862 215 862 215 961 298 c 1,22,-1
 957 371 l 2,23,24
 954 419 954 419 954 507 c 2,25,-1
 954 1157 l 1,26,-1
 1125 1171 l 1,27,28
 1124 1062 1124 1062 1124 967 c 2,0,-1
356 1296 m 1,29,-1
 270 1405 l 1,30,-1
 663 1718 l 1,31,-1
 1054 1405 l 1,32,-1
 972 1298 l 1,33,-1
 663 1535 l 1,34,-1
 356 1296 l 1,29,-1
EndSplineSet
EndChar

StartChar: udieresis
Encoding: 252 252 209
Width: 1363
GlyphClass: 2
Flags: W
LayerCount: 2
Fore
SplineSet
1124 967 m 2,0,-1
 1124 467 l 2,1,2
 1124 62 1124 62 1137 0 c 1,3,-1
 981 0 l 1,4,-1
 961 162 l 1,5,6
 840 35 840 35 680 -6 c 0,7,8
 624 -20 624 -20 549.5 -19 c 128,-1,9
 475 -18 475 -18 404 8 c 128,-1,10
 333 34 333 34 284 83 c 0,11,12
 182 185 182 185 186 368 c 1,13,-1
 186 1157 l 1,14,-1
 356 1171 l 1,15,-1
 356 428 l 2,16,17
 356 270 356 270 402 202 c 0,18,19
 450 132 450 132 562 131 c 128,-1,20
 674 130 674 130 768 172.5 c 128,-1,21
 862 215 862 215 961 298 c 1,22,-1
 957 371 l 2,23,24
 954 419 954 419 954 507 c 2,25,-1
 954 1157 l 1,26,-1
 1125 1171 l 1,27,28
 1124 1062 1124 1062 1124 967 c 2,0,-1
767 1585 m 1,29,-1
 946 1585 l 1,30,-1
 946 1363 l 1,31,-1
 767 1363 l 1,32,-1
 767 1585 l 1,29,-1
379 1585 m 1,33,-1
 557 1585 l 1,34,-1
 557 1363 l 1,35,-1
 379 1363 l 1,36,-1
 379 1585 l 1,33,-1
EndSplineSet
EndChar

StartChar: yacute
Encoding: 253 253 210
Width: 1194
GlyphClass: 2
Flags: W
LayerCount: 2
Fore
SplineSet
64 1157 m 1,0,-1
 251 1157 l 1,1,-1
 589 134 l 1,2,-1
 929 1157 l 1,3,-1
 1119 1157 l 1,4,-1
 503 -539 l 1,5,-1
 307 -472 l 1,6,7
 509 -92 509 -92 554 0 c 1,8,-1
 471 0 l 1,9,-1
 64 1157 l 1,0,-1
342 1398 m 1,10,-1
 721 1764 l 1,11,-1
 834 1641 l 1,12,-1
 434 1296 l 1,13,-1
 342 1398 l 1,10,-1
EndSplineSet
EndChar

StartChar: thorn
Encoding: 254 254 211
Width: 1365
GlyphClass: 2
Flags: W
LayerCount: 2
Fore
SplineSet
913 24.5 m 128,-1,1
 811 -20 811 -20 661.5 -20 c 128,-1,2
 512 -20 512 -20 369 42 c 1,3,-1
 369 -479 l 1,4,-1
 199 -479 l 1,5,-1
 199 1620 l 1,6,-1
 360 1634 l 1,7,-1
 360 1000 l 1,8,9
 528 1167 528 1167 720 1171 c 0,10,11
 1040 1178 1040 1178 1148 864 c 0,12,13
 1191 740 1191 740 1191 596.5 c 128,-1,14
 1191 453 1191 453 1164.5 341.5 c 128,-1,15
 1138 230 1138 230 1076.5 149.5 c 128,-1,0
 1015 69 1015 69 913 24.5 c 128,-1,1
369 190 m 1,16,17
 658 74 658 74 832 162 c 1,18,19
 1017 257 1017 257 1014 588 c 0,20,21
 1011 892 1011 892 856 990 c 0,22,23
 748 1058 748 1058 575 995 c 0,24,25
 449 949 449 949 369 859 c 1,26,-1
 369 190 l 1,16,17
EndSplineSet
EndChar

StartChar: ydieresis
Encoding: 255 255 212
Width: 1194
GlyphClass: 2
Flags: W
LayerCount: 2
Fore
SplineSet
64 1157 m 1,0,-1
 251 1157 l 1,1,-1
 589 134 l 1,2,-1
 929 1157 l 1,3,-1
 1119 1157 l 1,4,-1
 503 -539 l 1,5,-1
 307 -472 l 1,6,7
 509 -92 509 -92 554 0 c 1,8,-1
 471 0 l 1,9,-1
 64 1157 l 1,0,-1
693 1585 m 1,10,-1
 872 1585 l 1,11,-1
 872 1363 l 1,12,-1
 693 1363 l 1,13,-1
 693 1585 l 1,10,-1
305 1585 m 1,14,-1
 483 1585 l 1,15,-1
 483 1363 l 1,16,-1
 305 1363 l 1,17,-1
 305 1585 l 1,14,-1
EndSplineSet
EndChar

StartChar: Amacron
Encoding: 256 256 213
Width: 1537
GlyphClass: 2
Flags: W
LayerCount: 2
Fore
SplineSet
657 1554 m 1,0,-1
 879 1554 l 1,1,-1
 1492 0 l 1,2,-1
 1294 0 l 1,3,-1
 1133 431 l 1,4,-1
 402 431 l 1,5,-1
 243 0 l 1,6,-1
 44 0 l 1,7,-1
 657 1554 l 1,0,-1
1075 574 m 1,8,-1
 916 992 l 2,9,10
 882 1083 882 1083 859 1150 c 2,11,-1
 815 1284 l 2,12,13
 794 1351 794 1351 768 1426 c 1,14,15
 745 1360 745 1360 724 1293 c 2,16,17
 724 1293 724 1293 678 1151 c 1,18,19
 678 1151 678 1151 461 574 c 1,20,-1
 1075 574 l 1,8,-1
453 1859 m 1,21,-1
 1085 1859 l 1,22,-1
 1085 1722 l 1,23,-1
 453 1722 l 1,24,-1
 453 1859 l 1,21,-1
EndSplineSet
EndChar

StartChar: amacron
Encoding: 257 257 214
Width: 1196
GlyphClass: 2
Flags: W
LayerCount: 2
Fore
SplineSet
1061 -9 m 1,0,1
 1028 -20 1028 -20 979 -20 c 128,-1,2
 930 -20 930 -20 898.5 -9 c 128,-1,3
 867 2 867 2 844 22 c 0,4,5
 799 60 799 60 786 123 c 1,6,7
 732 40 732 40 592 -3 c 0,8,9
 466 -42 466 -42 338 2 c 1,10,11
 200 48 200 48 139 171 c 0,12,13
 108 233 108 233 108 307.5 c 128,-1,14
 108 382 108 382 137 433.5 c 128,-1,15
 166 485 166 485 214 518 c 0,16,17
 304 581 304 581 455 594 c 1,18,19
 576 606 576 606 768 611 c 1,20,-1
 768 791 l 2,21,22
 768 918 768 918 753.5 950 c 128,-1,23
 739 982 739 982 719 998 c 0,24,25
 685 1024 685 1024 581 1024 c 1,26,-1
 543 1023 l 1,27,28
 387 1015 387 1015 240 972 c 1,29,-1
 212 1120 l 1,30,31
 387 1171 387 1171 556 1171 c 0,32,33
 797 1171 797 1171 872 1080 c 0,34,35
 917 1025 917 1025 926 945 c 128,-1,36
 935 865 935 865 936 797 c 1,37,-1
 936 226 l 2,38,39
 936 141 936 141 951.5 124.5 c 128,-1,40
 967 108 967 108 987.5 108 c 128,-1,41
 1008 108 1008 108 1050 115 c 1,42,-1
 1061 -9 l 1,0,1
768 366 m 2,43,44
 768 437 768 437 772 497 c 1,45,46
 421 497 421 497 330 430 c 1,47,48
 279 394 279 394 279 318 c 0,49,50
 279 231 279 231 338 176 c 0,51,52
 395 123 395 123 487 123 c 1,53,54
 664 118 664 118 768 234 c 1,55,-1
 768 366 l 2,43,44
238 1509 m 1,56,-1
 869 1509 l 1,57,-1
 869 1372 l 1,58,-1
 238 1372 l 1,59,-1
 238 1509 l 1,56,-1
EndSplineSet
EndChar

StartChar: Abreve
Encoding: 258 258 215
Width: 1537
GlyphClass: 2
Flags: W
LayerCount: 2
Fore
SplineSet
657 1554 m 1,0,-1
 879 1554 l 1,1,-1
 1492 0 l 1,2,-1
 1294 0 l 1,3,-1
 1133 431 l 1,4,-1
 402 431 l 1,5,-1
 243 0 l 1,6,-1
 44 0 l 1,7,-1
 657 1554 l 1,0,-1
1075 574 m 1,8,-1
 916 992 l 2,9,10
 882 1083 882 1083 859 1150 c 2,11,-1
 815 1284 l 2,12,13
 794 1351 794 1351 768 1426 c 1,14,15
 745 1360 745 1360 724 1293 c 2,16,17
 724 1293 724 1293 678 1151 c 1,18,19
 678 1151 678 1151 461 574 c 1,20,-1
 1075 574 l 1,8,-1
769 1700 m 0,21,22
 572 1700 572 1700 489 1838 c 0,23,24
 462 1882 462 1882 452 1938 c 1,25,-1
 584 1978 l 1,26,27
 595 1911 595 1911 654 1870 c 0,28,29
 706 1834 706 1834 751.5 1834 c 128,-1,30
 797 1834 797 1834 827.5 1843 c 128,-1,31
 858 1852 858 1852 884 1870 c 0,32,33
 944 1911 944 1911 955 1978 c 1,34,-1
 1086 1938 l 1,35,36
 1068 1827 1068 1827 980 1762 c 0,37,38
 895 1700 895 1700 769 1700 c 0,21,22
EndSplineSet
EndChar

StartChar: abreve
Encoding: 259 259 216
Width: 1196
GlyphClass: 2
Flags: W
LayerCount: 2
Fore
SplineSet
1061 -9 m 1,0,1
 1028 -20 1028 -20 979 -20 c 128,-1,2
 930 -20 930 -20 898.5 -9 c 128,-1,3
 867 2 867 2 844 22 c 0,4,5
 799 60 799 60 786 123 c 1,6,7
 732 40 732 40 592 -3 c 0,8,9
 466 -42 466 -42 338 2 c 1,10,11
 200 48 200 48 139 171 c 0,12,13
 108 233 108 233 108 307.5 c 128,-1,14
 108 382 108 382 137 433.5 c 128,-1,15
 166 485 166 485 214 518 c 0,16,17
 304 581 304 581 455 594 c 1,18,19
 576 606 576 606 768 611 c 1,20,-1
 768 791 l 2,21,22
 768 918 768 918 753.5 950 c 128,-1,23
 739 982 739 982 719 998 c 0,24,25
 685 1024 685 1024 581 1024 c 1,26,-1
 543 1023 l 1,27,28
 387 1015 387 1015 240 972 c 1,29,-1
 212 1120 l 1,30,31
 387 1171 387 1171 556 1171 c 0,32,33
 797 1171 797 1171 872 1080 c 0,34,35
 917 1025 917 1025 926 945 c 128,-1,36
 935 865 935 865 936 797 c 1,37,-1
 936 226 l 2,38,39
 936 141 936 141 951.5 124.5 c 128,-1,40
 967 108 967 108 987.5 108 c 128,-1,41
 1008 108 1008 108 1050 115 c 1,42,-1
 1061 -9 l 1,0,1
768 366 m 2,43,44
 768 437 768 437 772 497 c 1,45,46
 421 497 421 497 330 430 c 1,47,48
 279 394 279 394 279 318 c 0,49,50
 279 231 279 231 338 176 c 0,51,52
 395 123 395 123 487 123 c 1,53,54
 664 118 664 118 768 234 c 1,55,-1
 768 366 l 2,43,44
554 1312 m 0,56,57
 491 1312 491 1312 437.5 1328 c 128,-1,58
 384 1344 384 1344 342 1374 c 0,59,60
 257 1437 257 1437 237 1550 c 1,61,-1
 369 1590 l 1,62,63
 380 1523 380 1523 439 1482 c 0,64,65
 491 1446 491 1446 536.5 1446 c 128,-1,66
 582 1446 582 1446 612.5 1455 c 128,-1,67
 643 1464 643 1464 669 1482 c 0,68,69
 729 1523 729 1523 740 1590 c 1,70,-1
 871 1550 l 1,71,72
 853 1439 853 1439 766 1374 c 1,73,74
 680 1312 680 1312 554 1312 c 0,56,57
EndSplineSet
EndChar

StartChar: Aogonek
Encoding: 260 260 217
Width: 1537
GlyphClass: 2
Flags: W
LayerCount: 2
Fore
SplineSet
1493 -440 m 1,0,1
 1412 -477 1412 -477 1348.5 -477 c 128,-1,2
 1285 -477 1285 -477 1247 -464 c 128,-1,3
 1209 -451 1209 -451 1182 -426 c 0,4,5
 1123 -373 1123 -373 1123 -280 c 0,6,7
 1123 -204 1123 -204 1176 -112 c 1,8,9
 1225 -24 1225 -24 1287 19 c 1,10,-1
 1133 431 l 1,11,-1
 402 431 l 1,12,-1
 243 0 l 1,13,-1
 44 0 l 1,14,-1
 657 1554 l 1,15,-1
 879 1554 l 1,16,-1
 1492 0 l 1,17,-1
 1400 0 l 1,18,19
 1296 -97 1296 -97 1278 -197 c 1,20,21
 1263 -333 1263 -333 1382 -333 c 0,22,23
 1430 -333 1430 -333 1468 -322 c 1,24,-1
 1493 -440 l 1,0,1
1075 574 m 1,25,-1
 916 992 l 2,26,27
 882 1083 882 1083 859 1150 c 2,28,-1
 815 1284 l 2,29,30
 794 1351 794 1351 768 1426 c 1,31,32
 745 1360 745 1360 724 1293 c 2,33,-1
 678 1151 l 1,34,-1
 461 574 l 1,35,-1
 1075 574 l 1,25,-1
EndSplineSet
EndChar

StartChar: aogonek
Encoding: 261 261 218
Width: 1196
GlyphClass: 2
Flags: W
LayerCount: 2
Fore
SplineSet
850 17 m 1,0,1
 801 55 801 55 786 123 c 1,2,3
 732 40 732 40 592 -3 c 0,4,5
 466 -42 466 -42 338 2 c 1,6,7
 200 48 200 48 139 171 c 0,8,9
 108 233 108 233 108 307.5 c 128,-1,10
 108 382 108 382 137 433.5 c 128,-1,11
 166 485 166 485 214 518 c 0,12,13
 304 581 304 581 455 594 c 1,14,15
 576 606 576 606 768 611 c 1,16,-1
 768 791 l 2,17,18
 768 918 768 918 753.5 950 c 128,-1,19
 739 982 739 982 719 998 c 0,20,21
 685 1024 685 1024 581 1024 c 1,22,-1
 543 1023 l 1,23,24
 387 1015 387 1015 240 972 c 1,25,-1
 212 1120 l 1,26,27
 387 1171 387 1171 556 1171 c 0,28,29
 797 1171 797 1171 872 1080 c 0,30,31
 917 1025 917 1025 926 945 c 128,-1,32
 935 865 935 865 936 797 c 1,33,-1
 936 226 l 2,34,35
 936 141 936 141 951.5 124.5 c 128,-1,36
 967 108 967 108 987.5 108 c 128,-1,37
 1008 108 1008 108 1050 115 c 1,38,-1
 1061 -9 l 1,39,40
 1028 -20 1028 -20 971 -20 c 1,41,-1
 947 -19 l 1,42,43
 859 -109 859 -109 844 -197 c 1,44,45
 829 -333 829 -333 948 -333 c 0,46,47
 996 -333 996 -333 1034 -322 c 1,48,-1
 1059 -440 l 1,49,50
 978 -477 978 -477 914.5 -477 c 128,-1,51
 851 -477 851 -477 813 -464 c 128,-1,52
 775 -451 775 -451 748 -426 c 0,53,54
 689 -373 689 -373 689 -280 c 0,55,56
 689 -206 689 -206 741 -113 c 0,57,58
 789 -27 789 -27 850 17 c 1,0,1
768 366 m 2,59,60
 768 437 768 437 772 497 c 1,61,62
 421 497 421 497 330 430 c 1,63,64
 279 394 279 394 279 318 c 0,65,66
 279 231 279 231 338 176 c 0,67,68
 395 123 395 123 487 123 c 1,69,70
 664 118 664 118 768 234 c 1,71,-1
 768 366 l 2,59,60
EndSplineSet
EndChar

StartChar: Cacute
Encoding: 262 262 219
Width: 1366
GlyphClass: 2
Flags: W
LayerCount: 2
Fore
SplineSet
854 -20 m 0,0,1
 115 -20 115 -20 115 774 c 0,2,3
 115 1419 115 1419 611 1542 c 0,4,5
 718 1568 718 1568 838 1568 c 0,6,7
 1069 1568 1069 1568 1294 1477 c 1,8,-1
 1241 1329 l 1,9,10
 1033 1411 1033 1411 875 1411 c 128,-1,11
 717 1411 717 1411 614.5 1379.5 c 128,-1,12
 512 1348 512 1348 439 1269 c 0,13,14
 300 1119 300 1119 294 774 c 1,15,16
 300 456 300 456 428 302 c 1,17,18
 566 139 566 139 857 139 c 0,19,20
 1057 139 1057 139 1280 232 c 1,21,-1
 1333 81 l 1,22,23
 1097 -20 1097 -20 854 -20 c 0,0,1
874 1615 m 1,24,-1
 781 1717 l 1,25,-1
 1101 2020 l 1,26,-1
 1214 1897 l 1,27,-1
 874 1615 l 1,24,-1
EndSplineSet
EndChar

StartChar: cacute
Encoding: 263 263 220
Width: 1024
GlyphClass: 2
Flags: W
LayerCount: 2
Fore
SplineSet
960 35 m 1,0,1
 816 -20 816 -20 668.5 -20 c 128,-1,2
 521 -20 521 -20 423.5 14 c 128,-1,3
 326 48 326 48 256 120 c 0,4,5
 110 272 110 272 110 574 c 0,6,7
 110 1172 110 1172 622 1172 c 1,8,-1
 657 1171 l 1,9,10
 788 1166 788 1166 844.5 1146 c 128,-1,11
 901 1126 901 1126 927 1115 c 1,12,-1
 889 967 l 1,13,14
 763 1024 763 1024 634 1024 c 2,15,-1
 617 1024 l 2,16,17
 289 1024 289 1024 289 576 c 0,18,19
 289 339 289 339 397 224 c 0,20,21
 487 128 487 128 640.5 128 c 128,-1,22
 794 128 794 128 934 183 c 1,23,-1
 960 35 l 1,0,1
405 1400 m 1,24,-1
 784 1766 l 1,25,-1
 897 1643 l 1,26,-1
 497 1298 l 1,27,-1
 405 1400 l 1,24,-1
EndSplineSet
EndChar

StartChar: Ccircumflex
Encoding: 264 264 221
Width: 1366
GlyphClass: 2
Flags: W
LayerCount: 2
Fore
SplineSet
854 -20 m 0,0,1
 115 -20 115 -20 115 774 c 0,2,3
 115 1419 115 1419 611 1542 c 0,4,5
 718 1568 718 1568 838 1568 c 0,6,7
 1069 1568 1069 1568 1294 1477 c 1,8,-1
 1241 1329 l 1,9,10
 1033 1411 1033 1411 875 1411 c 128,-1,11
 717 1411 717 1411 614.5 1379.5 c 128,-1,12
 512 1348 512 1348 439 1269 c 0,13,14
 300 1119 300 1119 294 774 c 1,15,16
 300 456 300 456 428 302 c 1,17,18
 566 139 566 139 857 139 c 0,19,20
 1057 139 1057 139 1280 232 c 1,21,-1
 1333 81 l 1,22,23
 1097 -20 1097 -20 854 -20 c 0,0,1
550 1615 m 1,24,-1
 493 1728 l 1,25,-1
 856 1940 l 1,26,-1
 1219 1728 l 1,27,-1
 1162 1615 l 1,28,-1
 856 1776 l 1,29,-1
 550 1615 l 1,24,-1
EndSplineSet
EndChar

StartChar: ccircumflex
Encoding: 265 265 222
Width: 1024
GlyphClass: 2
Flags: W
LayerCount: 2
Fore
SplineSet
960 35 m 1,0,1
 816 -20 816 -20 668.5 -20 c 128,-1,2
 521 -20 521 -20 423.5 14 c 128,-1,3
 326 48 326 48 256 120 c 0,4,5
 110 272 110 272 110 574 c 0,6,7
 110 1172 110 1172 622 1172 c 1,8,-1
 657 1171 l 1,9,10
 788 1166 788 1166 844.5 1146 c 128,-1,11
 901 1126 901 1126 927 1115 c 1,12,-1
 889 967 l 1,13,14
 763 1024 763 1024 634 1024 c 2,15,-1
 617 1024 l 2,16,17
 289 1024 289 1024 289 576 c 0,18,19
 289 339 289 339 397 224 c 0,20,21
 487 128 487 128 640.5 128 c 128,-1,22
 794 128 794 128 934 183 c 1,23,-1
 960 35 l 1,0,1
345 1298 m 1,24,-1
 259 1407 l 1,25,-1
 652 1720 l 1,26,-1
 1043 1407 l 1,27,-1
 961 1300 l 1,28,-1
 652 1537 l 1,29,-1
 345 1298 l 1,24,-1
EndSplineSet
EndChar

StartChar: Cdotaccent
Encoding: 266 266 223
Width: 1366
GlyphClass: 2
Flags: W
LayerCount: 2
Fore
SplineSet
854 -20 m 0,0,1
 115 -20 115 -20 115 774 c 0,2,3
 115 1419 115 1419 611 1542 c 0,4,5
 718 1568 718 1568 838 1568 c 0,6,7
 1069 1568 1069 1568 1294 1477 c 1,8,-1
 1241 1329 l 1,9,10
 1033 1411 1033 1411 875 1411 c 128,-1,11
 717 1411 717 1411 614.5 1379.5 c 128,-1,12
 512 1348 512 1348 439 1269 c 0,13,14
 300 1119 300 1119 294 774 c 1,15,16
 300 456 300 456 428 302 c 1,17,18
 566 139 566 139 857 139 c 0,19,20
 1057 139 1057 139 1280 232 c 1,21,-1
 1333 81 l 1,22,23
 1097 -20 1097 -20 854 -20 c 0,0,1
766 2018 m 1,24,-1
 942 2018 l 1,25,-1
 942 1782 l 1,26,-1
 766 1782 l 1,27,-1
 766 2018 l 1,24,-1
EndSplineSet
EndChar

StartChar: cdotaccent
Encoding: 267 267 224
Width: 1024
GlyphClass: 2
Flags: W
LayerCount: 2
Fore
SplineSet
960 35 m 1,0,1
 816 -20 816 -20 668.5 -20 c 128,-1,2
 521 -20 521 -20 423.5 14 c 128,-1,3
 326 48 326 48 256 120 c 0,4,5
 110 272 110 272 110 574 c 0,6,7
 110 1172 110 1172 622 1172 c 1,8,-1
 657 1171 l 1,9,10
 788 1166 788 1166 844.5 1146 c 128,-1,11
 901 1126 901 1126 927 1115 c 1,12,-1
 889 967 l 1,13,14
 763 1024 763 1024 634 1024 c 2,15,-1
 617 1024 l 2,16,17
 289 1024 289 1024 289 576 c 0,18,19
 289 339 289 339 397 224 c 0,20,21
 487 128 487 128 640.5 128 c 128,-1,22
 794 128 794 128 934 183 c 1,23,-1
 960 35 l 1,0,1
563 1603 m 1,24,-1
 739 1603 l 1,25,-1
 739 1367 l 1,26,-1
 563 1367 l 1,27,-1
 563 1603 l 1,24,-1
EndSplineSet
EndChar

StartChar: Ccaron
Encoding: 268 268 225
Width: 1366
GlyphClass: 2
Flags: W
LayerCount: 2
Fore
SplineSet
854 -20 m 0,0,1
 115 -20 115 -20 115 774 c 0,2,3
 115 1419 115 1419 611 1542 c 0,4,5
 718 1568 718 1568 838 1568 c 0,6,7
 1069 1568 1069 1568 1294 1477 c 1,8,-1
 1241 1329 l 1,9,10
 1033 1411 1033 1411 875 1411 c 128,-1,11
 717 1411 717 1411 614.5 1379.5 c 128,-1,12
 512 1348 512 1348 439 1269 c 0,13,14
 300 1119 300 1119 294 774 c 1,15,16
 300 456 300 456 428 302 c 1,17,18
 566 139 566 139 857 139 c 0,19,20
 1057 139 1057 139 1280 232 c 1,21,-1
 1333 81 l 1,22,23
 1097 -20 1097 -20 854 -20 c 0,0,1
854 1615 m 1,24,-1
 491 1827 l 1,25,-1
 548 1940 l 1,26,-1
 854 1779 l 1,27,-1
 1160 1940 l 1,28,-1
 1217 1827 l 1,29,-1
 854 1615 l 1,24,-1
EndSplineSet
EndChar

StartChar: ccaron
Encoding: 269 269 226
Width: 1024
GlyphClass: 2
Flags: W
LayerCount: 2
Fore
SplineSet
960 35 m 1,0,1
 816 -20 816 -20 668.5 -20 c 128,-1,2
 521 -20 521 -20 423.5 14 c 128,-1,3
 326 48 326 48 256 120 c 0,4,5
 110 272 110 272 110 574 c 0,6,7
 110 1172 110 1172 622 1172 c 1,8,-1
 657 1171 l 1,9,10
 788 1166 788 1166 844.5 1146 c 128,-1,11
 901 1126 901 1126 927 1115 c 1,12,-1
 889 967 l 1,13,14
 763 1024 763 1024 634 1024 c 2,15,-1
 617 1024 l 2,16,17
 289 1024 289 1024 289 576 c 0,18,19
 289 339 289 339 397 224 c 0,20,21
 487 128 487 128 640.5 128 c 128,-1,22
 794 128 794 128 934 183 c 1,23,-1
 960 35 l 1,0,1
283 1583 m 1,24,-1
 369 1696 l 1,25,-1
 653 1481 l 1,26,-1
 938 1694 l 1,27,-1
 1021 1583 l 1,28,-1
 653 1298 l 1,29,-1
 283 1583 l 1,24,-1
EndSplineSet
EndChar

StartChar: Dcaron
Encoding: 270 270 227
Width: 1541
GlyphClass: 2
Flags: W
LayerCount: 2
Fore
SplineSet
220 0 m 1,0,-1
 220 1554 l 1,1,-1
 702 1554 l 2,2,3
 1275 1554 1275 1554 1394 1099 c 0,4,5
 1431 955 1431 955 1431 776 c 2,6,-1
 1431 735 l 2,7,8
 1431 384 1431 384 1240 193 c 0,9,10
 1047 0 1047 0 694 0 c 2,11,-1
 220 0 l 1,0,-1
393 157 m 1,12,-1
 694 157 l 2,13,14
 965 157 965 157 1111 316 c 0,15,16
 1252 469 1252 469 1252 735 c 2,17,-1
 1252 776 l 1,18,19
 1246 1095 1246 1095 1120 1242 c 0,20,21
 988 1396 988 1396 698 1396 c 2,22,-1
 393 1396 l 1,23,-1
 393 157 l 1,12,-1
741 1615 m 1,24,-1
 378 1827 l 1,25,-1
 435 1940 l 1,26,-1
 741 1779 l 1,27,-1
 1047 1940 l 1,28,-1
 1104 1827 l 1,29,-1
 741 1615 l 1,24,-1
EndSplineSet
EndChar

StartChar: dcaron
Encoding: 271 271 228
Width: 1366
GlyphClass: 2
Flags: W
LayerCount: 2
Fore
SplineSet
1268 1674 m 1,0,-1
 1435 1674 l 1,1,-1
 1349 1215 l 1,2,-1
 1222 1236 l 1,3,-1
 1268 1674 l 1,0,-1
944 150 m 1,4,5
 768 -20 768 -20 575 -20 c 1,6,7
 273 -24 273 -24 174 279 c 0,8,9
 133 407 133 407 136 553.5 c 128,-1,10
 139 700 139 700 165 809.5 c 128,-1,11
 191 919 191 919 246 1000 c 1,12,13
 365 1171 365 1171 602 1171 c 1,14,15
 783 1168 783 1168 942 1088 c 1,16,-1
 942 1634 l 1,17,-1
 1111 1620 l 1,18,-1
 1111 1092 l 2,19,20
 1111 108 1111 108 1118 0 c 1,21,-1
 961 0 l 1,22,-1
 944 150 l 1,4,5
947 965 m 1,23,24
 804 1021 804 1021 613 1025 c 1,25,26
 372 1025 372 1025 329 747 c 0,27,28
 283 447 283 447 362 270 c 0,29,30
 425 128 425 128 588 128 c 0,31,32
 785 128 785 128 944 298 c 1,33,-1
 944 790 l 2,34,35
 944 832 944 832 945 874.5 c 128,-1,36
 946 917 946 917 947 965 c 1,23,24
EndSplineSet
EndChar

StartChar: Dcroat
Encoding: 272 272 229
Width: 1541
GlyphClass: 2
Flags: W
LayerCount: 2
Fore
SplineSet
220 0 m 1,0,-1
 220 733 l 1,1,-1
 26 733 l 1,2,-1
 26 886 l 1,3,-1
 220 886 l 1,4,-1
 220 1554 l 1,5,-1
 702 1554 l 2,6,7
 1275 1554 1275 1554 1394 1099 c 0,8,9
 1431 955 1431 955 1431 776 c 2,10,-1
 1431 735 l 2,11,12
 1431 384 1431 384 1240 193 c 0,13,14
 1047 0 1047 0 694 0 c 2,15,-1
 220 0 l 1,0,-1
393 157 m 1,16,-1
 694 157 l 2,17,18
 965 157 965 157 1111 316 c 0,19,20
 1252 469 1252 469 1252 735 c 2,21,-1
 1252 776 l 1,22,23
 1246 1095 1246 1095 1120 1242 c 0,24,25
 988 1396 988 1396 698 1396 c 2,26,-1
 393 1396 l 1,27,-1
 393 886 l 1,28,-1
 801 886 l 1,29,-1
 801 733 l 1,30,-1
 393 733 l 1,31,-1
 393 157 l 1,16,-1
EndSplineSet
EndChar

StartChar: dcroat
Encoding: 273 273 230
Width: 1370
GlyphClass: 2
Flags: W
LayerCount: 2
Fore
SplineSet
944 150 m 1,0,1
 768 -20 768 -20 575 -20 c 1,2,3
 273 -24 273 -24 174 279 c 0,4,5
 133 407 133 407 136 553.5 c 128,-1,6
 139 700 139 700 165 809.5 c 128,-1,7
 191 919 191 919 246 1000 c 1,8,9
 365 1171 365 1171 602 1171 c 1,10,11
 783 1168 783 1168 942 1088 c 1,12,-1
 942 1345 l 1,13,-1
 567 1345 l 1,14,-1
 567 1462 l 1,15,-1
 942 1462 l 1,16,-1
 942 1634 l 1,17,-1
 1111 1620 l 1,18,-1
 1111 1462 l 1,19,-1
 1245 1462 l 1,20,-1
 1245 1345 l 1,21,-1
 1111 1345 l 1,22,23
 1111 210 1111 210 1118 0 c 1,24,-1
 961 0 l 1,25,-1
 944 150 l 1,0,1
947 965 m 1,26,27
 804 1021 804 1021 613 1025 c 1,28,29
 372 1025 372 1025 329 747 c 0,30,31
 283 447 283 447 362 270 c 0,32,33
 425 128 425 128 588 128 c 0,34,35
 785 128 785 128 944 298 c 1,36,-1
 944 790 l 2,37,38
 944 832 944 832 945 874.5 c 128,-1,39
 946 917 946 917 947 965 c 1,26,27
EndSplineSet
EndChar

StartChar: Emacron
Encoding: 274 274 231
Width: 1196
GlyphClass: 2
Flags: W
LayerCount: 2
Fore
SplineSet
220 1554 m 1,0,-1
 1107 1554 l 1,1,-1
 1098 1394 l 1,2,-1
 393 1394 l 1,3,-1
 393 874 l 1,4,-1
 1024 874 l 1,5,-1
 1024 716 l 1,6,-1
 393 716 l 1,7,-1
 393 159 l 1,8,-1
 1117 159 l 1,9,-1
 1126 0 l 1,10,-1
 220 0 l 1,11,-1
 220 1554 l 1,0,-1
368 1859 m 1,12,-1
 1000 1859 l 1,13,-1
 1000 1722 l 1,14,-1
 368 1722 l 1,15,-1
 368 1859 l 1,12,-1
EndSplineSet
EndChar

StartChar: emacron
Encoding: 275 275 232
Width: 1196
GlyphClass: 2
Flags: W
LayerCount: 2
Fore
SplineSet
957 35 m 1,0,1
 810 -20 810 -20 663 -20 c 0,2,3
 363 -20 363 -20 230 162 c 1,4,5
 121 309 121 309 121 587 c 128,-1,6
 121 865 121 865 245.5 1017 c 128,-1,7
 370 1169 370 1169 612 1171 c 1,8,9
 838 1171 838 1171 952 1002 c 0,10,11
 1056 849 1056 849 1056 570 c 2,12,-1
 1056 534 l 1,13,-1
 297 534 l 1,14,15
 314 215 314 215 515 148 c 0,16,17
 577 128 577 128 677.5 128 c 128,-1,18
 778 128 778 128 924 183 c 1,19,-1
 957 35 l 1,0,1
876 669 m 1,20,21
 864 842 864 842 814 927 c 1,22,23
 727 1070 727 1070 512 1012 c 1,24,25
 393 981 393 981 334 856 c 0,26,27
 299 782 299 782 297 669 c 1,28,-1
 876 669 l 1,20,21
298 1509 m 1,29,-1
 929 1509 l 1,30,-1
 929 1372 l 1,31,-1
 298 1372 l 1,32,-1
 298 1509 l 1,29,-1
EndSplineSet
EndChar

StartChar: Ebreve
Encoding: 276 276 233
Width: 1196
GlyphClass: 2
Flags: W
LayerCount: 2
Fore
SplineSet
220 1554 m 1,0,-1
 1107 1554 l 1,1,-1
 1098 1394 l 1,2,-1
 393 1394 l 1,3,-1
 393 874 l 1,4,-1
 1024 874 l 1,5,-1
 1024 716 l 1,6,-1
 393 716 l 1,7,-1
 393 159 l 1,8,-1
 1117 159 l 1,9,-1
 1126 0 l 1,10,-1
 220 0 l 1,11,-1
 220 1554 l 1,0,-1
684 1700 m 0,12,13
 487 1700 487 1700 404 1838 c 0,14,15
 377 1882 377 1882 367 1938 c 1,16,-1
 499 1978 l 1,17,18
 510 1911 510 1911 569 1870 c 0,19,20
 621 1834 621 1834 666.5 1834 c 128,-1,21
 712 1834 712 1834 742.5 1843 c 128,-1,22
 773 1852 773 1852 799 1870 c 0,23,24
 859 1911 859 1911 870 1978 c 1,25,-1
 1001 1938 l 1,26,27
 983 1827 983 1827 895 1762 c 0,28,29
 810 1700 810 1700 684 1700 c 0,12,13
EndSplineSet
EndChar

StartChar: ebreve
Encoding: 277 277 234
Width: 1196
GlyphClass: 2
Flags: W
LayerCount: 2
Fore
SplineSet
957 35 m 1,0,1
 810 -20 810 -20 663 -20 c 0,2,3
 363 -20 363 -20 230 162 c 1,4,5
 121 309 121 309 121 587 c 128,-1,6
 121 865 121 865 245.5 1017 c 128,-1,7
 370 1169 370 1169 612 1171 c 1,8,9
 838 1171 838 1171 952 1002 c 0,10,11
 1056 849 1056 849 1056 570 c 2,12,-1
 1056 534 l 1,13,-1
 297 534 l 1,14,15
 314 215 314 215 515 148 c 0,16,17
 577 128 577 128 677.5 128 c 128,-1,18
 778 128 778 128 924 183 c 1,19,-1
 957 35 l 1,0,1
876 669 m 1,20,21
 864 842 864 842 814 927 c 1,22,23
 727 1070 727 1070 512 1012 c 1,24,25
 393 981 393 981 334 856 c 0,26,27
 299 782 299 782 297 669 c 1,28,-1
 876 669 l 1,20,21
614 1312 m 0,29,30
 551 1312 551 1312 497.5 1328 c 128,-1,31
 444 1344 444 1344 402 1374 c 0,32,33
 317 1437 317 1437 297 1550 c 1,34,-1
 429 1590 l 1,35,36
 440 1523 440 1523 499 1482 c 0,37,38
 551 1446 551 1446 596.5 1446 c 128,-1,39
 642 1446 642 1446 672.5 1455 c 128,-1,40
 703 1464 703 1464 729 1482 c 0,41,42
 789 1523 789 1523 800 1590 c 1,43,-1
 931 1550 l 1,44,45
 913 1439 913 1439 826 1374 c 1,46,47
 740 1312 740 1312 614 1312 c 0,29,30
EndSplineSet
EndChar

StartChar: Edotaccent
Encoding: 278 278 235
Width: 1196
GlyphClass: 2
Flags: W
LayerCount: 2
Fore
SplineSet
220 1554 m 1,0,-1
 1107 1554 l 1,1,-1
 1098 1394 l 1,2,-1
 393 1394 l 1,3,-1
 393 874 l 1,4,-1
 1024 874 l 1,5,-1
 1024 716 l 1,6,-1
 393 716 l 1,7,-1
 393 159 l 1,8,-1
 1117 159 l 1,9,-1
 1126 0 l 1,10,-1
 220 0 l 1,11,-1
 220 1554 l 1,0,-1
595 2018 m 1,12,-1
 771 2018 l 1,13,-1
 771 1782 l 1,14,-1
 595 1782 l 1,15,-1
 595 2018 l 1,12,-1
EndSplineSet
EndChar

StartChar: edotaccent
Encoding: 279 279 236
Width: 1196
GlyphClass: 2
Flags: W
LayerCount: 2
Fore
SplineSet
957 35 m 1,0,1
 810 -20 810 -20 663 -20 c 0,2,3
 363 -20 363 -20 230 162 c 1,4,5
 121 309 121 309 121 587 c 128,-1,6
 121 865 121 865 245.5 1017 c 128,-1,7
 370 1169 370 1169 612 1171 c 1,8,9
 838 1171 838 1171 952 1002 c 0,10,11
 1056 849 1056 849 1056 570 c 2,12,-1
 1056 534 l 1,13,-1
 297 534 l 1,14,15
 314 215 314 215 515 148 c 0,16,17
 577 128 577 128 677.5 128 c 128,-1,18
 778 128 778 128 924 183 c 1,19,-1
 957 35 l 1,0,1
876 669 m 1,20,21
 864 842 864 842 814 927 c 1,22,23
 727 1070 727 1070 512 1012 c 1,24,25
 393 981 393 981 334 856 c 0,26,27
 299 782 299 782 297 669 c 1,28,-1
 876 669 l 1,20,21
525 1601 m 1,29,-1
 701 1601 l 1,30,-1
 701 1365 l 1,31,-1
 525 1365 l 1,32,-1
 525 1601 l 1,29,-1
EndSplineSet
EndChar

StartChar: Eogonek
Encoding: 280 280 237
Width: 1196
GlyphClass: 2
Flags: W
LayerCount: 2
Fore
SplineSet
1144 -440 m 1,0,1
 1063 -477 1063 -477 999.5 -477 c 128,-1,2
 936 -477 936 -477 898 -464 c 128,-1,3
 860 -451 860 -451 832 -426 c 0,4,5
 774 -373 774 -373 774 -280 c 0,6,7
 774 -175 774 -175 862 -58 c 0,8,9
 887 -24 887 -24 914 0 c 1,10,-1
 220 0 l 1,11,-1
 220 1554 l 1,12,-1
 1107 1554 l 1,13,-1
 1098 1394 l 1,14,-1
 393 1394 l 1,15,-1
 393 874 l 1,16,-1
 1024 874 l 1,17,-1
 1024 716 l 1,18,-1
 393 716 l 1,19,-1
 393 159 l 1,20,-1
 1117 159 l 1,21,-1
 1126 0 l 1,22,-1
 1051 0 l 1,23,24
 947 -97 947 -97 929 -197 c 1,25,26
 914 -333 914 -333 1033 -333 c 0,27,28
 1081 -333 1081 -333 1119 -322 c 1,29,-1
 1144 -440 l 1,0,1
EndSplineSet
EndChar

StartChar: eogonek
Encoding: 281 281 238
Width: 1196
GlyphClass: 2
Flags: W
LayerCount: 2
Fore
SplineSet
711 -18 m 1,0,1
 683 -20 683 -20 651 -20 c 0,2,3
 363 -20 363 -20 230 162 c 1,4,5
 121 309 121 309 121 587 c 128,-1,6
 121 865 121 865 245.5 1017 c 128,-1,7
 370 1169 370 1169 612 1171 c 1,8,9
 838 1171 838 1171 952 1002 c 0,10,11
 1056 849 1056 849 1056 570 c 2,12,-1
 1056 534 l 1,13,-1
 297 534 l 1,14,15
 314 215 314 215 515 148 c 0,16,17
 577 128 577 128 677.5 128 c 128,-1,18
 778 128 778 128 924 183 c 1,19,-1
 957 35 l 1,20,21
 923 22 923 22 876 8 c 1,22,23
 765 -89 765 -89 745 -197 c 1,24,25
 730 -333 730 -333 849 -333 c 0,26,27
 897 -333 897 -333 935 -322 c 1,28,-1
 960 -440 l 1,29,30
 879 -477 879 -477 815.5 -477 c 128,-1,31
 752 -477 752 -477 714 -464 c 128,-1,32
 676 -451 676 -451 648 -426 c 0,33,34
 590 -373 590 -373 590 -280 c 0,35,36
 590 -184 590 -184 665 -75 c 0,37,38
 687 -43 687 -43 711 -18 c 1,0,1
876 669 m 1,39,40
 864 842 864 842 814 927 c 1,41,42
 727 1070 727 1070 512 1012 c 1,43,44
 393 981 393 981 334 856 c 0,45,46
 299 782 299 782 297 669 c 1,47,-1
 876 669 l 1,39,40
EndSplineSet
EndChar

StartChar: Ecaron
Encoding: 282 282 239
Width: 1196
GlyphClass: 2
Flags: W
LayerCount: 2
Fore
SplineSet
220 1554 m 1,0,-1
 1107 1554 l 1,1,-1
 1098 1394 l 1,2,-1
 393 1394 l 1,3,-1
 393 874 l 1,4,-1
 1024 874 l 1,5,-1
 1024 716 l 1,6,-1
 393 716 l 1,7,-1
 393 159 l 1,8,-1
 1117 159 l 1,9,-1
 1126 0 l 1,10,-1
 220 0 l 1,11,-1
 220 1554 l 1,0,-1
683 1615 m 1,12,-1
 320 1827 l 1,13,-1
 377 1940 l 1,14,-1
 683 1779 l 1,15,-1
 989 1940 l 1,16,-1
 1046 1827 l 1,17,-1
 683 1615 l 1,12,-1
EndSplineSet
EndChar

StartChar: ecaron
Encoding: 283 283 240
Width: 1196
GlyphClass: 2
Flags: W
LayerCount: 2
Fore
SplineSet
957 35 m 1,0,1
 810 -20 810 -20 663 -20 c 0,2,3
 363 -20 363 -20 230 162 c 1,4,5
 121 309 121 309 121 587 c 128,-1,6
 121 865 121 865 245.5 1017 c 128,-1,7
 370 1169 370 1169 612 1171 c 1,8,9
 838 1171 838 1171 952 1002 c 0,10,11
 1056 849 1056 849 1056 570 c 2,12,-1
 1056 534 l 1,13,-1
 297 534 l 1,14,15
 314 215 314 215 515 148 c 0,16,17
 577 128 577 128 677.5 128 c 128,-1,18
 778 128 778 128 924 183 c 1,19,-1
 957 35 l 1,0,1
876 669 m 1,20,21
 864 842 864 842 814 927 c 1,22,23
 727 1070 727 1070 512 1012 c 1,24,25
 393 981 393 981 334 856 c 0,26,27
 299 782 299 782 297 669 c 1,28,-1
 876 669 l 1,20,21
245 1581 m 1,29,-1
 331 1694 l 1,30,-1
 615 1479 l 1,31,-1
 900 1692 l 1,32,-1
 983 1581 l 1,33,-1
 615 1296 l 1,34,-1
 245 1581 l 1,29,-1
EndSplineSet
EndChar

StartChar: Gcircumflex
Encoding: 284 284 241
Width: 1537
GlyphClass: 2
Flags: W
LayerCount: 2
Fore
SplineSet
863 1569 m 1,0,-1
 903 1568 l 1,1,2
 1145 1559 1145 1559 1347 1468 c 1,3,-1
 1289 1320 l 1,4,5
 1099 1406 1099 1406 924 1410.5 c 128,-1,6
 749 1415 749 1415 641.5 1367.5 c 128,-1,7
 534 1320 534 1320 466 1232 c 0,8,9
 333 1060 333 1060 333 740 c 1,10,11
 345 442 345 442 476 296 c 0,12,13
 634 121 634 121 966 134 c 0,14,15
 1110 140 1110 140 1210 194 c 1,16,-1
 1210 688 l 1,17,-1
 939 688 l 1,18,-1
 939 847 l 1,19,-1
 1382 847 l 1,20,-1
 1382 81 l 1,21,22
 1205 5 1205 5 1006 -16 c 0,23,24
 944 -22 944 -22 890 -20 c 0,25,26
 330 0 330 0 200 432 c 0,27,28
 158 570 158 570 156.5 710 c 128,-1,29
 155 850 155 850 170.5 954.5 c 128,-1,30
 186 1059 186 1059 220.5 1151 c 128,-1,31
 255 1243 255 1243 310 1320 c 128,-1,32
 365 1397 365 1397 444 1452 c 1,33,34
 608 1569 608 1569 863 1569 c 1,0,-1
600 1615 m 1,35,-1
 543 1728 l 1,36,-1
 906 1940 l 1,37,-1
 1269 1728 l 1,38,-1
 1212 1615 l 1,39,-1
 906 1776 l 1,40,-1
 600 1615 l 1,35,-1
EndSplineSet
EndChar

StartChar: gcircumflex
Encoding: 285 285 242
Width: 1196
GlyphClass: 2
Flags: W
LayerCount: 2
Fore
SplineSet
553 382 m 0,0,1
 457 382 457 382 387 409 c 1,2,3
 359 393 359 393 335 358 c 0,4,5
 296 302 296 302 296 277 c 0,6,7
 296 230 296 230 343 199 c 1,8,9
 386 172 386 172 451.5 172 c 128,-1,10
 517 172 517 172 569 180 c 0,11,12
 658 195 658 195 731 195 c 128,-1,13
 804 195 804 195 873.5 180 c 128,-1,14
 943 165 943 165 997 131 c 0,15,16
 1116 56 1116 56 1125 -95 c 1,17,18
 1130 -305 1130 -305 936 -425 c 0,19,20
 779 -523 779 -523 565 -530 c 0,21,22
 372 -536 372 -536 240 -455 c 0,23,24
 196 -428 196 -428 163 -390 c 0,25,26
 98 -314 98 -314 98 -205 c 0,27,28
 98 -67 98 -67 194 36 c 0,29,30
 225 70 225 70 264 93 c 1,31,32
 149 153 149 153 149 257 c 0,33,34
 149 320 149 320 189.5 371.5 c 128,-1,35
 230 423 230 423 306 451 c 1,36,37
 149 548 149 548 149 773 c 0,38,39
 149 959 149 959 281 1069 c 0,40,41
 403 1171 403 1171 576 1171 c 0,42,43
 691 1171 691 1171 781 1135 c 1,44,45
 814 1129 814 1129 905.5 1129 c 128,-1,46
 997 1129 997 1129 1172 1166 c 1,47,-1
 1199 1020 l 1,48,49
 1158 1018 1158 1018 1116.5 1015.5 c 128,-1,50
 1075 1013 1075 1013 1027 1011 c 2,51,-1
 929 1007 l 1,52,53
 977 950 977 950 991 833 c 0,54,55
 995 800 995 800 995 773 c 0,56,57
 995 582 995 582 863 476 c 0,58,59
 746 382 746 382 553 382 c 0,0,1
829 773 m 1,60,61
 833 929 833 929 752 996 c 1,62,63
 692 1041 692 1041 567 1037 c 1,64,65
 394 1024 394 1024 336 882 c 0,66,67
 317 835 317 835 315 775 c 1,68,69
 313 648 313 648 378 582 c 128,-1,70
 443 516 443 516 562 516 c 128,-1,71
 681 516 681 516 755 586 c 128,-1,72
 829 656 829 656 829 773 c 1,60,61
493 24 m 1,73,74
 415 24 415 24 357 44 c 1,75,76
 291 3 291 3 268 -98 c 0,77,78
 261 -129 261 -129 261 -162 c 0,79,80
 261 -240 261 -240 304 -292 c 1,81,82
 375 -385 375 -385 563 -380 c 0,83,84
 714 -376 714 -376 796 -336 c 0,85,86
 947 -264 947 -264 947 -132 c 1,87,88
 943 39 943 39 735 39 c 1,89,-1
 493 24 l 1,73,74
278 1296 m 1,90,-1
 192 1405 l 1,91,-1
 585 1718 l 1,92,-1
 976 1405 l 1,93,-1
 894 1298 l 1,94,-1
 585 1535 l 1,95,-1
 278 1296 l 1,90,-1
EndSplineSet
EndChar

StartChar: Gbreve
Encoding: 286 286 243
Width: 1537
GlyphClass: 2
Flags: W
LayerCount: 2
Fore
SplineSet
863 1569 m 1,0,-1
 903 1568 l 1,1,2
 1145 1559 1145 1559 1347 1468 c 1,3,-1
 1289 1320 l 1,4,5
 1099 1406 1099 1406 924 1410.5 c 128,-1,6
 749 1415 749 1415 641.5 1367.5 c 128,-1,7
 534 1320 534 1320 466 1232 c 0,8,9
 333 1060 333 1060 333 740 c 1,10,11
 345 442 345 442 476 296 c 0,12,13
 634 121 634 121 966 134 c 0,14,15
 1110 140 1110 140 1210 194 c 1,16,-1
 1210 688 l 1,17,-1
 939 688 l 1,18,-1
 939 847 l 1,19,-1
 1382 847 l 1,20,-1
 1382 81 l 1,21,22
 1205 5 1205 5 1006 -16 c 0,23,24
 944 -22 944 -22 890 -20 c 0,25,26
 330 0 330 0 200 432 c 0,27,28
 158 570 158 570 156.5 710 c 128,-1,29
 155 850 155 850 170.5 954.5 c 128,-1,30
 186 1059 186 1059 220.5 1151 c 128,-1,31
 255 1243 255 1243 310 1320 c 128,-1,32
 365 1397 365 1397 444 1452 c 1,33,34
 608 1569 608 1569 863 1569 c 1,0,-1
905 1700 m 0,35,36
 708 1700 708 1700 625 1838 c 0,37,38
 598 1882 598 1882 588 1938 c 1,39,-1
 720 1978 l 1,40,41
 731 1911 731 1911 790 1870 c 0,42,43
 842 1834 842 1834 887.5 1834 c 128,-1,44
 933 1834 933 1834 963.5 1843 c 128,-1,45
 994 1852 994 1852 1020 1870 c 0,46,47
 1080 1911 1080 1911 1091 1978 c 1,48,-1
 1222 1938 l 1,49,50
 1204 1827 1204 1827 1116 1762 c 0,51,52
 1031 1700 1031 1700 905 1700 c 0,35,36
EndSplineSet
EndChar

StartChar: gbreve
Encoding: 287 287 244
Width: 1196
GlyphClass: 2
Flags: W
LayerCount: 2
Fore
SplineSet
553 382 m 0,0,1
 457 382 457 382 387 409 c 1,2,3
 359 393 359 393 335 358 c 0,4,5
 296 302 296 302 296 277 c 0,6,7
 296 230 296 230 343 199 c 1,8,9
 386 172 386 172 451.5 172 c 128,-1,10
 517 172 517 172 569 180 c 0,11,12
 658 195 658 195 731 195 c 128,-1,13
 804 195 804 195 873.5 180 c 128,-1,14
 943 165 943 165 997 131 c 0,15,16
 1116 56 1116 56 1125 -95 c 1,17,18
 1130 -305 1130 -305 936 -425 c 0,19,20
 779 -523 779 -523 565 -530 c 0,21,22
 372 -536 372 -536 240 -455 c 0,23,24
 196 -428 196 -428 163 -390 c 0,25,26
 98 -314 98 -314 98 -205 c 0,27,28
 98 -67 98 -67 194 36 c 0,29,30
 225 70 225 70 264 93 c 1,31,32
 149 153 149 153 149 257 c 0,33,34
 149 320 149 320 189.5 371.5 c 128,-1,35
 230 423 230 423 306 451 c 1,36,37
 149 548 149 548 149 773 c 0,38,39
 149 959 149 959 281 1069 c 0,40,41
 403 1171 403 1171 576 1171 c 0,42,43
 691 1171 691 1171 781 1135 c 1,44,45
 814 1129 814 1129 905.5 1129 c 128,-1,46
 997 1129 997 1129 1172 1166 c 1,47,-1
 1199 1020 l 1,48,49
 1158 1018 1158 1018 1116.5 1015.5 c 128,-1,50
 1075 1013 1075 1013 1027 1011 c 2,51,-1
 929 1007 l 1,52,53
 977 950 977 950 991 833 c 0,54,55
 995 800 995 800 995 773 c 0,56,57
 995 582 995 582 863 476 c 0,58,59
 746 382 746 382 553 382 c 0,0,1
829 773 m 1,60,61
 833 929 833 929 752 996 c 1,62,63
 692 1041 692 1041 567 1037 c 1,64,65
 394 1024 394 1024 336 882 c 0,66,67
 317 835 317 835 315 775 c 1,68,69
 313 648 313 648 378 582 c 128,-1,70
 443 516 443 516 562 516 c 128,-1,71
 681 516 681 516 755 586 c 128,-1,72
 829 656 829 656 829 773 c 1,60,61
493 24 m 1,73,74
 415 24 415 24 357 44 c 1,75,76
 291 3 291 3 268 -98 c 0,77,78
 261 -129 261 -129 261 -162 c 0,79,80
 261 -240 261 -240 304 -292 c 1,81,82
 375 -385 375 -385 563 -380 c 0,83,84
 714 -376 714 -376 796 -336 c 0,85,86
 947 -264 947 -264 947 -132 c 1,87,88
 943 39 943 39 735 39 c 1,89,-1
 493 24 l 1,73,74
585 1312 m 0,90,91
 522 1312 522 1312 468.5 1328 c 128,-1,92
 415 1344 415 1344 373 1374 c 0,93,94
 288 1437 288 1437 268 1550 c 1,95,-1
 400 1590 l 1,96,97
 411 1523 411 1523 470 1482 c 0,98,99
 522 1446 522 1446 567.5 1446 c 128,-1,100
 613 1446 613 1446 643.5 1455 c 128,-1,101
 674 1464 674 1464 700 1482 c 0,102,103
 760 1523 760 1523 771 1590 c 1,104,-1
 902 1550 l 1,105,106
 884 1439 884 1439 797 1374 c 1,107,108
 711 1312 711 1312 585 1312 c 0,90,91
EndSplineSet
EndChar

StartChar: Gdotaccent
Encoding: 288 288 245
Width: 1537
GlyphClass: 2
Flags: W
LayerCount: 2
Fore
SplineSet
863 1569 m 1,0,-1
 903 1568 l 1,1,2
 1145 1559 1145 1559 1347 1468 c 1,3,-1
 1289 1320 l 1,4,5
 1099 1406 1099 1406 924 1410.5 c 128,-1,6
 749 1415 749 1415 641.5 1367.5 c 128,-1,7
 534 1320 534 1320 466 1232 c 0,8,9
 333 1060 333 1060 333 740 c 1,10,11
 345 442 345 442 476 296 c 0,12,13
 634 121 634 121 966 134 c 0,14,15
 1110 140 1110 140 1210 194 c 1,16,-1
 1210 688 l 1,17,-1
 939 688 l 1,18,-1
 939 847 l 1,19,-1
 1382 847 l 1,20,-1
 1382 81 l 1,21,22
 1205 5 1205 5 1006 -16 c 0,23,24
 944 -22 944 -22 890 -20 c 0,25,26
 330 0 330 0 200 432 c 0,27,28
 158 570 158 570 156.5 710 c 128,-1,29
 155 850 155 850 170.5 954.5 c 128,-1,30
 186 1059 186 1059 220.5 1151 c 128,-1,31
 255 1243 255 1243 310 1320 c 128,-1,32
 365 1397 365 1397 444 1452 c 1,33,34
 608 1569 608 1569 863 1569 c 1,0,-1
816 2018 m 1,35,-1
 992 2018 l 1,36,-1
 992 1782 l 1,37,-1
 816 1782 l 1,38,-1
 816 2018 l 1,35,-1
EndSplineSet
EndChar

StartChar: gdotaccent
Encoding: 289 289 246
Width: 1196
GlyphClass: 2
Flags: W
LayerCount: 2
Fore
SplineSet
553 382 m 0,0,1
 457 382 457 382 387 409 c 1,2,3
 359 393 359 393 335 358 c 0,4,5
 296 302 296 302 296 277 c 0,6,7
 296 230 296 230 343 199 c 1,8,9
 386 172 386 172 451.5 172 c 128,-1,10
 517 172 517 172 569 180 c 0,11,12
 658 195 658 195 731 195 c 128,-1,13
 804 195 804 195 873.5 180 c 128,-1,14
 943 165 943 165 997 131 c 0,15,16
 1116 56 1116 56 1125 -95 c 1,17,18
 1130 -305 1130 -305 936 -425 c 0,19,20
 779 -523 779 -523 565 -530 c 0,21,22
 372 -536 372 -536 240 -455 c 0,23,24
 196 -428 196 -428 163 -390 c 0,25,26
 98 -314 98 -314 98 -205 c 0,27,28
 98 -67 98 -67 194 36 c 0,29,30
 225 70 225 70 264 93 c 1,31,32
 149 153 149 153 149 257 c 0,33,34
 149 320 149 320 189.5 371.5 c 128,-1,35
 230 423 230 423 306 451 c 1,36,37
 149 548 149 548 149 773 c 0,38,39
 149 959 149 959 281 1069 c 0,40,41
 403 1171 403 1171 576 1171 c 0,42,43
 691 1171 691 1171 781 1135 c 1,44,45
 814 1129 814 1129 905.5 1129 c 128,-1,46
 997 1129 997 1129 1172 1166 c 1,47,-1
 1199 1020 l 1,48,49
 1158 1018 1158 1018 1116.5 1015.5 c 128,-1,50
 1075 1013 1075 1013 1027 1011 c 2,51,-1
 929 1007 l 1,52,53
 977 950 977 950 991 833 c 0,54,55
 995 800 995 800 995 773 c 0,56,57
 995 582 995 582 863 476 c 0,58,59
 746 382 746 382 553 382 c 0,0,1
829 773 m 1,60,61
 833 929 833 929 752 996 c 1,62,63
 692 1041 692 1041 567 1037 c 1,64,65
 394 1024 394 1024 336 882 c 0,66,67
 317 835 317 835 315 775 c 1,68,69
 313 648 313 648 378 582 c 128,-1,70
 443 516 443 516 562 516 c 128,-1,71
 681 516 681 516 755 586 c 128,-1,72
 829 656 829 656 829 773 c 1,60,61
493 24 m 1,73,74
 415 24 415 24 357 44 c 1,75,76
 291 3 291 3 268 -98 c 0,77,78
 261 -129 261 -129 261 -162 c 0,79,80
 261 -240 261 -240 304 -292 c 1,81,82
 375 -385 375 -385 563 -380 c 0,83,84
 714 -376 714 -376 796 -336 c 0,85,86
 947 -264 947 -264 947 -132 c 1,87,88
 943 39 943 39 735 39 c 1,89,-1
 493 24 l 1,73,74
496 1601 m 1,90,-1
 672 1601 l 1,91,-1
 672 1365 l 1,92,-1
 496 1365 l 1,93,-1
 496 1601 l 1,90,-1
EndSplineSet
EndChar

StartChar: Gcommaaccent
Encoding: 290 290 247
Width: 1537
GlyphClass: 2
Flags: W
LayerCount: 2
Fore
SplineSet
863 1569 m 1,0,-1
 903 1568 l 1,1,2
 1145 1559 1145 1559 1347 1468 c 1,3,-1
 1289 1320 l 1,4,5
 1099 1406 1099 1406 924 1410.5 c 128,-1,6
 749 1415 749 1415 641.5 1367.5 c 128,-1,7
 534 1320 534 1320 466 1232 c 0,8,9
 333 1060 333 1060 333 740 c 1,10,11
 345 442 345 442 476 296 c 0,12,13
 634 121 634 121 966 134 c 0,14,15
 1110 140 1110 140 1210 194 c 1,16,-1
 1210 688 l 1,17,-1
 939 688 l 1,18,-1
 939 847 l 1,19,-1
 1382 847 l 1,20,-1
 1382 81 l 1,21,22
 1205 5 1205 5 1006 -16 c 0,23,24
 944 -22 944 -22 890 -20 c 0,25,26
 330 0 330 0 200 432 c 0,27,28
 158 570 158 570 156.5 710 c 128,-1,29
 155 850 155 850 170.5 954.5 c 128,-1,30
 186 1059 186 1059 220.5 1151 c 128,-1,31
 255 1243 255 1243 310 1320 c 128,-1,32
 365 1397 365 1397 444 1452 c 1,33,34
 608 1569 608 1569 863 1569 c 1,0,-1
992 -125 m 1,35,-1
 906 -540 l 1,36,-1
 779 -520 l 1,37,-1
 825 -125 l 1,38,-1
 992 -125 l 1,35,-1
EndSplineSet
EndChar

StartChar: gcommaaccent
Encoding: 291 291 248
Width: 1196
GlyphClass: 2
Flags: W
LayerCount: 2
Fore
SplineSet
605 1798 m 1,0,-1
 733 1777 l 1,1,-1
 686 1340 l 1,2,-1
 519 1340 l 1,3,-1
 605 1798 l 1,0,-1
553 382 m 0,4,5
 457 382 457 382 387 409 c 1,6,7
 359 393 359 393 335 358 c 0,8,9
 296 302 296 302 296 277 c 0,10,11
 296 230 296 230 343 199 c 1,12,13
 386 172 386 172 451.5 172 c 128,-1,14
 517 172 517 172 569 180 c 0,15,16
 658 195 658 195 731 195 c 128,-1,17
 804 195 804 195 873.5 180 c 128,-1,18
 943 165 943 165 997 131 c 0,19,20
 1116 56 1116 56 1125 -95 c 1,21,22
 1130 -305 1130 -305 936 -425 c 0,23,24
 779 -523 779 -523 565 -530 c 0,25,26
 372 -536 372 -536 240 -455 c 0,27,28
 196 -428 196 -428 163 -390 c 0,29,30
 98 -314 98 -314 98 -205 c 0,31,32
 98 -67 98 -67 194 36 c 0,33,34
 225 70 225 70 264 93 c 1,35,36
 149 153 149 153 149 257 c 0,37,38
 149 320 149 320 189.5 371.5 c 128,-1,39
 230 423 230 423 306 451 c 1,40,41
 149 548 149 548 149 773 c 0,42,43
 149 959 149 959 281 1069 c 0,44,45
 403 1171 403 1171 576 1171 c 0,46,47
 691 1171 691 1171 781 1135 c 1,48,49
 814 1129 814 1129 905.5 1129 c 128,-1,50
 997 1129 997 1129 1172 1166 c 1,51,-1
 1199 1020 l 1,52,53
 1158 1018 1158 1018 1116.5 1015.5 c 128,-1,54
 1075 1013 1075 1013 1027 1011 c 2,55,-1
 929 1007 l 1,56,57
 977 950 977 950 991 833 c 0,58,59
 995 800 995 800 995 773 c 0,60,61
 995 582 995 582 863 476 c 0,62,63
 746 382 746 382 553 382 c 0,4,5
829 773 m 1,64,65
 833 929 833 929 752 996 c 1,66,67
 692 1041 692 1041 567 1037 c 1,68,69
 394 1024 394 1024 336 882 c 0,70,71
 317 835 317 835 315 775 c 1,72,73
 313 648 313 648 378 582 c 128,-1,74
 443 516 443 516 562 516 c 128,-1,75
 681 516 681 516 755 586 c 128,-1,76
 829 656 829 656 829 773 c 1,64,65
493 24 m 1,77,78
 415 24 415 24 357 44 c 1,79,80
 291 3 291 3 268 -98 c 0,81,82
 261 -129 261 -129 261 -162 c 0,83,84
 261 -240 261 -240 304 -292 c 1,85,86
 375 -385 375 -385 563 -380 c 0,87,88
 714 -376 714 -376 796 -336 c 0,89,90
 947 -264 947 -264 947 -132 c 1,91,92
 943 39 943 39 735 39 c 1,93,-1
 493 24 l 1,77,78
EndSplineSet
EndChar

StartChar: Hcircumflex
Encoding: 292 292 249
Width: 1537
GlyphClass: 2
Flags: W
LayerCount: 2
Fore
SplineSet
171 0 m 1,0,-1
 171 1554 l 1,1,-1
 344 1554 l 1,2,-1
 344 887 l 1,3,-1
 1191 887 l 1,4,-1
 1191 1554 l 1,5,-1
 1364 1554 l 1,6,-1
 1364 0 l 1,7,-1
 1191 0 l 1,8,-1
 1191 733 l 1,9,-1
 344 733 l 1,10,-1
 344 0 l 1,11,-1
 171 0 l 1,0,-1
464 1615 m 1,12,-1
 407 1728 l 1,13,-1
 770 1940 l 1,14,-1
 1133 1728 l 1,15,-1
 1076 1615 l 1,16,-1
 770 1776 l 1,17,-1
 464 1615 l 1,12,-1
EndSplineSet
EndChar

StartChar: hcircumflex
Encoding: 293 293 250
Width: 1366
GlyphClass: 2
Flags: W
LayerCount: 2
Fore
SplineSet
-66 1742 m 1,0,-1
 298 1954 l 1,1,-1
 660 1742 l 1,2,-1
 603 1629 l 1,3,-1
 298 1791 l 1,4,-1
 -9 1629 l 1,5,-1
 -66 1742 l 1,0,-1
218 0 m 1,6,-1
 215 1409 l 1,7,8
 213 1589 213 1589 212 1620 c 1,9,-1
 383 1634 l 1,10,-1
 383 1016 l 1,11,12
 610 1171 610 1171 781 1171 c 0,13,14
 1061 1171 1061 1171 1128 970 c 0,15,16
 1151 901 1151 901 1154 806 c 1,17,-1
 1154 0 l 1,18,-1
 987 0 l 1,19,-1
 987 745 l 2,20,21
 987 898 987 898 942 960 c 0,22,23
 899 1020 899 1020 788 1020 c 0,24,25
 640 1020 640 1020 490 945 c 0,26,27
 440 920 440 920 386 888 c 1,28,-1
 388 797 l 2,29,30
 390 721 390 721 390 643 c 2,31,-1
 390 0 l 1,32,-1
 218 0 l 1,6,-1
EndSplineSet
EndChar

StartChar: Hbar
Encoding: 294 294 251
Width: 1537
GlyphClass: 2
Flags: W
LayerCount: 2
Fore
SplineSet
171 0 m 1,0,-1
 171 1175 l 1,1,-1
 8 1175 l 1,2,-1
 8 1305 l 1,3,-1
 171 1305 l 1,4,-1
 171 1574 l 1,5,-1
 344 1574 l 1,6,-1
 344 1305 l 1,7,-1
 1191 1305 l 1,8,-1
 1191 1574 l 1,9,-1
 1364 1574 l 1,10,-1
 1364 1305 l 1,11,-1
 1529 1305 l 1,12,-1
 1529 1175 l 1,13,-1
 1364 1175 l 1,14,-1
 1364 0 l 1,15,-1
 1191 0 l 1,16,-1
 1191 759 l 1,17,-1
 344 759 l 1,18,-1
 344 0 l 1,19,-1
 171 0 l 1,0,-1
344 914 m 1,20,-1
 1191 914 l 1,21,-1
 1191 1175 l 1,22,-1
 344 1175 l 1,23,-1
 344 914 l 1,20,-1
EndSplineSet
EndChar

StartChar: hbar
Encoding: 295 295 252
Width: 1366
GlyphClass: 2
Flags: W
LayerCount: 2
Fore
SplineSet
383 1016 m 1,0,1
 610 1171 610 1171 781 1171 c 0,2,3
 1061 1171 1061 1171 1128 970 c 0,4,5
 1151 901 1151 901 1154 806 c 1,6,-1
 1154 0 l 1,7,-1
 987 0 l 1,8,-1
 987 745 l 2,9,10
 987 898 987 898 942 960 c 0,11,12
 899 1020 899 1020 788 1020 c 0,13,14
 640 1020 640 1020 490 945 c 0,15,16
 440 920 440 920 386 888 c 1,17,-1
 388 797 l 2,18,19
 390 721 390 721 390 643 c 2,20,-1
 390 0 l 1,21,-1
 218 0 l 1,22,-1
 218 484 l 2,23,24
 218 1096 218 1096 215 1345 c 1,25,-1
 22 1345 l 1,26,-1
 22 1462 l 1,27,-1
 215 1462 l 1,28,29
 213 1576 213 1576 212.5 1596 c 128,-1,30
 212 1616 212 1616 212 1620 c 1,31,-1
 383 1634 l 1,32,-1
 383 1462 l 1,33,-1
 814 1462 l 1,34,-1
 814 1345 l 1,35,-1
 383 1345 l 1,36,-1
 383 1016 l 1,0,1
EndSplineSet
EndChar

StartChar: Itilde
Encoding: 296 296 253
Width: 513
GlyphClass: 2
Flags: W
LayerCount: 2
Fore
SplineSet
170 1554 m 1,0,-1
 343 1554 l 1,1,-1
 343 0 l 1,2,-1
 170 0 l 1,3,-1
 170 1554 l 1,0,-1
-104 1769 m 1,4,5
 -69 1849 -69 1849 -12 1898 c 128,-1,6
 45 1947 45 1947 98.5 1952.5 c 128,-1,7
 152 1958 152 1958 190 1942 c 128,-1,8
 228 1926 228 1926 263 1904 c 1,9,10
 263 1904 263 1904 331 1864 c 0,11,12
 444 1796 444 1796 514 1939 c 1,13,-1
 618 1878 l 1,14,15
 583 1797 583 1797 526 1750 c 0,16,17
 409 1652 409 1652 250 1755 c 0,18,19
 161 1813 161 1813 125 1813 c 0,20,21
 51 1813 51 1813 0 1709 c 1,22,-1
 -104 1769 l 1,4,5
EndSplineSet
EndChar

StartChar: itilde
Encoding: 297 297 254
Width: 684
GlyphClass: 2
Flags: W
LayerCount: 2
Fore
SplineSet
257 1157 m 1,0,-1
 427 1157 l 1,1,-1
 427 0 l 1,2,-1
 257 0 l 1,3,-1
 257 1157 l 1,0,-1
-17 1400 m 1,4,5
 18 1480 18 1480 74.5 1529 c 128,-1,6
 131 1578 131 1578 185 1583.5 c 128,-1,7
 239 1589 239 1589 277 1573 c 128,-1,8
 315 1557 315 1557 350 1536 c 2,9,10
 350 1536 350 1536 418 1494 c 1,11,12
 531 1427 531 1427 601 1570 c 1,13,-1
 705 1509 l 1,14,15
 670 1428 670 1428 613 1380 c 0,16,17
 496 1283 496 1283 337 1386 c 0,18,19
 248 1444 248 1444 212 1444 c 0,20,21
 138 1444 138 1444 87 1340 c 1,22,-1
 -17 1400 l 1,4,5
EndSplineSet
EndChar

StartChar: Imacron
Encoding: 298 298 255
Width: 513
GlyphClass: 2
Flags: W
LayerCount: 2
Fore
SplineSet
170 1554 m 1,0,-1
 343 1554 l 1,1,-1
 343 0 l 1,2,-1
 170 0 l 1,3,-1
 170 1554 l 1,0,-1
-59 1859 m 1,4,-1
 573 1859 l 1,5,-1
 573 1722 l 1,6,-1
 -59 1722 l 1,7,-1
 -59 1859 l 1,4,-1
EndSplineSet
EndChar

StartChar: imacron
Encoding: 299 299 256
Width: 684
GlyphClass: 2
Flags: W
LayerCount: 2
Fore
SplineSet
257 1157 m 1,0,-1
 427 1157 l 1,1,-1
 427 0 l 1,2,-1
 257 0 l 1,3,-1
 257 1157 l 1,0,-1
27 1509 m 1,4,-1
 658 1509 l 1,5,-1
 658 1372 l 1,6,-1
 27 1372 l 1,7,-1
 27 1509 l 1,4,-1
EndSplineSet
EndChar

StartChar: Ibreve
Encoding: 300 300 257
Width: 513
GlyphClass: 2
Flags: W
LayerCount: 2
Fore
SplineSet
170 1554 m 1,0,-1
 343 1554 l 1,1,-1
 343 0 l 1,2,-1
 170 0 l 1,3,-1
 170 1554 l 1,0,-1
257 1700 m 0,4,5
 60 1700 60 1700 -23 1838 c 0,6,7
 -50 1882 -50 1882 -60 1938 c 1,8,-1
 72 1978 l 1,9,10
 83 1911 83 1911 142 1870 c 0,11,12
 194 1834 194 1834 239.5 1834 c 128,-1,13
 285 1834 285 1834 315.5 1843 c 128,-1,14
 346 1852 346 1852 372 1870 c 0,15,16
 432 1911 432 1911 443 1978 c 1,17,-1
 574 1938 l 1,18,19
 556 1827 556 1827 468 1762 c 0,20,21
 383 1700 383 1700 257 1700 c 0,4,5
EndSplineSet
EndChar

StartChar: ibreve
Encoding: 301 301 258
Width: 684
GlyphClass: 2
Flags: W
LayerCount: 2
Fore
SplineSet
257 1157 m 1,0,-1
 427 1157 l 1,1,-1
 427 0 l 1,2,-1
 257 0 l 1,3,-1
 257 1157 l 1,0,-1
343 1312 m 0,4,5
 280 1312 280 1312 226.5 1328 c 128,-1,6
 173 1344 173 1344 131 1374 c 0,7,8
 46 1437 46 1437 26 1550 c 1,9,-1
 158 1590 l 1,10,11
 169 1523 169 1523 228 1482 c 0,12,13
 280 1446 280 1446 325.5 1446 c 128,-1,14
 371 1446 371 1446 401.5 1455 c 128,-1,15
 432 1464 432 1464 458 1482 c 0,16,17
 518 1523 518 1523 529 1590 c 1,18,-1
 660 1550 l 1,19,20
 642 1439 642 1439 555 1374 c 1,21,22
 469 1312 469 1312 343 1312 c 0,4,5
EndSplineSet
EndChar

StartChar: Iogonek
Encoding: 302 302 259
Width: 513
GlyphClass: 2
Flags: W
LayerCount: 2
Fore
SplineSet
345 -440 m 1,0,1
 264 -477 264 -477 200.5 -477 c 128,-1,2
 137 -477 137 -477 99 -464 c 128,-1,3
 61 -451 61 -451 34 -426 c 0,4,5
 -25 -373 -25 -373 -25 -280 c 0,6,7
 -25 -196 -25 -196 38 -94 c 0,8,9
 99 5 99 5 164 34 c 1,10,-1
 170 33 l 1,11,-1
 170 1554 l 1,12,-1
 343 1554 l 1,13,-1
 343 0 l 1,14,-1
 252 0 l 1,15,16
 148 -97 148 -97 130 -197 c 1,17,18
 115 -333 115 -333 234 -333 c 0,19,20
 282 -333 282 -333 320 -322 c 1,21,-1
 345 -440 l 1,0,1
EndSplineSet
EndChar

StartChar: iogonek
Encoding: 303 303 260
Width: 684
GlyphClass: 2
Flags: W
LayerCount: 2
Fore
SplineSet
257 1620 m 1,0,-1
 427 1620 l 1,1,-1
 427 1382 l 1,2,-1
 257 1382 l 1,3,-1
 257 1620 l 1,0,-1
429 -440 m 1,4,5
 348 -477 348 -477 284.5 -477 c 128,-1,6
 221 -477 221 -477 183 -464 c 128,-1,7
 145 -451 145 -451 118 -426 c 0,8,9
 59 -373 59 -373 59 -280 c 0,10,11
 59 -196 59 -196 122 -94 c 0,12,13
 183 5 183 5 248 34 c 1,14,-1
 257 33 l 1,15,-1
 257 1157 l 1,16,-1
 427 1157 l 1,17,-1
 427 0 l 1,18,-1
 336 0 l 1,19,20
 232 -97 232 -97 214 -197 c 1,21,22
 199 -333 199 -333 318 -333 c 0,23,24
 366 -333 366 -333 404 -322 c 1,25,-1
 429 -440 l 1,4,5
EndSplineSet
EndChar

StartChar: Idotaccent
Encoding: 304 304 261
Width: 513
GlyphClass: 2
Flags: W
LayerCount: 2
Fore
SplineSet
170 1554 m 1,0,-1
 343 1554 l 1,1,-1
 343 0 l 1,2,-1
 170 0 l 1,3,-1
 170 1554 l 1,0,-1
168 2018 m 1,4,-1
 344 2018 l 1,5,-1
 344 1782 l 1,6,-1
 168 1782 l 1,7,-1
 168 2018 l 1,4,-1
EndSplineSet
EndChar

StartChar: dotlessi
Encoding: 305 305 262
Width: 684
GlyphClass: 2
Flags: W
LayerCount: 2
Fore
SplineSet
257 1157 m 1,0,-1
 427 1157 l 1,1,-1
 427 0 l 1,2,-1
 257 0 l 1,3,-1
 257 1157 l 1,0,-1
EndSplineSet
EndChar

StartChar: IJ
Encoding: 306 306 263
Width: 1366
GlyphClass: 2
Flags: W
LayerCount: 2
Fore
SplineSet
170 1554 m 1,0,-1
 343 1554 l 1,1,-1
 343 0 l 1,2,-1
 170 0 l 1,3,-1
 170 1554 l 1,0,-1
596 172 m 1,4,5
 672 134 672 134 759 134 c 128,-1,6
 846 134 846 134 896 157 c 128,-1,7
 946 180 946 180 973 224 c 1,8,9
 1020 297 1020 297 1020 468 c 2,10,-1
 1020 1554 l 1,11,-1
 1193 1554 l 1,12,-1
 1193 479 l 2,13,14
 1193 315 1193 315 1172.5 234.5 c 128,-1,15
 1152 154 1152 154 1111.5 104 c 128,-1,16
 1071 54 1071 54 1017 26 c 1,17,18
 924 -20 924 -20 765 -20 c 0,19,20
 651 -20 651 -20 570 -2 c 1,21,-1
 596 172 l 1,4,5
EndSplineSet
EndChar

StartChar: ij
Encoding: 307 307 264
Width: 1368
GlyphClass: 2
Flags: W
LayerCount: 2
Fore
SplineSet
257 1620 m 1,0,-1
 427 1620 l 1,1,-1
 427 1382 l 1,2,-1
 257 1382 l 1,3,-1
 257 1620 l 1,0,-1
257 1157 m 1,4,-1
 427 1157 l 1,5,-1
 427 0 l 1,6,-1
 257 0 l 1,7,-1
 257 1157 l 1,4,-1
941 1620 m 1,8,-1
 1112 1620 l 1,9,-1
 1112 1382 l 1,10,-1
 941 1382 l 1,11,-1
 941 1620 l 1,8,-1
943 -200 m 2,12,-1
 941 -35 l 1,13,-1
 941 1157 l 1,14,-1
 1112 1157 l 1,15,-1
 1112 -35 l 1,16,-1
 1113 -119 l 1,17,18
 1113 -272 1113 -272 1094.5 -331 c 128,-1,19
 1076 -390 1076 -390 1048.5 -422 c 128,-1,20
 1021 -454 1021 -454 974 -474 c 0,21,22
 889 -512 889 -512 766 -512 c 0,23,24
 698 -512 698 -512 595 -497 c 1,25,-1
 615 -333 l 1,26,27
 738 -372 738 -372 805.5 -372 c 128,-1,28
 873 -372 873 -372 902 -341 c 128,-1,29
 931 -310 931 -310 937 -280 c 128,-1,30
 943 -250 943 -250 943 -200 c 2,12,-1
EndSplineSet
EndChar

StartChar: Jcircumflex
Encoding: 308 308 265
Width: 853
GlyphClass: 2
Flags: W
LayerCount: 2
Fore
SplineSet
83 172 m 1,0,1
 159 134 159 134 246 134 c 128,-1,2
 333 134 333 134 383 157 c 128,-1,3
 433 180 433 180 460 224 c 1,4,5
 507 297 507 297 507 468 c 2,6,-1
 507 1554 l 1,7,-1
 680 1554 l 1,8,-1
 680 479 l 2,9,10
 680 315 680 315 659.5 234.5 c 128,-1,11
 639 154 639 154 598.5 104 c 128,-1,12
 558 54 558 54 504 26 c 1,13,14
 411 -20 411 -20 252 -20 c 0,15,16
 138 -20 138 -20 57 -2 c 1,17,-1
 83 172 l 1,0,1
292 1629 m 1,18,-1
 235 1742 l 1,19,-1
 598 1954 l 1,20,-1
 961 1742 l 1,21,-1
 904 1629 l 1,22,-1
 598 1790 l 1,23,-1
 292 1629 l 1,18,-1
EndSplineSet
EndChar

StartChar: jcircumflex
Encoding: 309 309 266
Width: 684
GlyphClass: 2
Flags: W
LayerCount: 2
Fore
SplineSet
259 -200 m 2,0,-1
 257 -35 l 1,1,-1
 257 1157 l 1,2,-1
 428 1157 l 1,3,-1
 428 -35 l 1,4,-1
 429 -119 l 1,5,6
 429 -272 429 -272 410.5 -331 c 128,-1,7
 392 -390 392 -390 364.5 -422 c 128,-1,8
 337 -454 337 -454 290 -474 c 0,9,10
 205 -512 205 -512 82 -512 c 0,11,12
 14 -512 14 -512 -89 -497 c 1,13,-1
 -69 -333 l 1,14,15
 54 -372 54 -372 121.5 -372 c 128,-1,16
 189 -372 189 -372 218 -341 c 128,-1,17
 247 -310 247 -310 253 -280 c 128,-1,18
 259 -250 259 -250 259 -200 c 2,0,-1
35 1296 m 1,19,-1
 -51 1405 l 1,20,-1
 342 1718 l 1,21,-1
 733 1405 l 1,22,-1
 651 1298 l 1,23,-1
 342 1535 l 1,24,-1
 35 1296 l 1,19,-1
EndSplineSet
EndChar

StartChar: Kcommaaccent
Encoding: 310 310 267
Width: 1365
GlyphClass: 2
Flags: W
LayerCount: 2
Fore
SplineSet
970 213 m 1,0,-1
 828 391 l 2,1,2
 776 455 776 455 764 467 c 0,3,4
 629 616 629 616 580 676 c 2,5,6
 580 676 580 676 472 806 c 1,7,-1
 472 839 l 1,8,-1
 1071 1554 l 1,9,-1
 1301 1554 l 1,10,-1
 673 827 l 1,11,12
 943 519 943 519 983 470 c 2,13,-1
 1106 324 l 1,14,-1
 1312 86 l 1,15,-1
 1144 -23 l 1,16,17
 1059 99 1059 99 970 213 c 1,0,-1
220 0 m 1,18,-1
 220 1554 l 1,19,-1
 393 1554 l 1,20,-1
 393 0 l 1,21,-1
 220 0 l 1,18,-1
873 -125 m 1,22,-1
 787 -540 l 1,23,-1
 660 -520 l 1,24,-1
 706 -125 l 1,25,-1
 873 -125 l 1,22,-1
EndSplineSet
EndChar

StartChar: kcommaaccent
Encoding: 311 311 268
Width: 1198
GlyphClass: 2
Flags: W
LayerCount: 2
Fore
SplineSet
206 0 m 1,0,1
 206 0 206 0 203 1409 c 1,2,3
 201 1589 201 1589 200 1620 c 1,4,-1
 376 1634 l 1,5,-1
 378 694 l 1,6,-1
 378 0 l 1,7,-1
 206 0 l 1,0,1
764 234 m 2,8,-1
 476 583 l 2,9,10
 441 624 441 624 429 641 c 1,11,-1
 889 1157 l 1,12,-1
 1111 1157 l 1,13,-1
 628 641 l 1,14,15
 633 634 633 634 648 616 c 0,16,17
 761 482 761 482 789 446 c 1,18,-1
 1118 90 l 1,19,-1
 955 -20 l 1,20,21
 868 107 868 107 764 234 c 2,8,-1
690 -125 m 1,22,-1
 604 -540 l 1,23,-1
 477 -520 l 1,24,-1
 523 -125 l 1,25,-1
 690 -125 l 1,22,-1
EndSplineSet
EndChar

StartChar: kgreenlandic
Encoding: 312 312 269
Width: 1198
GlyphClass: 2
Flags: W
LayerCount: 2
Fore
SplineSet
205 776 m 2,0,1
 205 893 205 893 204 999.5 c 128,-1,2
 203 1106 203 1106 199 1171 c 1,3,-1
 375 1185 l 1,4,-1
 377 694 l 1,5,-1
 377 0 l 1,6,-1
 206 0 l 1,7,-1
 206 470 l 1,8,-1
 205 776 l 2,0,1
556 488 m 1,9,-1
 475 583 l 2,10,11
 440 624 440 624 428 641 c 1,12,-1
 874 1157 l 1,13,-1
 1096 1157 l 1,14,-1
 627 641 l 1,15,16
 632 634 632 634 648 616 c 2,17,-1
 789 446 l 1,18,-1
 1103 90 l 1,19,-1
 936 -23 l 1,20,-1
 754 233 l 1,21,-1
 556 488 l 1,9,-1
EndSplineSet
EndChar

StartChar: Lacute
Encoding: 313 313 270
Width: 1197
GlyphClass: 2
Flags: W
LayerCount: 2
Fore
SplineSet
385 1654 m 1,0,-1
 765 2020 l 1,1,-1
 878 1897 l 1,2,-1
 478 1552 l 1,3,-1
 385 1654 l 1,0,-1
168 0 m 1,4,-1
 168 1554 l 1,5,-1
 341 1554 l 1,6,-1
 341 162 l 1,7,-1
 1054 162 l 1,8,-1
 1047 0 l 1,9,-1
 168 0 l 1,4,-1
EndSplineSet
EndChar

StartChar: lacute
Encoding: 314 314 271
Width: 698
GlyphClass: 2
Flags: W
LayerCount: 2
Fore
SplineSet
227 1827 m 1,0,-1
 685 2020 l 1,1,-1
 752 1867 l 1,2,-1
 282 1700 l 1,3,-1
 227 1827 l 1,0,-1
364 312 m 1,4,5
 358 203 358 203 393 167.5 c 128,-1,6
 428 132 428 132 493.5 132 c 128,-1,7
 559 132 559 132 683 166 c 1,8,-1
 715 20 l 1,9,10
 583 -16 583 -16 504.5 -18.5 c 128,-1,11
 426 -21 426 -21 370 -7.5 c 128,-1,12
 314 6 314 6 274 42 c 0,13,14
 188 119 188 119 192 301 c 1,15,-1
 194 1620 l 1,16,-1
 366 1634 l 1,17,-1
 364 312 l 1,4,5
EndSplineSet
EndChar

StartChar: Lcommaaccent
Encoding: 315 315 272
Width: 1197
GlyphClass: 2
Flags: W
LayerCount: 2
Fore
SplineSet
168 0 m 1,0,-1
 168 1554 l 1,1,-1
 341 1554 l 1,2,-1
 341 162 l 1,3,-1
 1054 162 l 1,4,-1
 1047 0 l 1,5,-1
 168 0 l 1,0,-1
705 -125 m 1,6,-1
 619 -540 l 1,7,-1
 492 -520 l 1,8,-1
 538 -125 l 1,9,-1
 705 -125 l 1,6,-1
EndSplineSet
EndChar

StartChar: lcommaaccent
Encoding: 316 316 273
Width: 698
GlyphClass: 2
Flags: W
LayerCount: 2
Fore
SplineSet
364 312 m 1,0,1
 358 203 358 203 393 167.5 c 128,-1,2
 428 132 428 132 493.5 132 c 128,-1,3
 559 132 559 132 683 166 c 1,4,-1
 715 20 l 1,5,6
 583 -16 583 -16 504.5 -18.5 c 128,-1,7
 426 -21 426 -21 370 -7.5 c 128,-1,8
 314 6 314 6 274 42 c 0,9,10
 188 119 188 119 192 301 c 1,11,-1
 194 1620 l 1,12,-1
 366 1634 l 1,13,-1
 364 312 l 1,0,1
560 -125 m 1,14,-1
 474 -540 l 1,15,-1
 347 -520 l 1,16,-1
 393 -125 l 1,17,-1
 560 -125 l 1,14,-1
EndSplineSet
EndChar

StartChar: Lcaron
Encoding: 317 317 274
Width: 1197
GlyphClass: 2
Flags: W
LayerCount: 2
Fore
SplineSet
585 1650 m 1,0,-1
 752 1650 l 1,1,-1
 666 1192 l 1,2,-1
 540 1212 l 1,3,-1
 585 1650 l 1,0,-1
168 0 m 1,4,-1
 168 1554 l 1,5,-1
 341 1554 l 1,6,-1
 341 162 l 1,7,-1
 1054 162 l 1,8,-1
 1047 0 l 1,9,-1
 168 0 l 1,4,-1
EndSplineSet
EndChar

StartChar: lcaron
Encoding: 318 318 275
Width: 854
GlyphClass: 2
Flags: W
LayerCount: 2
Fore
SplineSet
585 1674 m 1,0,-1
 753 1674 l 1,1,-1
 667 1215 l 1,2,-1
 539 1236 l 1,3,-1
 585 1674 l 1,0,-1
364 312 m 1,4,5
 358 203 358 203 393 167.5 c 128,-1,6
 428 132 428 132 493.5 132 c 128,-1,7
 559 132 559 132 683 166 c 1,8,-1
 715 20 l 1,9,10
 583 -16 583 -16 504.5 -18.5 c 128,-1,11
 426 -21 426 -21 370 -7.5 c 128,-1,12
 314 6 314 6 274 42 c 0,13,14
 188 119 188 119 192 301 c 1,15,-1
 194 1620 l 1,16,-1
 366 1634 l 1,17,-1
 364 312 l 1,4,5
EndSplineSet
EndChar

StartChar: Ldot
Encoding: 319 319 276
Width: 1197
GlyphClass: 2
Flags: W
LayerCount: 2
Fore
SplineSet
828 888 m 1,0,-1
 1020 888 l 1,1,-1
 1020 680 l 1,2,-1
 828 680 l 1,3,-1
 828 888 l 1,0,-1
168 0 m 1,4,-1
 168 1554 l 1,5,-1
 341 1554 l 1,6,-1
 341 162 l 1,7,-1
 1054 162 l 1,8,-1
 1047 0 l 1,9,-1
 168 0 l 1,4,-1
EndSplineSet
EndChar

StartChar: ldot
Encoding: 320 320 277
Width: 853
GlyphClass: 2
Flags: W
LayerCount: 2
Fore
SplineSet
544 988 m 1,0,-1
 733 988 l 1,1,-1
 733 762 l 1,2,-1
 544 762 l 1,3,-1
 544 988 l 1,0,-1
364 312 m 1,4,5
 358 203 358 203 393 167.5 c 128,-1,6
 428 132 428 132 493.5 132 c 128,-1,7
 559 132 559 132 683 166 c 1,8,-1
 715 20 l 1,9,10
 583 -16 583 -16 504.5 -18.5 c 128,-1,11
 426 -21 426 -21 370 -7.5 c 128,-1,12
 314 6 314 6 274 42 c 0,13,14
 188 119 188 119 192 301 c 1,15,-1
 194 1620 l 1,16,-1
 366 1634 l 1,17,-1
 364 312 l 1,4,5
EndSplineSet
EndChar

StartChar: Lslash
Encoding: 321 321 278
Width: 1197
GlyphClass: 2
Flags: W
LayerCount: 2
Fore
SplineSet
168 0 m 1,0,-1
 168 694 l 1,1,-1
 -79 528 l 1,2,-1
 -152 636 l 1,3,-1
 168 852 l 1,4,-1
 168 1574 l 1,5,-1
 341 1574 l 1,6,-1
 341 967 l 1,7,-1
 668 1190 l 1,8,-1
 740 1080 l 1,9,-1
 341 810 l 1,10,-1
 341 162 l 1,11,-1
 1054 162 l 1,12,-1
 1047 0 l 1,13,-1
 168 0 l 1,0,-1
EndSplineSet
EndChar

StartChar: lslash
Encoding: 322 322 279
Width: 698
GlyphClass: 2
Flags: W
LayerCount: 2
Fore
SplineSet
364 312 m 1,0,1
 358 203 358 203 393 167.5 c 128,-1,2
 428 132 428 132 493.5 132 c 128,-1,3
 559 132 559 132 683 166 c 1,4,-1
 715 20 l 1,5,6
 583 -16 583 -16 504.5 -18.5 c 128,-1,7
 426 -21 426 -21 370 -7.5 c 128,-1,8
 314 6 314 6 274 42 c 0,9,10
 188 119 188 119 192 301 c 1,11,-1
 192 594 l 1,12,-1
 88 507 l 1,13,-1
 7 605 l 1,14,-1
 192 761 l 1,15,-1
 194 1620 l 1,16,-1
 366 1634 l 1,17,-1
 365 905 l 1,18,-1
 594 1097 l 1,19,-1
 676 1000 l 1,20,-1
 364 738 l 1,21,-1
 364 312 l 1,0,1
EndSplineSet
EndChar

StartChar: Nacute
Encoding: 323 323 280
Width: 1536
GlyphClass: 2
Flags: W
LayerCount: 2
Fore
SplineSet
165 1554 m 1,0,-1
 422 1554 l 1,1,-1
 1075 407 l 1,2,-1
 1197 163 l 1,3,-1
 1197 1554 l 1,4,-1
 1370 1554 l 1,5,-1
 1370 0 l 1,6,-1
 1116 0 l 1,7,-1
 458 1153 l 1,8,-1
 338 1390 l 1,9,-1
 338 0 l 1,10,-1
 165 0 l 1,11,-1
 165 1554 l 1,0,-1
788 1615 m 1,12,-1
 695 1717 l 1,13,-1
 1015 2020 l 1,14,-1
 1128 1897 l 1,15,-1
 788 1615 l 1,12,-1
EndSplineSet
EndChar

StartChar: nacute
Encoding: 324 324 281
Width: 1365
GlyphClass: 2
Flags: W
LayerCount: 2
Fore
SplineSet
206 0 m 1,0,-1
 207 339 l 1,1,2
 207 771 207 771 204 890 c 2,3,-1
 200 1048 l 2,4,5
 197 1140 197 1140 194 1157 c 1,6,-1
 366 1166 l 1,7,8
 365 1154 365 1154 364.5 1134.5 c 128,-1,9
 364 1115 364 1115 364 1086 c 2,10,-1
 364 1011 l 1,11,12
 598 1171 598 1171 777.5 1171 c 128,-1,13
 957 1171 957 1171 1049 1083.5 c 128,-1,14
 1141 996 1141 996 1146 806 c 1,15,-1
 1146 0 l 1,16,-1
 974 0 l 1,17,-1
 974 745 l 2,18,19
 974 898 974 898 930 960 c 1,20,21
 886 1020 886 1020 775 1020 c 0,22,23
 626 1020 626 1020 478 945 c 0,24,25
 428 920 428 920 373 888 c 1,26,-1
 375 797 l 2,27,28
 377 721 377 721 377 643 c 2,29,-1
 377 0 l 1,30,-1
 206 0 l 1,0,-1
424 1398 m 1,31,-1
 803 1764 l 1,32,-1
 916 1641 l 1,33,-1
 516 1296 l 1,34,-1
 424 1398 l 1,31,-1
EndSplineSet
EndChar

StartChar: Ncommaaccent
Encoding: 325 325 282
Width: 1536
GlyphClass: 2
Flags: W
LayerCount: 2
Fore
SplineSet
165 1554 m 1,0,-1
 422 1554 l 1,1,-1
 1075 407 l 1,2,-1
 1197 163 l 1,3,-1
 1197 1554 l 1,4,-1
 1370 1554 l 1,5,-1
 1370 0 l 1,6,-1
 1116 0 l 1,7,-1
 458 1153 l 1,8,-1
 338 1390 l 1,9,-1
 338 0 l 1,10,-1
 165 0 l 1,11,-1
 165 1554 l 1,0,-1
843 -125 m 1,12,-1
 757 -540 l 1,13,-1
 630 -520 l 1,14,-1
 676 -125 l 1,15,-1
 843 -125 l 1,12,-1
EndSplineSet
EndChar

StartChar: ncommaaccent
Encoding: 326 326 283
Width: 1365
GlyphClass: 2
Flags: W
LayerCount: 2
Fore
SplineSet
206 0 m 1,0,-1
 207 339 l 1,1,2
 207 771 207 771 204 890 c 2,3,-1
 200 1048 l 2,4,5
 197 1140 197 1140 194 1157 c 1,6,-1
 366 1166 l 1,7,8
 365 1154 365 1154 364.5 1134.5 c 128,-1,9
 364 1115 364 1115 364 1086 c 2,10,-1
 364 1011 l 1,11,12
 598 1171 598 1171 777.5 1171 c 128,-1,13
 957 1171 957 1171 1049 1083.5 c 128,-1,14
 1141 996 1141 996 1146 806 c 1,15,-1
 1146 0 l 1,16,-1
 974 0 l 1,17,-1
 974 745 l 2,18,19
 974 898 974 898 930 960 c 1,20,21
 886 1020 886 1020 775 1020 c 0,22,23
 626 1020 626 1020 478 945 c 0,24,25
 428 920 428 920 373 888 c 1,26,-1
 375 797 l 2,27,28
 377 721 377 721 377 643 c 2,29,-1
 377 0 l 1,30,-1
 206 0 l 1,0,-1
777 -125 m 1,31,-1
 691 -540 l 1,32,-1
 564 -520 l 1,33,-1
 610 -125 l 1,34,-1
 777 -125 l 1,31,-1
EndSplineSet
EndChar

StartChar: Ncaron
Encoding: 327 327 284
Width: 1536
GlyphClass: 2
Flags: W
LayerCount: 2
Fore
SplineSet
165 1554 m 1,0,-1
 422 1554 l 1,1,-1
 1075 407 l 1,2,-1
 1197 163 l 1,3,-1
 1197 1554 l 1,4,-1
 1370 1554 l 1,5,-1
 1370 0 l 1,6,-1
 1116 0 l 1,7,-1
 458 1153 l 1,8,-1
 338 1390 l 1,9,-1
 338 0 l 1,10,-1
 165 0 l 1,11,-1
 165 1554 l 1,0,-1
768 1615 m 1,12,-1
 405 1827 l 1,13,-1
 462 1940 l 1,14,-1
 768 1779 l 1,15,-1
 1074 1940 l 1,16,-1
 1131 1827 l 1,17,-1
 768 1615 l 1,12,-1
EndSplineSet
EndChar

